<svg width="97" height="85" viewBox="0 0 97 85" fill="none" xmlns="http://www.w3.org/2000/svg">
<g filter="url(#filter0_i_1031_3634)">
<path d="M47.2516 55.8293C58.9885 55.8293 68.5031 53.9818 68.5031 51.7027C68.5031 49.4237 58.9885 47.5762 47.2516 47.5762C35.5147 47.5762 26 49.4237 26 51.7027C26 53.9818 35.5147 55.8293 47.2516 55.8293Z" fill="#47250D"/>
<path d="M63.5546 49.2109L54.4209 18.1648C57.3425 16.2927 59.2193 13.4275 59.2193 10.2146C59.2193 4.57349 53.4575 0 46.3507 0C39.2439 0 33.4821 4.57349 33.4821 10.2146C33.4821 13.6559 35.6342 16.695 38.9249 18.5472L31.1987 49.3202C30.667 51.4356 32.7064 53.407 35.4215 53.407H59.3569C62.1283 53.407 64.1803 51.3561 63.5484 49.2109H63.5546Z" fill="#FFCD1D"/>
<path d="M46.2944 20.6091C43.6481 20.6091 40.9393 19.7252 38.9311 18.5483L38.562 20.0281L41.202 20.7581C44.7304 21.7314 48.5653 21.6023 51.9874 20.3956L54.8401 19.5564L54.4334 18.1709C52.3001 19.6259 49.2848 20.6091 46.3007 20.6091H46.2944Z" fill="#47250D"/>
<path d="M55.9939 11.6347C57.355 11.1352 57.356 8.83742 55.9961 6.50236C54.6362 4.1673 52.4303 2.67924 51.0692 3.17868C49.7081 3.67813 49.7072 5.97595 51.0671 8.31101C52.427 10.6461 54.6328 12.1341 55.9939 11.6347Z" fill="white"/>
</g>
<g filter="url(#filter1_i_1031_3634)">
<path d="M26.2516 65.8537C37.9885 65.8537 47.5031 64.0062 47.5031 61.7272C47.5031 59.4481 37.9885 57.6006 26.2516 57.6006C14.5147 57.6006 5 59.4481 5 61.7272C5 64.0062 14.5147 65.8537 26.2516 65.8537Z" fill="#47250D"/>
<path d="M42.5547 59.2353L33.4209 28.1893C36.3425 26.3172 38.2192 23.4519 38.2192 20.239C38.2192 14.5979 32.4575 10.0244 25.3507 10.0244C18.2439 10.0244 12.4821 14.5979 12.4821 20.239C12.4821 23.6803 14.6342 26.7194 17.9248 28.5716L10.1987 59.3446C9.66696 61.46 11.7064 63.4314 14.4215 63.4314H38.3569C41.1283 63.4314 43.1802 61.3806 42.5484 59.2353H42.5547Z" fill="#5C8659"/>
<path d="M25.2944 30.6335C22.6481 30.6335 19.9393 29.7496 17.9311 28.5727L17.562 30.0525L20.202 30.7825C23.7304 31.7558 27.5653 31.6267 30.9873 30.42L33.8401 29.5808L33.4334 28.1953C31.3001 29.6503 28.2848 30.6335 25.3007 30.6335H25.2944Z" fill="#47250D"/>
<path d="M34.9907 21.6601C36.3518 21.1606 36.3528 18.8628 34.9929 16.5277C33.633 14.1927 31.4272 12.7046 30.0661 13.2041C28.705 13.7035 28.704 16.0013 30.0639 18.3364C31.4238 20.6715 33.6296 22.1595 34.9907 21.6601Z" fill="white"/>
</g>
<g filter="url(#filter2_i_1031_3634)">
<path d="M68.2516 65.8293C79.9885 65.8293 89.5031 63.9818 89.5031 61.7027C89.5031 59.4237 79.9885 57.5762 68.2516 57.5762C56.5147 57.5762 47 59.4237 47 61.7027C47 63.9818 56.5147 65.8293 68.2516 65.8293Z" fill="#47250D"/>
<path d="M84.5546 59.2109L75.4209 28.1648C78.3425 26.2927 80.2193 23.4275 80.2193 20.2146C80.2193 14.5735 74.4575 10 67.3507 10C60.2439 10 54.4821 14.5735 54.4821 20.2146C54.4821 23.6559 56.6342 26.695 59.9249 28.5472L52.1987 59.3202C51.667 61.4356 53.7064 63.407 56.4215 63.407H80.3569C83.1283 63.407 85.1803 61.3561 84.5484 59.2109H84.5546Z" fill="#C6400C"/>
<path d="M67.2944 30.6091C64.6481 30.6091 61.9393 29.7252 59.9311 28.5483L59.562 30.0281L62.202 30.7581C65.7304 31.7314 69.5653 31.6023 72.9874 30.3956L75.8401 29.5564L75.4334 28.1709C73.3001 29.6259 70.2848 30.6091 67.3007 30.6091H67.2944Z" fill="#47250D"/>
<path d="M76.9939 21.6347C78.355 21.1352 78.356 18.8374 76.9961 16.5024C75.6362 14.1673 73.4303 12.6792 72.0692 13.1787C70.7081 13.6781 70.7072 15.9759 72.0671 18.311C73.427 20.6461 75.6328 22.1341 76.9939 21.6347Z" fill="white"/>
</g>
<g filter="url(#filter3_i_1031_3634)">
<path d="M75.2516 77.8293C86.9885 77.8293 96.5031 75.9818 96.5031 73.7027C96.5031 71.4237 86.9885 69.5762 75.2516 69.5762C63.5147 69.5762 54 71.4237 54 73.7027C54 75.9818 63.5147 77.8293 75.2516 77.8293Z" fill="#47250D"/>
<path d="M91.5546 71.2109L82.4209 40.1648C85.3425 38.2927 87.2193 35.4275 87.2193 32.2146C87.2193 26.5735 81.4575 22 74.3507 22C67.2439 22 61.4821 26.5735 61.4821 32.2146C61.4821 35.6559 63.6342 38.695 66.9249 40.5472L59.1987 71.3202C58.667 73.4356 60.7064 75.407 63.4215 75.407H87.3569C90.1283 75.407 92.1803 73.3561 91.5484 71.2109H91.5546Z" fill="#FFF9E2"/>
<path d="M74.2944 42.6091C71.6481 42.6091 68.9393 41.7252 66.9311 40.5483L66.562 42.0281L69.202 42.7581C72.7304 43.7314 76.5653 43.6023 79.9874 42.3956L82.8401 41.5564L82.4334 40.1709C80.3001 41.6259 77.2848 42.6091 74.3007 42.6091H74.2944Z" fill="#47250D"/>
<path d="M83.9939 33.6347C85.355 33.1352 85.356 30.8374 83.9961 28.5024C82.6362 26.1673 80.4303 24.6792 79.0692 25.1787C77.7081 25.6781 77.7072 27.9759 79.0671 30.311C80.427 32.6461 82.6328 34.1341 83.9939 33.6347Z" fill="white"/>
</g>
<g filter="url(#filter4_i_1031_3634)">
<path d="M21.2516 78.8293C32.9885 78.8293 42.5031 76.9818 42.5031 74.7027C42.5031 72.4237 32.9885 70.5762 21.2516 70.5762C9.51465 70.5762 0 72.4237 0 74.7027C0 76.9818 9.51465 78.8293 21.2516 78.8293Z" fill="#47250D"/>
<path d="M37.5546 72.2109L28.4209 41.1648C31.3425 39.2927 33.2193 36.4275 33.2193 33.2146C33.2193 27.5735 27.4575 23 20.3507 23C13.2439 23 7.48215 27.5735 7.48215 33.2146C7.48215 36.6559 9.63421 39.695 12.9249 41.5472L5.19872 72.3202C4.66696 74.4356 6.70641 76.407 9.42151 76.407H33.3569C36.1283 76.407 38.1803 74.3561 37.5484 72.2109H37.5546Z" fill="#2C180E"/>
<path d="M20.2944 43.6091C17.6481 43.6091 14.9393 42.7252 12.9311 41.5483L12.562 43.0281L15.202 43.7581C18.7304 44.7314 22.5653 44.6023 25.9874 43.3956L28.8401 42.5564L28.4334 41.1709C26.3001 42.6259 23.2848 43.6091 20.3007 43.6091H20.2944Z" fill="#47250D"/>
<path d="M29.9939 34.6347C31.355 34.1352 31.356 31.8374 29.9961 29.5024C28.6362 27.1673 26.4303 25.6792 25.0692 26.1787C23.7081 26.6781 23.7072 28.9759 25.0671 31.311C26.427 33.6461 28.6328 35.1341 29.9939 34.6347Z" fill="white"/>
</g>
<g filter="url(#filter5_i_1031_3634)">
<path d="M48.2516 84.8264C59.9885 84.8264 69.5031 82.9788 69.5031 80.6998C69.5031 78.4208 59.9885 76.5732 48.2516 76.5732C36.5147 76.5732 27 78.4208 27 80.6998C27 82.9788 36.5147 84.8264 48.2516 84.8264Z" fill="#47250D"/>
<path d="M64.5544 78.2109L55.4207 47.1648C58.3422 45.2927 60.219 42.4275 60.219 39.2146C60.219 33.5735 54.4573 29 47.3505 29C40.2437 29 34.4819 33.5735 34.4819 39.2146C34.4819 42.6559 36.634 45.695 39.9246 47.5472L32.1985 78.3202C31.6667 80.4356 33.7062 82.407 36.4213 82.407H60.3566C63.128 82.407 65.18 80.3562 64.5481 78.2109H64.5544Z" fill="#43559D"/>
<path d="M47.2941 49.6013C44.6479 49.6013 41.939 48.7174 39.9309 47.5405L39.5618 49.0203L42.2018 49.7503C45.7302 50.7236 49.5651 50.5944 52.9871 49.3878L55.8398 48.5485L55.4332 47.1631C53.2999 48.6181 50.2845 49.6013 47.3004 49.6013H47.2941Z" fill="#47250D"/>
<path d="M56.9805 40.6298C58.3416 40.1304 58.3425 37.8325 56.9826 35.4975C55.6227 33.1624 53.4169 31.6744 52.0558 32.1738C50.6947 32.6732 50.6937 34.9711 52.0536 37.3061C53.4135 39.6412 55.6193 41.1293 56.9805 40.6298Z" fill="white"/>
</g>
<defs>
<filter id="filter0_i_1031_3634" x="26" y="0" width="42.5032" height="58.8291" filterUnits="userSpaceOnUse" color-interpolation-filters="sRGB">
<feFlood flood-opacity="0" result="BackgroundImageFix"/>
<feBlend mode="normal" in="SourceGraphic" in2="BackgroundImageFix" result="shape"/>
<feColorMatrix in="SourceAlpha" type="matrix" values="0 0 0 0 0 0 0 0 0 0 0 0 0 0 0 0 0 0 127 0" result="hardAlpha"/>
<feOffset dy="3"/>
<feGaussianBlur stdDeviation="2"/>
<feComposite in2="hardAlpha" operator="arithmetic" k2="-1" k3="1"/>
<feColorMatrix type="matrix" values="0 0 0 0 0.243137 0 0 0 0 0.00784314 0 0 0 0 0.235294 0 0 0 0.4 0"/>
<feBlend mode="normal" in2="shape" result="effect1_innerShadow_1031_3634"/>
</filter>
<filter id="filter1_i_1031_3634" x="5" y="10.0244" width="42.5032" height="58.8291" filterUnits="userSpaceOnUse" color-interpolation-filters="sRGB">
<feFlood flood-opacity="0" result="BackgroundImageFix"/>
<feBlend mode="normal" in="SourceGraphic" in2="BackgroundImageFix" result="shape"/>
<feColorMatrix in="SourceAlpha" type="matrix" values="0 0 0 0 0 0 0 0 0 0 0 0 0 0 0 0 0 0 127 0" result="hardAlpha"/>
<feOffset dy="3"/>
<feGaussianBlur stdDeviation="2"/>
<feComposite in2="hardAlpha" operator="arithmetic" k2="-1" k3="1"/>
<feColorMatrix type="matrix" values="0 0 0 0 0.243137 0 0 0 0 0.00784314 0 0 0 0 0.235294 0 0 0 0.4 0"/>
<feBlend mode="normal" in2="shape" result="effect1_innerShadow_1031_3634"/>
</filter>
<filter id="filter2_i_1031_3634" x="47" y="10" width="42.5032" height="58.8291" filterUnits="userSpaceOnUse" color-interpolation-filters="sRGB">
<feFlood flood-opacity="0" result="BackgroundImageFix"/>
<feBlend mode="normal" in="SourceGraphic" in2="BackgroundImageFix" result="shape"/>
<feColorMatrix in="SourceAlpha" type="matrix" values="0 0 0 0 0 0 0 0 0 0 0 0 0 0 0 0 0 0 127 0" result="hardAlpha"/>
<feOffset dy="3"/>
<feGaussianBlur stdDeviation="2"/>
<feComposite in2="hardAlpha" operator="arithmetic" k2="-1" k3="1"/>
<feColorMatrix type="matrix" values="0 0 0 0 0.243137 0 0 0 0 0.00784314 0 0 0 0 0.235294 0 0 0 0.4 0"/>
<feBlend mode="normal" in2="shape" result="effect1_innerShadow_1031_3634"/>
</filter>
<filter id="filter3_i_1031_3634" x="54" y="22" width="42.5032" height="58.8291" filterUnits="userSpaceOnUse" color-interpolation-filters="sRGB">
<feFlood flood-opacity="0" result="BackgroundImageFix"/>
<feBlend mode="normal" in="SourceGraphic" in2="BackgroundImageFix" result="shape"/>
<feColorMatrix in="SourceAlpha" type="matrix" values="0 0 0 0 0 0 0 0 0 0 0 0 0 0 0 0 0 0 127 0" result="hardAlpha"/>
<feOffset dy="3"/>
<feGaussianBlur stdDeviation="2"/>
<feComposite in2="hardAlpha" operator="arithmetic" k2="-1" k3="1"/>
<feColorMatrix type="matrix" values="0 0 0 0 0.243137 0 0 0 0 0.00784314 0 0 0 0 0.235294 0 0 0 0.4 0"/>
<feBlend mode="normal" in2="shape" result="effect1_innerShadow_1031_3634"/>
</filter>
<filter id="filter4_i_1031_3634" x="0" y="23" width="42.5032" height="58.8291" filterUnits="userSpaceOnUse" color-interpolation-filters="sRGB">
<feFlood flood-opacity="0" result="BackgroundImageFix"/>
<feBlend mode="normal" in="SourceGraphic" in2="BackgroundImageFix" result="shape"/>
<feColorMatrix in="SourceAlpha" type="matrix" values="0 0 0 0 0 0 0 0 0 0 0 0 0 0 0 0 0 0 127 0" result="hardAlpha"/>
<feOffset dy="3"/>
<feGaussianBlur stdDeviation="2"/>
<feComposite in2="hardAlpha" operator="arithmetic" k2="-1" k3="1"/>
<feColorMatrix type="matrix" values="0 0 0 0 0.180555 0 0 0 0 0.00702159 0 0 0 0 0.174771 0 0 0 0.5 0"/>
<feBlend mode="normal" in2="shape" result="effect1_innerShadow_1031_3634"/>
</filter>
<filter id="filter5_i_1031_3634" x="27" y="29" width="42.5032" height="58.8262" filterUnits="userSpaceOnUse" color-interpolation-filters="sRGB">
<feFlood flood-opacity="0" result="BackgroundImageFix"/>
<feBlend mode="normal" in="SourceGraphic" in2="BackgroundImageFix" result="shape"/>
<feColorMatrix in="SourceAlpha" type="matrix" values="0 0 0 0 0 0 0 0 0 0 0 0 0 0 0 0 0 0 127 0" result="hardAlpha"/>
<feOffset dy="3"/>
<feGaussianBlur stdDeviation="2"/>
<feComposite in2="hardAlpha" operator="arithmetic" k2="-1" k3="1"/>
<feColorMatrix type="matrix" values="0 0 0 0 0.244444 0 0 0 0 0.00950615 0 0 0 0 0.236613 0 0 0 0.4 0"/>
<feBlend mode="normal" in2="shape" result="effect1_innerShadow_1031_3634"/>
</filter>
</defs>
</svg>
