<svg width="43" height="56" viewBox="0 0 43 56" fill="none" xmlns="http://www.w3.org/2000/svg">
<g filter="url(#filter0_i_1026_3545)">
<path d="M21.2516 55.8264C32.9885 55.8264 42.5031 53.9788 42.5031 51.6998C42.5031 49.4208 32.9885 47.5732 21.2516 47.5732C9.51465 47.5732 0 49.4208 0 51.6998C0 53.9788 9.51465 55.8264 21.2516 55.8264Z" fill="#47250D"/>
<path d="M37.5544 49.2109L28.4207 18.1648C31.3422 16.2927 33.219 13.4275 33.219 10.2146C33.219 4.57349 27.4573 0 20.3505 0C13.2437 0 7.48191 4.57349 7.48191 10.2146C7.48191 13.6559 9.63395 16.695 12.9246 18.5472L5.19848 49.3202C4.66672 51.4356 6.70617 53.407 9.42126 53.407H33.3566C36.128 53.407 38.18 51.3562 37.5481 49.2109H37.5544Z" fill="#43559D"/>
<path d="M20.2941 20.6013C17.6479 20.6013 14.939 19.7174 12.9309 18.5405L12.5618 20.0203L15.2018 20.7503C18.7302 21.7236 22.5651 21.5944 25.9871 20.3878L28.8398 19.5485L28.4332 18.1631C26.2999 19.6181 23.2845 20.6013 20.3004 20.6013H20.2941Z" fill="#47250D"/>
<path d="M29.9805 11.6298C31.3416 11.1304 31.3425 8.83254 29.9826 6.49748C28.6227 4.16242 26.4169 2.67436 25.0558 3.1738C23.6947 3.67325 23.6937 5.97106 25.0536 8.30613C26.4135 10.6412 28.6193 12.1293 29.9805 11.6298Z" fill="white"/>
</g>
<defs>
<filter id="filter0_i_1026_3545" x="0" y="0" width="42.5032" height="58.8262" filterUnits="userSpaceOnUse" color-interpolation-filters="sRGB">
<feFlood flood-opacity="0" result="BackgroundImageFix"/>
<feBlend mode="normal" in="SourceGraphic" in2="BackgroundImageFix" result="shape"/>
<feColorMatrix in="SourceAlpha" type="matrix" values="0 0 0 0 0 0 0 0 0 0 0 0 0 0 0 0 0 0 127 0" result="hardAlpha"/>
<feOffset dy="3"/>
<feGaussianBlur stdDeviation="2"/>
<feComposite in2="hardAlpha" operator="arithmetic" k2="-1" k3="1"/>
<feColorMatrix type="matrix" values="0 0 0 0 0.244444 0 0 0 0 0.00950615 0 0 0 0 0.236613 0 0 0 0.4 0"/>
<feBlend mode="normal" in2="shape" result="effect1_innerShadow_1026_3545"/>
</filter>
</defs>
</svg>
