<svg width="85" height="75" viewBox="0 0 85 75" fill="none" xmlns="http://www.w3.org/2000/svg">
<g filter="url(#filter0_i_1031_3559)">
<path d="M21.2516 55.8537C32.9885 55.8537 42.5031 54.0062 42.5031 51.7272C42.5031 49.4481 32.9885 47.6006 21.2516 47.6006C9.51465 47.6006 0 49.4481 0 51.7272C0 54.0062 9.51465 55.8537 21.2516 55.8537Z" fill="#47250D"/>
<path d="M37.5547 49.2353L28.4209 18.1893C31.3425 16.3172 33.2192 13.4519 33.2192 10.239C33.2192 4.5979 27.4575 0.0244141 20.3507 0.0244141C13.2439 0.0244141 7.48215 4.5979 7.48215 10.239C7.48215 13.6803 9.63419 16.7194 12.9248 18.5716L5.19872 49.3446C4.66696 51.46 6.70641 53.4314 9.42151 53.4314H33.3569C36.1283 53.4314 38.1802 51.3806 37.5484 49.2353H37.5547Z" fill="#5C8659"/>
<path d="M20.2944 20.6335C17.6481 20.6335 14.9393 19.7496 12.9311 18.5727L12.562 20.0525L15.202 20.7825C18.7304 21.7558 22.5653 21.6267 25.9873 20.42L28.8401 19.5808L28.4334 18.1953C26.3001 19.6503 23.2848 20.6335 20.3007 20.6335H20.2944Z" fill="#47250D"/>
<path d="M29.9907 11.6601C31.3518 11.1606 31.3528 8.86281 29.9929 6.52775C28.633 4.19269 26.4272 2.70462 25.0661 3.20407C23.705 3.70351 23.704 6.00134 25.0639 8.3364C26.4238 10.6715 28.6296 12.1595 29.9907 11.6601Z" fill="white"/>
</g>
<g filter="url(#filter1_i_1031_3559)">
<path d="M63.2516 55.8293C74.9885 55.8293 84.5031 53.9818 84.5031 51.7027C84.5031 49.4237 74.9885 47.5762 63.2516 47.5762C51.5147 47.5762 42 49.4237 42 51.7027C42 53.9818 51.5147 55.8293 63.2516 55.8293Z" fill="#47250D"/>
<path d="M79.5546 49.2109L70.4209 18.1648C73.3425 16.2927 75.2193 13.4275 75.2193 10.2146C75.2193 4.57349 69.4575 0 62.3507 0C55.2439 0 49.4821 4.57349 49.4821 10.2146C49.4821 13.6559 51.6342 16.695 54.9249 18.5472L47.1987 49.3202C46.667 51.4356 48.7064 53.407 51.4215 53.407H75.3569C78.1283 53.407 80.1803 51.3561 79.5484 49.2109H79.5546Z" fill="#C6400C"/>
<path d="M62.2944 20.6091C59.6481 20.6091 56.9393 19.7252 54.9311 18.5483L54.562 20.0281L57.202 20.7581C60.7304 21.7314 64.5653 21.6023 67.9874 20.3956L70.8401 19.5564L70.4334 18.1709C68.3001 19.6259 65.2848 20.6091 62.3007 20.6091H62.2944Z" fill="#47250D"/>
<path d="M71.9939 11.6347C73.355 11.1352 73.356 8.83742 71.9961 6.50236C70.6362 4.1673 68.4303 2.67924 67.0692 3.17868C65.7081 3.67813 65.7072 5.97595 67.0671 8.31101C68.427 10.6461 70.6328 12.1341 71.9939 11.6347Z" fill="white"/>
</g>
<g filter="url(#filter2_i_1031_3559)">
<path d="M43.2516 74.8264C54.9885 74.8264 64.5031 72.9788 64.5031 70.6998C64.5031 68.4208 54.9885 66.5732 43.2516 66.5732C31.5147 66.5732 22 68.4208 22 70.6998C22 72.9788 31.5147 74.8264 43.2516 74.8264Z" fill="#47250D"/>
<path d="M59.5544 68.2109L50.4207 37.1648C53.3422 35.2927 55.219 32.4275 55.219 29.2146C55.219 23.5735 49.4573 19 42.3505 19C35.2437 19 29.4819 23.5735 29.4819 29.2146C29.4819 32.6559 31.634 35.695 34.9246 37.5472L27.1985 68.3202C26.6667 70.4356 28.7062 72.407 31.4213 72.407H55.3566C58.128 72.407 60.18 70.3562 59.5481 68.2109H59.5544Z" fill="#43559D"/>
<path d="M42.2941 39.6013C39.6479 39.6013 36.939 38.7174 34.9309 37.5405L34.5618 39.0203L37.2018 39.7503C40.7302 40.7236 44.5651 40.5944 47.9871 39.3878L50.8398 38.5485L50.4332 37.1631C48.2999 38.6181 45.2845 39.6013 42.3004 39.6013H42.2941Z" fill="#47250D"/>
<path d="M51.9805 30.6298C53.3416 30.1304 53.3425 27.8325 51.9826 25.4975C50.6227 23.1624 48.4169 21.6744 47.0558 22.1738C45.6947 22.6732 45.6937 24.9711 47.0536 27.3061C48.4135 29.6412 50.6193 31.1293 51.9805 30.6298Z" fill="white"/>
</g>
<defs>
<filter id="filter0_i_1031_3559" x="0" y="0.0244141" width="42.5032" height="58.8291" filterUnits="userSpaceOnUse" color-interpolation-filters="sRGB">
<feFlood flood-opacity="0" result="BackgroundImageFix"/>
<feBlend mode="normal" in="SourceGraphic" in2="BackgroundImageFix" result="shape"/>
<feColorMatrix in="SourceAlpha" type="matrix" values="0 0 0 0 0 0 0 0 0 0 0 0 0 0 0 0 0 0 127 0" result="hardAlpha"/>
<feOffset dy="3"/>
<feGaussianBlur stdDeviation="2"/>
<feComposite in2="hardAlpha" operator="arithmetic" k2="-1" k3="1"/>
<feColorMatrix type="matrix" values="0 0 0 0 0.243137 0 0 0 0 0.00784314 0 0 0 0 0.235294 0 0 0 0.4 0"/>
<feBlend mode="normal" in2="shape" result="effect1_innerShadow_1031_3559"/>
</filter>
<filter id="filter1_i_1031_3559" x="42" y="0" width="42.5032" height="58.8291" filterUnits="userSpaceOnUse" color-interpolation-filters="sRGB">
<feFlood flood-opacity="0" result="BackgroundImageFix"/>
<feBlend mode="normal" in="SourceGraphic" in2="BackgroundImageFix" result="shape"/>
<feColorMatrix in="SourceAlpha" type="matrix" values="0 0 0 0 0 0 0 0 0 0 0 0 0 0 0 0 0 0 127 0" result="hardAlpha"/>
<feOffset dy="3"/>
<feGaussianBlur stdDeviation="2"/>
<feComposite in2="hardAlpha" operator="arithmetic" k2="-1" k3="1"/>
<feColorMatrix type="matrix" values="0 0 0 0 0.243137 0 0 0 0 0.00784314 0 0 0 0 0.235294 0 0 0 0.4 0"/>
<feBlend mode="normal" in2="shape" result="effect1_innerShadow_1031_3559"/>
</filter>
<filter id="filter2_i_1031_3559" x="22" y="19" width="42.5032" height="58.8262" filterUnits="userSpaceOnUse" color-interpolation-filters="sRGB">
<feFlood flood-opacity="0" result="BackgroundImageFix"/>
<feBlend mode="normal" in="SourceGraphic" in2="BackgroundImageFix" result="shape"/>
<feColorMatrix in="SourceAlpha" type="matrix" values="0 0 0 0 0 0 0 0 0 0 0 0 0 0 0 0 0 0 127 0" result="hardAlpha"/>
<feOffset dy="3"/>
<feGaussianBlur stdDeviation="2"/>
<feComposite in2="hardAlpha" operator="arithmetic" k2="-1" k3="1"/>
<feColorMatrix type="matrix" values="0 0 0 0 0.244444 0 0 0 0 0.00950615 0 0 0 0 0.236613 0 0 0 0.4 0"/>
<feBlend mode="normal" in2="shape" result="effect1_innerShadow_1031_3559"/>
</filter>
</defs>
</svg>
