<svg width="93" height="88" viewBox="0 0 93 88" fill="none" xmlns="http://www.w3.org/2000/svg">
<g filter="url(#filter0_i_1005_2264)">
<g filter="url(#filter1_d_1005_2264)">
<path d="M42.2516 55.8293C53.9885 55.8293 63.5031 53.9818 63.5031 51.7027C63.5031 49.4237 53.9885 47.5762 42.2516 47.5762C30.5147 47.5762 21 49.4237 21 51.7027C21 53.9818 30.5147 55.8293 42.2516 55.8293Z" fill="#47250D"/>
</g>
<path d="M58.5546 49.2109L49.4209 18.1648C52.3425 16.2927 54.2193 13.4275 54.2193 10.2146C54.2193 4.57349 48.4575 0 41.3507 0C34.2439 0 28.4821 4.57349 28.4821 10.2146C28.4821 13.6559 30.6342 16.695 33.9249 18.5472L26.1987 49.3202C25.667 51.4356 27.7064 53.407 30.4215 53.407H54.3569C57.1283 53.407 59.1803 51.3561 58.5484 49.2109H58.5546Z" fill="#FFCD1D"/>
<path d="M41.2944 20.6091C38.6481 20.6091 35.9393 19.7252 33.9311 18.5483L33.562 20.0281L36.202 20.7581C39.7304 21.7314 43.5653 21.6023 46.9874 20.3956L49.8401 19.5564L49.4334 18.1709C47.3001 19.6259 44.2848 20.6091 41.3007 20.6091H41.2944Z" fill="#47250D"/>
<path d="M50.9939 11.6347C52.355 11.1352 52.356 8.83742 50.9961 6.50236C49.6362 4.1673 47.4303 2.67924 46.0692 3.17868C44.7081 3.67813 44.7072 5.97595 46.0671 8.31101C47.427 10.6461 49.6328 12.1341 50.9939 11.6347Z" fill="white"/>
</g>
<g filter="url(#filter2_i_1005_2264)">
<path d="M21.2516 65.8537C32.9885 65.8537 42.5031 64.0062 42.5031 61.7272C42.5031 59.4481 32.9885 57.6006 21.2516 57.6006C9.51465 57.6006 0 59.4481 0 61.7272C0 64.0062 9.51465 65.8537 21.2516 65.8537Z" fill="#47250D"/>
<path d="M37.5547 59.2353L28.4209 28.1893C31.3425 26.3172 33.2192 23.4519 33.2192 20.239C33.2192 14.5979 27.4575 10.0244 20.3507 10.0244C13.2439 10.0244 7.48215 14.5979 7.48215 20.239C7.48215 23.6803 9.63419 26.7194 12.9248 28.5716L5.19872 59.3446C4.66696 61.46 6.70641 63.4314 9.42151 63.4314H33.3569C36.1283 63.4314 38.1802 61.3806 37.5484 59.2353H37.5547Z" fill="#5C8659"/>
<path d="M20.2944 30.6335C17.6481 30.6335 14.9393 29.7496 12.9311 28.5727L12.562 30.0525L15.202 30.7825C18.7304 31.7558 22.5653 31.6267 25.9873 30.42L28.8401 29.5808L28.4334 28.1953C26.3001 29.6503 23.2848 30.6335 20.3007 30.6335H20.2944Z" fill="#47250D"/>
<path d="M29.9907 21.6601C31.3518 21.1606 31.3528 18.8628 29.9929 16.5277C28.633 14.1927 26.4272 12.7046 25.0661 13.2041C23.705 13.7035 23.704 16.0013 25.0639 18.3364C26.4238 20.6715 28.6296 22.1595 29.9907 21.6601Z" fill="white"/>
</g>
<g filter="url(#filter3_i_1005_2264)">
<path d="M63.2516 65.8293C74.9885 65.8293 84.5031 63.9818 84.5031 61.7027C84.5031 59.4237 74.9885 57.5762 63.2516 57.5762C51.5147 57.5762 42 59.4237 42 61.7027C42 63.9818 51.5147 65.8293 63.2516 65.8293Z" fill="#47250D"/>
<path d="M79.5546 59.2109L70.4209 28.1648C73.3425 26.2927 75.2193 23.4275 75.2193 20.2146C75.2193 14.5735 69.4575 10 62.3507 10C55.2439 10 49.4821 14.5735 49.4821 20.2146C49.4821 23.6559 51.6342 26.695 54.9249 28.5472L47.1987 59.3202C46.667 61.4356 48.7064 63.407 51.4215 63.407H75.3569C78.1283 63.407 80.1803 61.3561 79.5484 59.2109H79.5546Z" fill="#C6400C"/>
<path d="M62.2944 30.6091C59.6481 30.6091 56.9393 29.7252 54.9311 28.5483L54.562 30.0281L57.202 30.7581C60.7304 31.7314 64.5653 31.6023 67.9874 30.3956L70.8401 29.5564L70.4334 28.1709C68.3001 29.6259 65.2848 30.6091 62.3007 30.6091H62.2944Z" fill="#47250D"/>
<path d="M71.9939 21.6347C73.355 21.1352 73.356 18.8374 71.9961 16.5024C70.6362 14.1673 68.4303 12.6792 67.0692 13.1787C65.7081 13.6781 65.7072 15.9759 67.0671 18.311C68.427 20.6461 70.6328 22.1341 71.9939 21.6347Z" fill="white"/>
</g>
<g filter="url(#filter4_i_1005_2264)">
<path d="M43.2516 84.8264C54.9885 84.8264 64.5031 82.9788 64.5031 80.6998C64.5031 78.4208 54.9885 76.5732 43.2516 76.5732C31.5147 76.5732 22 78.4208 22 80.6998C22 82.9788 31.5147 84.8264 43.2516 84.8264Z" fill="#47250D"/>
<path d="M59.5544 78.2109L50.4207 47.1648C53.3422 45.2927 55.219 42.4275 55.219 39.2146C55.219 33.5735 49.4573 29 42.3505 29C35.2437 29 29.4819 33.5735 29.4819 39.2146C29.4819 42.6559 31.634 45.695 34.9246 47.5472L27.1985 78.3202C26.6667 80.4356 28.7062 82.407 31.4213 82.407H55.3566C58.128 82.407 60.18 80.3562 59.5481 78.2109H59.5544Z" fill="#43559D"/>
<path d="M42.2941 49.6013C39.6479 49.6013 36.939 48.7174 34.9309 47.5405L34.5618 49.0203L37.2018 49.7503C40.7302 50.7236 44.5651 50.5944 47.9871 49.3878L50.8398 48.5485L50.4332 47.1631C48.2999 48.6181 45.2845 49.6013 42.3004 49.6013H42.2941Z" fill="#47250D"/>
<path d="M51.9805 40.6298C53.3416 40.1304 53.3425 37.8325 51.9826 35.4975C50.6227 33.1624 48.4169 31.6744 47.0558 32.1738C45.6947 32.6732 45.6937 34.9711 47.0536 37.3061C48.4135 39.6412 50.6193 41.1293 51.9805 40.6298Z" fill="white"/>
</g>
<defs>
<filter id="filter0_i_1005_2264" x="21" y="0" width="42.5032" height="58.8291" filterUnits="userSpaceOnUse" color-interpolation-filters="sRGB">
<feFlood flood-opacity="0" result="BackgroundImageFix"/>
<feBlend mode="normal" in="SourceGraphic" in2="BackgroundImageFix" result="shape"/>
<feColorMatrix in="SourceAlpha" type="matrix" values="0 0 0 0 0 0 0 0 0 0 0 0 0 0 0 0 0 0 127 0" result="hardAlpha"/>
<feOffset dy="3"/>
<feGaussianBlur stdDeviation="2"/>
<feComposite in2="hardAlpha" operator="arithmetic" k2="-1" k3="1"/>
<feColorMatrix type="matrix" values="0 0 0 0 0.243137 0 0 0 0 0.00784314 0 0 0 0 0.235294 0 0 0 0.4 0"/>
<feBlend mode="normal" in2="shape" result="effect1_innerShadow_1005_2264"/>
</filter>
<filter id="filter1_d_1005_2264" x="16" y="44.5762" width="52.5032" height="18.2529" filterUnits="userSpaceOnUse" color-interpolation-filters="sRGB">
<feFlood flood-opacity="0" result="BackgroundImageFix"/>
<feColorMatrix in="SourceAlpha" type="matrix" values="0 0 0 0 0 0 0 0 0 0 0 0 0 0 0 0 0 0 127 0" result="hardAlpha"/>
<feOffset dy="2"/>
<feGaussianBlur stdDeviation="2.5"/>
<feComposite in2="hardAlpha" operator="out"/>
<feColorMatrix type="matrix" values="0 0 0 0 0.682353 0 0 0 0 0.447059 0 0 0 0 0.517647 0 0 0 1 0"/>
<feBlend mode="normal" in2="BackgroundImageFix" result="effect1_dropShadow_1005_2264"/>
<feBlend mode="normal" in="SourceGraphic" in2="effect1_dropShadow_1005_2264" result="shape"/>
</filter>
<filter id="filter2_i_1005_2264" x="0" y="10.0244" width="42.5032" height="58.8291" filterUnits="userSpaceOnUse" color-interpolation-filters="sRGB">
<feFlood flood-opacity="0" result="BackgroundImageFix"/>
<feBlend mode="normal" in="SourceGraphic" in2="BackgroundImageFix" result="shape"/>
<feColorMatrix in="SourceAlpha" type="matrix" values="0 0 0 0 0 0 0 0 0 0 0 0 0 0 0 0 0 0 127 0" result="hardAlpha"/>
<feOffset dy="3"/>
<feGaussianBlur stdDeviation="2"/>
<feComposite in2="hardAlpha" operator="arithmetic" k2="-1" k3="1"/>
<feColorMatrix type="matrix" values="0 0 0 0 0.243137 0 0 0 0 0.00784314 0 0 0 0 0.235294 0 0 0 0.4 0"/>
<feBlend mode="normal" in2="shape" result="effect1_innerShadow_1005_2264"/>
</filter>
<filter id="filter3_i_1005_2264" x="42" y="10" width="42.5032" height="58.8291" filterUnits="userSpaceOnUse" color-interpolation-filters="sRGB">
<feFlood flood-opacity="0" result="BackgroundImageFix"/>
<feBlend mode="normal" in="SourceGraphic" in2="BackgroundImageFix" result="shape"/>
<feColorMatrix in="SourceAlpha" type="matrix" values="0 0 0 0 0 0 0 0 0 0 0 0 0 0 0 0 0 0 127 0" result="hardAlpha"/>
<feOffset dy="3"/>
<feGaussianBlur stdDeviation="2"/>
<feComposite in2="hardAlpha" operator="arithmetic" k2="-1" k3="1"/>
<feColorMatrix type="matrix" values="0 0 0 0 0.243137 0 0 0 0 0.00784314 0 0 0 0 0.235294 0 0 0 0.4 0"/>
<feBlend mode="normal" in2="shape" result="effect1_innerShadow_1005_2264"/>
</filter>
<filter id="filter4_i_1005_2264" x="22" y="29" width="42.5032" height="58.8262" filterUnits="userSpaceOnUse" color-interpolation-filters="sRGB">
<feFlood flood-opacity="0" result="BackgroundImageFix"/>
<feBlend mode="normal" in="SourceGraphic" in2="BackgroundImageFix" result="shape"/>
<feColorMatrix in="SourceAlpha" type="matrix" values="0 0 0 0 0 0 0 0 0 0 0 0 0 0 0 0 0 0 127 0" result="hardAlpha"/>
<feOffset dy="3"/>
<feGaussianBlur stdDeviation="2"/>
<feComposite in2="hardAlpha" operator="arithmetic" k2="-1" k3="1"/>
<feColorMatrix type="matrix" values="0 0 0 0 0.244444 0 0 0 0 0.00950615 0 0 0 0 0.236613 0 0 0 0.4 0"/>
<feBlend mode="normal" in2="shape" result="effect1_innerShadow_1005_2264"/>
</filter>
</defs>
</svg>
