<svg width="61" height="62" viewBox="0 0 61 62" fill="none" xmlns="http://www.w3.org/2000/svg">
<g filter="url(#filter0_d_792_343)">
<path d="M30.344 52.69C44.894 52.69 56.689 40.895 56.689 26.345C56.689 11.7951 44.894 0 30.344 0C15.7941 0 3.99902 11.7951 3.99902 26.345C3.99902 40.895 15.7941 52.69 30.344 52.69Z" fill="#FFE091"/>
<path d="M43.9782 6.41979C48.1344 9.49827 50.4961 13.3554 49.2533 15.0313C48.0106 16.7072 45.8861 12.5355 41.7299 9.45187C37.5737 6.37339 32.9637 5.54833 34.2064 3.87244C35.4492 2.19655 39.822 3.34131 43.9782 6.41979Z" fill="white"/>
</g>
<path d="M26.465 40.9832C26.465 41.7792 26.8003 42.5426 27.3972 43.1055C27.9942 43.6683 28.8038 43.9845 29.648 43.9845C30.4921 43.9845 31.3017 43.6683 31.8987 43.1055C32.4956 42.5426 32.8309 41.7792 32.8309 40.9832C32.8309 40.5891 32.7486 40.1988 32.5886 39.8347C32.4287 39.4705 32.1942 39.1397 31.8987 38.861C31.6031 38.5823 31.2522 38.3612 30.866 38.2104C30.4798 38.0596 30.0659 37.9819 29.648 37.9819C29.23 37.9819 28.8161 38.0596 28.4299 38.2104C28.0437 38.3612 27.6928 38.5823 27.3972 38.861C27.1017 39.1397 26.8672 39.4705 26.7073 39.8347C26.5473 40.1988 26.465 40.5891 26.465 40.9832ZM35.2568 29.654C39.7346 27.3287 42.009 23.9574 42.009 19.6361C42.009 12.2144 35.8007 8.88965 29.648 8.88965C23.6559 8.88965 17.2869 12.9953 17.2869 20.6064C17.2869 21.3792 17.6124 22.1204 18.192 22.6668C18.7715 23.2133 19.5575 23.5203 20.3771 23.5203C21.1967 23.5203 21.9828 23.2133 22.5623 22.6668C23.1418 22.1204 23.4674 21.3792 23.4674 20.6064C23.4674 16.559 26.672 14.7174 29.648 14.7174C31.9564 14.7174 35.8285 15.3556 35.8285 19.6361C35.8285 21.1542 35.4051 22.9259 32.2778 24.5518C30.1517 25.6503 26.5577 28.503 26.5577 32.2008C26.5577 32.9736 26.8833 33.7147 27.4628 34.2612C28.0423 34.8077 28.8284 35.1147 29.648 35.1147C30.4675 35.1147 31.2536 34.8077 31.8331 34.2612C32.4126 33.7147 32.7382 32.9736 32.7382 32.2008C32.7382 31.6588 33.9589 30.3271 35.2568 29.654Z" fill="#301D14"/>
<defs>
<filter id="filter0_d_792_343" x="-0.000976562" y="0" width="60.6899" height="61.6904" filterUnits="userSpaceOnUse" color-interpolation-filters="sRGB">
<feFlood flood-opacity="0" result="BackgroundImageFix"/>
<feColorMatrix in="SourceAlpha" type="matrix" values="0 0 0 0 0 0 0 0 0 0 0 0 0 0 0 0 0 0 127 0" result="hardAlpha"/>
<feOffset dy="5"/>
<feGaussianBlur stdDeviation="2"/>
<feComposite in2="hardAlpha" operator="out"/>
<feColorMatrix type="matrix" values="0 0 0 0 0 0 0 0 0 0 0 0 0 0 0 0 0 0 0.6 0"/>
<feBlend mode="normal" in2="BackgroundImageFix" result="effect1_dropShadow_792_343"/>
<feBlend mode="normal" in="SourceGraphic" in2="effect1_dropShadow_792_343" result="shape"/>
</filter>
</defs>
</svg>
