<svg width="316" height="229" viewBox="0 0 316 229" fill="none" xmlns="http://www.w3.org/2000/svg">
<path d="M136.924 80.5815L16.9087 98.7295V132.917L140.795 214.095L257.353 188.818L268.533 189.88L272.839 184.894V152.145L262.094 144.656L136.924 80.5815Z" fill="#E9E8E3"/>
<g filter="url(#filter0_d_1005_2264)">
<path d="M10.6769 125.292C9.66246 125.617 8.99997 126.423 8.99997 127.314V131.136C8.99997 131.358 9.12418 131.581 9.33121 131.718L138.559 216.94C141.54 218.842 145.453 219.476 149.076 218.636L257.167 192.862C257.167 192.862 257.187 192.862 257.208 192.862L264.206 195.21C267.145 196.204 270.582 195.913 273.336 194.216C275.737 192.725 277 190.326 277 187.876V151.648C277 147.467 274.329 143.611 270.002 141.469L139.553 77.4458C138.766 77.0517 137.835 76.9146 136.924 77.0517L10.5941 96.4335C9.766 96.5534 9.53825 97.4445 10.2007 97.8387L142.182 177.936C145.888 180.181 150.629 180.918 155.08 179.941L260.458 156.567C260.458 156.567 260.5 156.549 260.5 156.532L261.349 154.819C262.115 153.242 264.164 152.317 266.276 152.711C268.243 153.088 269.568 154.647 269.568 156.31V183.866C269.568 185.391 268.408 186.745 266.669 187.242L265.862 187.464C264.123 187.961 262.197 187.499 261.059 186.316L259.547 184.757C259.547 184.757 259.506 184.722 259.465 184.74L147.876 210.342C144.294 211.13 140.464 210.513 137.503 208.628L20.7799 132.764L17.0327 130.296C17.0327 130.296 17.012 130.262 17.012 130.244L16.8878 124.195C16.8878 124.195 16.8464 124.127 16.805 124.144L10.6769 125.223V125.292Z" fill="#4B7B47"/>
</g>
<path d="M45.8719 95.2852L32.5599 97.513C29.7029 97.9929 28.8541 101.043 31.1728 102.5L54.9606 117.529C55.8094 118.06 56.9066 118.231 57.9211 118.009L61.2335 117.255C63.8835 116.655 64.6081 113.844 62.5171 112.388L55.1676 107.315C52.9938 105.824 53.8633 102.911 56.6168 102.414C59.4531 101.9 60.2605 98.8497 57.9211 97.4102L54.1945 95.0967C53.4699 94.6512 52.5383 94.4627 51.6481 94.5655L45.8719 95.3024V95.2852Z" fill="#C0E6AA"/>
<path d="M167.924 38.5815L47.9087 56.7295V90.9175L171.795 172.095L288.353 146.818L299.533 147.88L303.839 142.894V110.145L293.094 102.656L167.924 38.5815Z" fill="#E9E8E3"/>
<g filter="url(#filter1_d_1005_2264)">
<path d="M41.6769 83.2919C40.6625 83.6175 40 84.4229 40 85.314V89.1355C40 89.3583 40.1242 89.5811 40.3312 89.7182L169.559 174.94C172.54 176.842 176.453 177.476 180.076 176.636L288.167 150.862C288.167 150.862 288.187 150.862 288.208 150.862L295.206 153.21C298.145 154.204 301.582 153.913 304.336 152.216C306.737 150.725 308 148.326 308 145.876V109.648C308 105.467 305.329 101.611 301.002 99.4691L170.553 35.4458C169.766 35.0517 168.835 34.9146 167.924 35.0517L41.5941 54.4335C40.766 54.5534 40.5382 55.4445 41.2007 55.8387L173.182 135.936C176.888 138.181 181.629 138.918 186.08 137.941L291.458 114.567C291.458 114.567 291.5 114.549 291.5 114.532L292.349 112.819C293.115 111.242 295.164 110.317 297.276 110.711C299.243 111.088 300.568 112.647 300.568 114.31V141.866C300.568 143.391 299.408 144.745 297.669 145.242L296.862 145.464C295.123 145.961 293.197 145.499 292.059 144.316L290.547 142.757C290.547 142.757 290.506 142.722 290.465 142.74L178.876 168.342C175.294 169.13 171.464 168.513 168.503 166.628L51.7799 90.7636L48.0327 88.2958C48.0327 88.2958 48.012 88.2616 48.012 88.2444L47.8878 82.1951C47.8878 82.1951 47.8464 82.1266 47.805 82.1437L41.6769 83.2233V83.2919Z" fill="#59388E"/>
</g>
<path d="M76.8719 53.2852L63.5599 55.513C60.7029 55.9929 59.8541 59.0432 62.1728 60.4999L85.9606 75.5289C86.8094 76.0601 87.9066 76.2315 88.9211 76.0087L92.2335 75.2547C94.8835 74.6549 95.6081 71.8444 93.5171 70.3878L86.1676 65.3153C83.9938 63.8244 84.8633 60.9111 87.6168 60.4142C90.4531 59.9001 91.2605 56.8497 88.9211 55.4102L85.1945 53.0967C84.4699 52.6512 83.5383 52.4627 82.6481 52.5655L76.8719 53.3024V53.2852Z" fill="#8F78B5"/>
<path d="M132.924 3.58154L12.9087 21.7295V55.9175L136.795 137.095L253.353 111.818L264.533 112.88L268.839 107.894V75.145L258.094 67.6562L132.924 3.58154Z" fill="#E9E8E3"/>
<g filter="url(#filter2_d_1005_2264)">
<path d="M6.67691 48.2919C5.66246 48.6175 4.99997 49.4229 4.99997 50.314V54.1355C4.99997 54.3583 5.12418 54.5811 5.33121 54.7182L134.559 139.94C137.54 141.842 141.453 142.476 145.076 141.636L253.167 115.862C253.167 115.862 253.187 115.862 253.208 115.862L260.206 118.21C263.145 119.204 266.582 118.913 269.336 117.216C271.737 115.725 273 113.326 273 110.876V74.6483C273 70.467 270.329 66.6112 266.002 64.4691L135.553 0.445828C134.766 0.0516808 133.835 -0.0854131 132.924 0.0516816L6.59412 19.4335C5.766 19.5534 5.53825 20.4445 6.20074 20.8387L138.182 100.936C141.888 103.181 146.629 103.918 151.08 102.941L256.458 79.5666C256.458 79.5666 256.5 79.5495 256.5 79.5323L257.349 77.8187C258.115 76.2421 260.164 75.3167 262.276 75.7108C264.243 76.0878 265.568 77.6473 265.568 79.3096V106.866C265.568 108.391 264.408 109.745 262.669 110.242L261.862 110.464C260.123 110.961 258.197 110.499 257.059 109.316L255.547 107.757C255.547 107.757 255.506 107.722 255.465 107.74L143.876 133.342C140.294 134.13 136.464 133.513 133.503 131.628L16.7799 55.7636L13.0327 53.2958C13.0327 53.2958 13.012 53.2616 13.012 53.2444L12.8878 47.1951C12.8878 47.1951 12.8464 47.1266 12.805 47.1437L6.67691 48.2233V48.2919Z" fill="#E64A79"/>
</g>
<path d="M41.8719 18.2852L28.5599 20.513C25.7029 20.9929 24.8541 24.0432 27.1728 25.4999L50.9606 40.5289C51.8094 41.0601 52.9066 41.2315 53.9211 41.0087L57.2335 40.2547C59.8835 39.6549 60.6081 36.8444 58.5171 35.3878L51.1676 30.3153C48.9938 28.8244 49.8633 25.9111 52.6168 25.4142C55.4531 24.9001 56.2605 21.8497 53.9211 20.4102L50.1945 18.0967C49.4699 17.6512 48.5383 17.4627 47.6481 17.5655L41.8719 18.3024V18.2852Z" fill="#E96A86"/>
<defs>
<filter id="filter0_d_1005_2264" x="4" y="77" width="278" height="152" filterUnits="userSpaceOnUse" color-interpolation-filters="sRGB">
<feFlood flood-opacity="0" result="BackgroundImageFix"/>
<feColorMatrix in="SourceAlpha" type="matrix" values="0 0 0 0 0 0 0 0 0 0 0 0 0 0 0 0 0 0 127 0" result="hardAlpha"/>
<feOffset dy="5"/>
<feGaussianBlur stdDeviation="2.5"/>
<feComposite in2="hardAlpha" operator="out"/>
<feColorMatrix type="matrix" values="0 0 0 0 0.760784 0 0 0 0 0.4 0 0 0 0 0.464941 0 0 0 0.5 0"/>
<feBlend mode="normal" in2="BackgroundImageFix" result="effect1_dropShadow_1005_2264"/>
<feBlend mode="normal" in="SourceGraphic" in2="effect1_dropShadow_1005_2264" result="shape"/>
</filter>
<filter id="filter1_d_1005_2264" x="35" y="35" width="278" height="152" filterUnits="userSpaceOnUse" color-interpolation-filters="sRGB">
<feFlood flood-opacity="0" result="BackgroundImageFix"/>
<feColorMatrix in="SourceAlpha" type="matrix" values="0 0 0 0 0 0 0 0 0 0 0 0 0 0 0 0 0 0 127 0" result="hardAlpha"/>
<feOffset dy="5"/>
<feGaussianBlur stdDeviation="2.5"/>
<feComposite in2="hardAlpha" operator="out"/>
<feColorMatrix type="matrix" values="0 0 0 0 0.760784 0 0 0 0 0.4 0 0 0 0 0.464941 0 0 0 0.5 0"/>
<feBlend mode="normal" in2="BackgroundImageFix" result="effect1_dropShadow_1005_2264"/>
<feBlend mode="normal" in="SourceGraphic" in2="effect1_dropShadow_1005_2264" result="shape"/>
</filter>
<filter id="filter2_d_1005_2264" x="0" y="0" width="278" height="152" filterUnits="userSpaceOnUse" color-interpolation-filters="sRGB">
<feFlood flood-opacity="0" result="BackgroundImageFix"/>
<feColorMatrix in="SourceAlpha" type="matrix" values="0 0 0 0 0 0 0 0 0 0 0 0 0 0 0 0 0 0 127 0" result="hardAlpha"/>
<feOffset dy="5"/>
<feGaussianBlur stdDeviation="2.5"/>
<feComposite in2="hardAlpha" operator="out"/>
<feColorMatrix type="matrix" values="0 0 0 0 0.760784 0 0 0 0 0.4 0 0 0 0 0.464941 0 0 0 0.5 0"/>
<feBlend mode="normal" in2="BackgroundImageFix" result="effect1_dropShadow_1005_2264"/>
<feBlend mode="normal" in="SourceGraphic" in2="effect1_dropShadow_1005_2264" result="shape"/>
</filter>
</defs>
</svg>
