<svg width="278" height="152" viewBox="0 0 278 152" fill="none" xmlns="http://www.w3.org/2000/svg">
<path d="M132.924 3.58154L12.9087 21.7295V55.9175L136.795 137.095L253.353 111.818L264.533 112.88L268.839 107.894V75.145L258.094 67.6562L132.924 3.58154Z" fill="#E9E8E3"/>
<g filter="url(#filter0_d_1005_2288)">
<path d="M6.67691 48.2919C5.66246 48.6175 4.99997 49.4229 4.99997 50.314V54.1355C4.99997 54.3583 5.12418 54.5811 5.33121 54.7182L134.559 139.94C137.54 141.842 141.453 142.476 145.076 141.636L253.167 115.862C253.167 115.862 253.187 115.862 253.208 115.862L260.206 118.21C263.145 119.204 266.582 118.913 269.336 117.216C271.737 115.725 273 113.326 273 110.876V74.6483C273 70.467 270.329 66.6112 266.002 64.4691L135.553 0.445828C134.766 0.0516808 133.835 -0.0854131 132.924 0.0516816L6.59412 19.4335C5.766 19.5534 5.53825 20.4445 6.20074 20.8387L138.182 100.936C141.888 103.181 146.629 103.918 151.08 102.941L256.458 79.5666C256.458 79.5666 256.5 79.5495 256.5 79.5323L257.349 77.8187C258.115 76.2421 260.164 75.3167 262.276 75.7108C264.243 76.0878 265.568 77.6473 265.568 79.3096V106.866C265.568 108.391 264.408 109.745 262.669 110.242L261.862 110.464C260.123 110.961 258.197 110.499 257.059 109.316L255.547 107.757C255.547 107.757 255.506 107.722 255.465 107.74L143.876 133.342C140.294 134.13 136.464 133.513 133.503 131.628L16.7799 55.7636L13.0327 53.2958C13.0327 53.2958 13.012 53.2616 13.012 53.2444L12.8878 47.1951C12.8878 47.1951 12.8464 47.1266 12.805 47.1437L6.67691 48.2233V48.2919Z" fill="#4B7B47"/>
</g>
<path d="M41.8722 18.2852L28.5602 20.513C25.7032 20.9929 24.8543 24.0432 27.1731 25.4999L50.9608 40.5289C51.8096 41.0601 52.9069 41.2315 53.9213 41.0087L57.2338 40.2547C59.8838 39.6549 60.6084 36.8444 58.5174 35.3878L51.1678 30.3153C48.994 28.8244 49.8635 25.9111 52.617 25.4142C55.4533 24.9001 56.2608 21.8497 53.9213 20.4102L50.1948 18.0967C49.4702 17.6512 48.5385 17.4627 47.6483 17.5655L41.8722 18.3024V18.2852Z" fill="#C0E6AA"/>
<defs>
<filter id="filter0_d_1005_2288" x="0" y="0" width="278" height="152" filterUnits="userSpaceOnUse" color-interpolation-filters="sRGB">
<feFlood flood-opacity="0" result="BackgroundImageFix"/>
<feColorMatrix in="SourceAlpha" type="matrix" values="0 0 0 0 0 0 0 0 0 0 0 0 0 0 0 0 0 0 127 0" result="hardAlpha"/>
<feOffset dy="5"/>
<feGaussianBlur stdDeviation="2.5"/>
<feComposite in2="hardAlpha" operator="out"/>
<feColorMatrix type="matrix" values="0 0 0 0 0.760784 0 0 0 0 0.4 0 0 0 0 0.464941 0 0 0 0.5 0"/>
<feBlend mode="normal" in2="BackgroundImageFix" result="effect1_dropShadow_1005_2288"/>
<feBlend mode="normal" in="SourceGraphic" in2="effect1_dropShadow_1005_2288" result="shape"/>
</filter>
</defs>
</svg>
