<svg width="309" height="194" viewBox="0 0 309 194" fill="none" xmlns="http://www.w3.org/2000/svg">
<path d="M132.924 45.5815L12.9087 63.7295V97.9175L136.795 179.095L253.353 153.818L264.533 154.88L268.839 149.894V117.145L258.094 109.656L132.924 45.5815Z" fill="#E9E8E3"/>
<g filter="url(#filter0_d_1005_2282)">
<path d="M6.6769 90.2919C5.66246 90.6175 4.99997 91.4229 4.99997 92.314V96.1355C4.99997 96.3583 5.12419 96.5811 5.33122 96.7182L134.559 181.94C137.54 183.842 141.453 184.476 145.076 183.636L253.167 157.862C253.167 157.862 253.187 157.862 253.208 157.862L260.206 160.21C263.145 161.204 266.582 160.913 269.336 159.216C271.737 157.725 273 155.326 273 152.876V116.648C273 112.467 270.329 108.611 266.002 106.469L135.553 42.4458C134.766 42.0517 133.835 41.9146 132.924 42.0517L6.5941 61.4335C5.76599 61.5534 5.53825 62.4445 6.20074 62.8387L138.182 142.936C141.888 145.181 146.629 145.918 151.08 144.941L256.458 121.567C256.458 121.567 256.5 121.549 256.5 121.532L257.349 119.819C258.115 118.242 260.164 117.317 262.276 117.711C264.243 118.088 265.568 119.647 265.568 121.31V148.866C265.568 150.391 264.408 151.745 262.669 152.242L261.862 152.464C260.123 152.961 258.197 152.499 257.059 151.316L255.547 149.757C255.547 149.757 255.506 149.722 255.465 149.74L143.876 175.342C140.294 176.13 136.464 175.513 133.503 173.628L16.7799 97.7636L13.0327 95.2958C13.0327 95.2958 13.012 95.2616 13.012 95.2444L12.8878 89.1951C12.8878 89.1951 12.8464 89.1266 12.805 89.1437L6.6769 90.2233V90.2919Z" fill="#4B7B47"/>
</g>
<path d="M41.8722 60.2852L28.5602 62.513C25.7032 62.9929 24.8543 66.0432 27.1731 67.4999L50.9608 82.5289C51.8096 83.0601 52.9069 83.2315 53.9213 83.0087L57.2338 82.2547C59.8838 81.6549 60.6084 78.8444 58.5174 77.3878L51.1678 72.3153C48.994 70.8244 49.8635 67.9111 52.617 67.4142C55.4533 66.9001 56.2608 63.8497 53.9213 62.4102L50.1948 60.0967C49.4702 59.6512 48.5385 59.4627 47.6483 59.5655L41.8722 60.3024V60.2852Z" fill="#C0E6AA"/>
<path d="M163.924 3.58154L43.9087 21.7295V55.9175L167.795 137.095L284.353 111.818L295.533 112.88L299.839 107.894V75.145L289.094 67.6562L163.924 3.58154Z" fill="#E9E8E3"/>
<g filter="url(#filter1_d_1005_2282)">
<path d="M37.6769 48.2919C36.6625 48.6175 36 49.4229 36 50.314V54.1355C36 54.3583 36.1242 54.5811 36.3312 54.7182L165.559 139.94C168.54 141.842 172.453 142.476 176.076 141.636L284.167 115.862C284.167 115.862 284.187 115.862 284.208 115.862L291.206 118.21C294.145 119.204 297.582 118.913 300.336 117.216C302.737 115.725 304 113.326 304 110.876V74.6483C304 70.467 301.329 66.6112 297.002 64.4691L166.553 0.445828C165.766 0.0516808 164.835 -0.0854131 163.924 0.0516816L37.5941 19.4335C36.766 19.5534 36.5382 20.4445 37.2007 20.8387L169.182 100.936C172.888 103.181 177.629 103.918 182.08 102.941L287.458 79.5666C287.458 79.5666 287.5 79.5495 287.5 79.5323L288.349 77.8187C289.115 76.2421 291.164 75.3167 293.276 75.7108C295.243 76.0878 296.568 77.6473 296.568 79.3096V106.866C296.568 108.391 295.408 109.745 293.669 110.242L292.862 110.464C291.123 110.961 289.197 110.499 288.059 109.316L286.547 107.757C286.547 107.757 286.506 107.722 286.465 107.74L174.876 133.342C171.294 134.13 167.464 133.513 164.503 131.628L47.7799 55.7636L44.0327 53.2958C44.0327 53.2958 44.012 53.2616 44.012 53.2444L43.8878 47.1951C43.8878 47.1951 43.8464 47.1266 43.805 47.1437L37.6769 48.2233V48.2919Z" fill="#59388E"/>
</g>
<path d="M72.8722 18.2852L59.5602 20.513C56.7032 20.9929 55.8543 24.0432 58.1731 25.4999L81.9608 40.5289C82.8096 41.0601 83.9069 41.2315 84.9213 41.0087L88.2338 40.2547C90.8838 39.6549 91.6084 36.8444 89.5174 35.3878L82.1678 30.3153C79.994 28.8244 80.8635 25.9111 83.617 25.4142C86.4533 24.9001 87.2608 21.8497 84.9213 20.4102L81.1948 18.0967C80.4702 17.6512 79.5385 17.4627 78.6483 17.5655L72.8722 18.3024V18.2852Z" fill="#8F78B5"/>
<defs>
<filter id="filter0_d_1005_2282" x="0" y="42" width="278" height="152" filterUnits="userSpaceOnUse" color-interpolation-filters="sRGB">
<feFlood flood-opacity="0" result="BackgroundImageFix"/>
<feColorMatrix in="SourceAlpha" type="matrix" values="0 0 0 0 0 0 0 0 0 0 0 0 0 0 0 0 0 0 127 0" result="hardAlpha"/>
<feOffset dy="5"/>
<feGaussianBlur stdDeviation="2.5"/>
<feComposite in2="hardAlpha" operator="out"/>
<feColorMatrix type="matrix" values="0 0 0 0 0.760784 0 0 0 0 0.4 0 0 0 0 0.464941 0 0 0 0.5 0"/>
<feBlend mode="normal" in2="BackgroundImageFix" result="effect1_dropShadow_1005_2282"/>
<feBlend mode="normal" in="SourceGraphic" in2="effect1_dropShadow_1005_2282" result="shape"/>
</filter>
<filter id="filter1_d_1005_2282" x="31" y="0" width="278" height="152" filterUnits="userSpaceOnUse" color-interpolation-filters="sRGB">
<feFlood flood-opacity="0" result="BackgroundImageFix"/>
<feColorMatrix in="SourceAlpha" type="matrix" values="0 0 0 0 0 0 0 0 0 0 0 0 0 0 0 0 0 0 127 0" result="hardAlpha"/>
<feOffset dy="5"/>
<feGaussianBlur stdDeviation="2.5"/>
<feComposite in2="hardAlpha" operator="out"/>
<feColorMatrix type="matrix" values="0 0 0 0 0.760784 0 0 0 0 0.4 0 0 0 0 0.464941 0 0 0 0.5 0"/>
<feBlend mode="normal" in2="BackgroundImageFix" result="effect1_dropShadow_1005_2282"/>
<feBlend mode="normal" in="SourceGraphic" in2="effect1_dropShadow_1005_2282" result="shape"/>
</filter>
</defs>
</svg>
