<svg width="278" height="152" viewBox="0 0 278 152" fill="none" xmlns="http://www.w3.org/2000/svg">
<g opacity="0.8" filter="url(#filter0_d_986_1794)">
<path d="M132.924 3.58105L12.9087 21.729V55.917L136.795 137.094L253.353 111.817L264.533 112.88L268.839 107.893V75.1445L258.094 67.6557L132.924 3.58105Z" fill="#E9E8E3"/>
<g filter="url(#filter1_d_986_1794)">
<path d="M6.67691 48.2919C5.66246 48.6175 4.99997 49.4229 4.99997 50.314V54.1355C4.99997 54.3583 5.12418 54.5811 5.33121 54.7182L134.559 139.94C137.54 141.842 141.453 142.476 145.076 141.636L253.167 115.862C253.167 115.862 253.187 115.862 253.208 115.862L260.206 118.21C263.145 119.204 266.582 118.913 269.336 117.216C271.737 115.725 273 113.326 273 110.876V74.6483C273 70.467 270.329 66.6112 266.002 64.4691L135.553 0.445828C134.766 0.0516808 133.835 -0.0854131 132.924 0.0516816L6.59412 19.4335C5.766 19.5534 5.53825 20.4445 6.20074 20.8387L138.182 100.936C141.888 103.181 146.629 103.918 151.08 102.941L256.458 79.5666C256.458 79.5666 256.5 79.5495 256.5 79.5323L257.349 77.8187C258.115 76.2421 260.164 75.3167 262.276 75.7108C264.243 76.0878 265.568 77.6473 265.568 79.3096V106.866C265.568 108.391 264.408 109.745 262.669 110.242L261.862 110.464C260.123 110.961 258.197 110.499 257.059 109.316L255.547 107.757C255.547 107.757 255.506 107.722 255.465 107.74L143.876 133.342C140.294 134.13 136.464 133.513 133.503 131.628L16.7799 55.7636L13.0327 53.2958C13.0327 53.2958 13.012 53.2616 13.012 53.2444L12.8878 47.1951C12.8878 47.1951 12.8464 47.1266 12.805 47.1437L6.67691 48.2233V48.2919Z" fill="#4B7B47"/>
</g>
<path d="M41.8719 18.2852L28.5599 20.513C25.7029 20.9929 24.8541 24.0432 27.1728 25.4999L50.9606 40.5289C51.8094 41.0601 52.9066 41.2315 53.9211 41.0087L57.2335 40.2547C59.8835 39.6549 60.6081 36.8444 58.5171 35.3878L51.1676 30.3153C48.9938 28.8244 49.8633 25.9111 52.6168 25.4142C55.4531 24.9001 56.2605 21.8497 53.9211 20.4102L50.1945 18.0967C49.4699 17.6512 48.5383 17.4627 47.6481 17.5655L41.8719 18.3024V18.2852Z" fill="#C0E6AA"/>
</g>
<path d="M131.131 103.132C131.131 105.219 132.013 107.22 133.582 108.696C135.152 110.171 137.28 111 139.5 111C141.72 111 143.848 110.171 145.418 108.696C146.987 107.22 147.869 105.219 147.869 103.132C147.869 102.099 147.652 101.076 147.232 100.121C146.811 99.1667 146.195 98.2994 145.418 97.5688C144.64 96.8382 143.718 96.2587 142.703 95.8633C141.687 95.4679 140.599 95.2644 139.5 95.2644C138.401 95.2644 137.313 95.4679 136.297 95.8633C135.282 96.2587 134.36 96.8382 133.582 97.5688C132.805 98.2994 132.189 99.1667 131.768 100.121C131.348 101.076 131.131 102.099 131.131 103.132ZM154.247 73.4331C166.02 67.3374 172 58.4995 172 47.1714C172 27.7157 155.677 19 139.5 19C123.746 19 107 29.7629 107 49.715C107 51.7409 107.856 53.6839 109.38 55.1164C110.903 56.5489 112.97 57.3537 115.125 57.3537C117.28 57.3537 119.347 56.5489 120.87 55.1164C122.394 53.6839 123.25 51.7409 123.25 49.715C123.25 39.1049 131.676 34.2773 139.5 34.2773C145.569 34.2773 155.75 35.9502 155.75 47.1714C155.75 51.1511 154.637 55.7954 146.414 60.0578C140.824 62.9376 131.375 70.4158 131.375 80.1093C131.375 82.1352 132.231 84.0781 133.755 85.5106C135.278 86.9431 137.345 87.7479 139.5 87.7479C141.655 87.7479 143.722 86.9431 145.245 85.5106C146.769 84.0781 147.625 82.1352 147.625 80.1093C147.625 78.6885 150.834 75.1976 154.247 73.4331Z" fill="#301D14"/>
<defs>
<filter id="filter0_d_986_1794" x="1" y="0" width="276" height="150" filterUnits="userSpaceOnUse" color-interpolation-filters="sRGB">
<feFlood flood-opacity="0" result="BackgroundImageFix"/>
<feColorMatrix in="SourceAlpha" type="matrix" values="0 0 0 0 0 0 0 0 0 0 0 0 0 0 0 0 0 0 127 0" result="hardAlpha"/>
<feOffset dy="4"/>
<feGaussianBlur stdDeviation="2"/>
<feComposite in2="hardAlpha" operator="out"/>
<feColorMatrix type="matrix" values="0 0 0 0 0.760784 0 0 0 0 0.4 0 0 0 0 0.464941 0 0 0 1 0"/>
<feBlend mode="normal" in2="BackgroundImageFix" result="effect1_dropShadow_986_1794"/>
<feBlend mode="normal" in="SourceGraphic" in2="effect1_dropShadow_986_1794" result="shape"/>
</filter>
<filter id="filter1_d_986_1794" x="0" y="0" width="278" height="152" filterUnits="userSpaceOnUse" color-interpolation-filters="sRGB">
<feFlood flood-opacity="0" result="BackgroundImageFix"/>
<feColorMatrix in="SourceAlpha" type="matrix" values="0 0 0 0 0 0 0 0 0 0 0 0 0 0 0 0 0 0 127 0" result="hardAlpha"/>
<feOffset dy="5"/>
<feGaussianBlur stdDeviation="2.5"/>
<feComposite in2="hardAlpha" operator="out"/>
<feColorMatrix type="matrix" values="0 0 0 0 0.760784 0 0 0 0 0.4 0 0 0 0 0.464941 0 0 0 0.5 0"/>
<feBlend mode="normal" in2="BackgroundImageFix" result="effect1_dropShadow_986_1794"/>
<feBlend mode="normal" in="SourceGraphic" in2="effect1_dropShadow_986_1794" result="shape"/>
</filter>
</defs>
</svg>
