<svg width="520" height="214" viewBox="0 0 520 214" fill="none" xmlns="http://www.w3.org/2000/svg">
<path d="M75.9309 3H435.849L519.867 193.578H0L75.9309 3Z" fill="#A4BC7C"/>
<path d="M40.6102 151.282L32.0204 174.012C31.627 175.196 32.8509 176.348 34.4902 176.348H148.714C149.982 176.348 151.053 175.65 151.228 174.725L155.621 151.396C155.84 150.26 154.638 149.238 153.086 149.238L43.0581 149.839C41.8779 149.839 40.8724 150.439 40.6102 151.282Z" fill="#991544"/>
<path d="M121.896 152.726L118.924 170.864C118.749 171.87 119.82 172.762 121.175 172.762H139.25C140.431 172.762 141.414 172.097 141.524 171.237L144.234 152.937C144.365 151.915 143.272 151.055 141.895 151.088L124.082 151.25C122.967 151.282 122.027 151.915 121.896 152.743V152.726Z" fill="#BC6689"/>
<path d="M42.9926 153.862L36.8289 170.199C36.3481 171.497 37.6813 172.778 39.4955 172.778H109.175C110.53 172.778 111.689 172.048 111.907 171.042L115.077 154.608C115.339 153.359 114.028 152.239 112.345 152.239L45.6373 152.337C44.3914 152.337 43.3204 152.953 42.9926 153.845V153.862Z" fill="#BC6689"/>
<path d="M0 194H520V207.556C520 211.116 512.982 214 504.368 214H15.6317C6.99601 214 0 211.107 0 207.556V194Z" fill="#607748"/>
<path d="M57.1996 100.893L49.1344 122.211C48.7847 123.331 49.9213 124.401 51.4513 124.401H158.528C159.709 124.401 160.736 123.752 160.889 122.876L165.02 101.007C165.217 99.9363 164.102 98.9791 162.637 98.9953L59.4946 99.5469C58.4018 99.5469 57.4401 100.115 57.1996 100.91V100.893Z" fill="#991544"/>
<path d="M133.415 102.257L130.639 119.259C130.486 120.2 131.47 121.027 132.759 121.027H149.698C150.791 121.027 151.709 120.411 151.818 119.6L154.354 102.435C154.485 101.478 153.458 100.667 152.168 100.699L135.469 100.845C134.42 100.878 133.546 101.462 133.415 102.24V102.257Z" fill="#BC6689"/>
<path d="M59.451 103.311L53.6807 118.626C53.2436 119.843 54.4676 121.043 56.1724 121.043H121.503C122.77 121.043 123.863 120.362 124.06 119.421L127.033 104.009C127.273 102.841 126.049 101.786 124.453 101.786L61.9208 101.883C60.7624 101.883 59.7351 102.468 59.451 103.295V103.311Z" fill="#BC6689"/>
<path d="M440.111 57.9321L447.564 77.6274C447.892 78.6495 446.843 79.6391 445.422 79.6391H346.476C345.383 79.6391 344.443 79.0389 344.29 78.2277L340.487 58.0132C340.29 57.0235 341.34 56.1475 342.695 56.1475L438.013 56.6666C439.018 56.6666 439.914 57.1858 440.133 57.9158L440.111 57.9321Z" fill="#5D2784"/>
<path d="M369.688 59.1982L372.245 74.9188C372.398 75.7949 371.48 76.5574 370.278 76.5574H354.607C353.601 76.5574 352.749 75.9895 352.64 75.227L350.301 59.3767C350.192 58.5006 351.131 57.7381 352.334 57.7705L367.765 57.9003C368.748 57.9165 369.535 58.4681 369.666 59.182L369.688 59.1982Z" fill="#77519C"/>
<path d="M434.913 60.0989L440.246 74.2458C440.661 75.3653 439.503 76.4847 437.951 76.4847H377.582C376.402 76.4847 375.397 75.852 375.222 74.9921L372.468 60.7641C372.249 59.6771 373.364 58.7037 374.85 58.7199L432.64 58.801C433.711 58.801 434.651 59.3364 434.935 60.1152L434.913 60.0989Z" fill="#77519C"/>
<path d="M425.729 14.2745L432.702 32.7369C433.008 33.6941 432.024 34.6351 430.691 34.6351H337.93C336.903 34.6351 336.028 34.0672 335.875 33.3047L332.313 14.3557C332.138 13.4309 333.121 12.6035 334.367 12.6035L423.718 13.0902C424.68 13.0902 425.489 13.5769 425.707 14.2745H425.729Z" fill="#5D2784"/>
<path d="M359.699 15.4595L362.104 30.1905C362.235 31.0016 361.382 31.7317 360.268 31.7317H345.58C344.618 31.7317 343.831 31.1963 343.744 30.4987L341.558 15.638C341.449 14.8106 342.345 14.113 343.46 14.1292L357.929 14.259C358.847 14.2752 359.59 14.7943 359.699 15.4595Z" fill="#77519C"/>
<path d="M423.784 16.3676L428.789 29.6223C429.183 30.6768 428.112 31.7151 426.625 31.7151H370.038C368.945 31.7151 368.005 31.1148 367.83 30.3037L365.251 16.9517C365.033 15.9458 366.103 15.0211 367.48 15.0373L421.664 15.1184C422.669 15.1184 423.543 15.6214 423.806 16.3514L423.784 16.3676Z" fill="#77519C"/>
<path d="M171.621 193.334L201.193 3H318.958L344.05 193.578L171.621 193.334Z" fill="#9F7CD7"/>
<path d="M213.06 12.9624L206.518 31.5115C206.235 32.4725 207.24 33.4007 208.573 33.3835L301.32 32.1927C302.347 32.1795 303.208 31.6005 303.343 30.8362L306.464 11.8442C306.617 10.9173 305.615 10.1027 304.369 10.1187L215.042 11.7524C214.081 11.7648 213.284 12.2618 213.081 12.9621L213.06 12.9624Z" fill="#991544"/>
<path d="M279.107 13.2984L277.046 28.058C276.934 28.8707 277.803 29.5898 278.918 29.5754L293.604 29.3869C294.565 29.3745 295.339 28.8291 295.411 28.1305L297.25 13.2439C297.34 12.4152 296.427 11.7292 295.313 11.7598L280.849 12.0753C279.932 12.1033 279.201 12.6319 279.107 13.2984Z" fill="#BC6689"/>
<path d="M215.053 15.0297L210.358 28.3466C209.989 29.406 211.084 30.4304 212.57 30.4113L269.149 29.6848C270.242 29.6708 271.167 29.0585 271.323 28.2452L273.591 14.8622C273.786 13.8537 272.694 12.9428 271.317 12.9767L217.144 13.7534C216.139 13.7663 215.276 14.2804 215.031 15.0137L215.053 15.0297Z" fill="#BC6689"/>
<path d="M218.924 19.6495L211.952 38.1119C211.646 39.0691 212.629 40.0101 213.962 40.0101L306.723 40.0101C307.751 40.0101 308.625 39.4422 308.778 38.6797L312.34 19.7307C312.515 18.8059 311.532 17.9785 310.286 17.9785L220.935 18.4652C219.973 18.4652 219.164 18.9519 218.946 19.6495L218.924 19.6495Z" fill="#991544"/>
<path d="M284.954 20.8335L282.549 35.5645C282.418 36.3757 283.271 37.1057 284.385 37.1057H299.073C300.035 37.1057 300.822 36.5703 300.909 35.8727L303.095 21.012C303.204 20.1846 302.308 19.487 301.193 19.5032L286.724 19.633C285.806 19.6492 285.063 20.1684 284.954 20.8335Z" fill="#BC6689"/>
<path d="M220.869 21.7417L215.864 34.9963C215.471 36.0508 216.542 37.0891 218.028 37.0891H274.615C275.708 37.0891 276.648 36.4889 276.823 35.6777L279.402 22.3257C279.621 21.3199 278.55 20.3951 277.173 20.4113L222.989 20.4925C221.984 20.4925 221.11 20.9954 220.847 21.7255L220.869 21.7417Z" fill="#BC6689"/>
<path d="M315.259 151.806L323.848 174.535C324.242 175.719 323.018 176.871 321.378 176.871H207.154C205.886 176.871 204.815 176.174 204.641 175.249L200.247 151.919C200.029 150.784 201.231 149.762 202.783 149.762L312.811 150.362C313.991 150.362 314.996 150.962 315.259 151.806Z" fill="#5D2784"/>
<path d="M233.973 153.25L236.945 171.388C237.12 172.394 236.049 173.286 234.694 173.286H216.618C215.438 173.286 214.455 172.621 214.345 171.761L211.635 153.461C211.504 152.439 212.597 151.579 213.974 151.611L231.787 151.773C232.902 151.806 233.842 152.439 233.973 153.266V153.25Z" fill="#77519C"/>
<path d="M312.876 154.368L319.04 170.706C319.52 172.003 318.187 173.285 316.373 173.285H246.693C245.338 173.285 244.18 172.555 243.961 171.549L240.792 155.115C240.53 153.866 241.841 152.746 243.524 152.746L310.231 152.843C311.477 152.843 312.548 153.46 312.876 154.352V154.368Z" fill="#77519C"/>
<path d="M302.273 135.596L310.863 158.325C311.257 159.509 310.033 160.661 308.393 160.661H194.169C192.901 160.661 191.83 159.964 191.656 159.039L187.262 135.709C187.044 134.574 188.246 133.552 189.798 133.552L299.825 134.152C301.006 134.152 302.011 134.752 302.273 135.596Z" fill="#5D2784"/>
<path d="M220.988 137.04L223.96 155.178C224.135 156.184 223.064 157.076 221.709 157.076H203.633C202.453 157.076 201.469 156.411 201.36 155.551L198.65 137.251C198.519 136.229 199.612 135.369 200.989 135.401L218.802 135.564C219.917 135.596 220.856 136.229 220.988 137.056V137.04Z" fill="#77519C"/>
<path d="M299.891 138.158L306.055 154.496C306.536 155.793 305.202 157.075 303.388 157.075H233.708C232.353 157.075 231.195 156.345 230.976 155.339L227.807 138.905C227.545 137.656 228.856 136.536 230.539 136.536L297.246 136.633C298.492 136.633 299.563 137.25 299.891 138.142V138.158Z" fill="#77519C"/>
<path d="M302.143 135.802L310.732 158.531C311.126 159.715 309.902 160.867 308.262 160.867H194.038C192.771 160.867 191.7 160.17 191.525 159.245L187.131 135.916C186.913 134.78 188.115 133.758 189.667 133.758L299.695 134.358C300.875 134.358 301.88 134.958 302.143 135.802Z" fill="#5D2784"/>
<path d="M220.857 137.246L223.829 155.384C224.004 156.39 222.933 157.282 221.578 157.282H203.502C202.322 157.282 201.338 156.617 201.229 155.757L198.519 137.457C198.388 136.435 199.48 135.575 200.857 135.607L218.671 135.77C219.786 135.802 220.725 136.435 220.857 137.262V137.246Z" fill="#77519C"/>
<path d="M299.76 138.365L305.924 154.702C306.404 156 305.071 157.281 303.257 157.281H233.577C232.222 157.281 231.064 156.551 230.845 155.545L227.676 139.111C227.414 137.862 228.725 136.742 230.408 136.742L297.115 136.84C298.361 136.84 299.432 137.456 299.76 138.348V138.365Z" fill="#77519C"/>
<g filter="url(#filter0_d_1016_3007)">
<path d="M140.986 31.4501L145.097 15.5532C145.273 14.875 145.027 14.1653 144.465 13.6764L131.181 2.52651C130.619 2.05338 129.811 1.87991 129.055 2.08493L111.661 6.83192C110.923 7.03694 110.343 7.57315 110.167 8.25129L106.056 24.1482C105.88 24.8264 106.126 25.5361 106.688 26.025L119.972 37.1749C120.534 37.648 121.342 37.8215 122.098 37.6165L139.492 32.8695" fill="#ECE5C3"/>
<path d="M111.608 9.00824C113.154 10.2384 114.7 11.4685 116.229 12.6986C118.689 14.6542 121.149 16.6255 123.609 18.5811C124.171 19.0385 124.733 19.48 125.313 19.9374C126.016 20.5051 127.017 19.5431 126.314 18.9754C124.768 17.7453 123.222 16.5151 121.693 15.285C119.234 13.3294 116.774 11.3581 114.314 9.40251L112.61 8.04623C111.907 7.47848 110.905 8.4405 111.608 9.00824Z" fill="#D6C983"/>
<path d="M141.671 14.9697C136.962 16.0894 132.271 17.2249 127.562 18.3446L125.594 18.8177C124.681 19.0385 125.102 20.3002 126.016 20.0794C130.725 18.9597 135.416 17.8242 140.125 16.7044L142.093 16.2313C143.006 16.0105 142.585 14.7489 141.671 14.9697Z" fill="#D6C983"/>
<path d="M121.957 36.8434C122.467 34.9036 122.994 32.9796 123.503 31.0398C124.329 27.933 125.155 24.8419 125.981 21.7351L126.543 19.606C126.754 18.7859 125.331 18.4863 125.12 19.3221C124.61 21.2619 124.083 23.186 123.574 25.1258C122.748 28.2326 121.922 31.3237 121.096 34.4305C120.903 35.1402 120.727 35.8499 120.534 36.5596C120.323 37.3797 121.746 37.6793 121.957 36.8434Z" fill="#D6C983"/>
<path d="M121.061 9.4153C121.312 8.74687 120.376 7.85937 118.969 7.43299C117.563 7.00662 116.219 7.20283 115.967 7.87125C115.716 8.53967 116.652 9.42719 118.059 9.85356C119.465 10.2799 120.809 10.0837 121.061 9.4153Z" fill="#47250D"/>
<path d="M130.689 6.51247C130.941 5.84405 130.004 4.95655 128.598 4.53017C127.191 4.1038 125.847 4.30001 125.595 4.96843C125.344 5.63685 126.28 6.52436 127.687 6.95073C129.094 7.37711 130.438 7.18089 130.689 6.51247Z" fill="#47250D"/>
<path d="M138.708 12.4519C138.96 11.7835 138.023 10.896 136.617 10.4696C135.21 10.0432 133.866 10.2395 133.615 10.9079C133.363 11.5763 134.299 12.4638 135.706 12.8902C137.113 13.3166 138.457 13.1203 138.708 12.4519Z" fill="#47250D"/>
<path d="M128.28 15.0906C128.532 14.4222 127.596 13.5347 126.189 13.1083C124.782 12.6819 123.438 12.8781 123.187 13.5466C122.935 14.215 123.872 15.1025 125.278 15.5289C126.685 15.9552 128.029 15.759 128.28 15.0906Z" fill="#47250D"/>
<path d="M115.371 24.4158C116.036 24.0386 115.931 22.8198 115.137 21.6937C114.343 20.5675 113.161 19.9603 112.497 20.3375C111.833 20.7147 111.938 21.9335 112.731 23.0596C113.525 24.1858 114.707 24.7929 115.371 24.4158Z" fill="#47250D"/>
<path d="M131.283 24.0518C132.298 23.0786 132.499 21.7688 131.734 21.1261C130.969 20.4835 129.526 20.7515 128.512 21.7247C127.498 22.6979 127.296 24.0078 128.061 24.6504C128.826 25.293 130.269 25.025 131.283 24.0518Z" fill="#47250D"/>
<path d="M138.59 30.7864C139.518 29.8959 139.708 28.7013 139.013 28.1182C138.319 27.535 137.004 27.7842 136.075 28.6747C135.147 29.5652 134.958 30.7598 135.652 31.3429C136.347 31.9261 137.662 31.6769 138.59 30.7864Z" fill="#47250D"/>
</g>
<g filter="url(#filter1_d_1016_3007)">
<path d="M172.068 34.6137L170.082 18.9991C169.994 18.3307 169.502 17.7536 168.799 17.4801L152.16 11.1614C151.44 10.888 150.632 10.9639 149.999 11.3741L135.346 20.6699C134.713 21.0648 134.379 21.718 134.467 22.3863L136.452 38.0009C136.54 38.6692 137.032 39.2464 137.735 39.5198L154.374 45.8386C155.095 46.112 155.903 46.0361 156.535 45.6259L171.189 36.3301" fill="#ECE5C3"/>
<path d="M136.066 22.6594C137.981 23.3278 139.879 24.0113 141.794 24.6796C144.833 25.7581 147.891 26.8365 150.93 27.8998C151.633 28.1428 152.336 28.401 153.039 28.644C153.917 28.9478 154.497 27.7934 153.636 27.4896C151.721 26.8213 149.823 26.1378 147.908 25.4695C144.869 24.391 141.811 23.3126 138.772 22.2493C138.069 22.0063 137.366 21.7481 136.663 21.5051C135.785 21.2013 135.205 22.3557 136.066 22.6594Z" fill="#D6C983"/>
<path d="M166.638 19.4392C162.615 21.8088 158.608 24.1783 154.585 26.5478L152.898 27.5351C152.125 27.9908 152.986 29.0237 153.759 28.568C157.783 26.1985 161.789 23.8289 165.812 21.4594C166.375 21.1252 166.937 20.7911 167.499 20.4721C168.272 20.0164 167.411 18.9835 166.638 19.4392Z" fill="#D6C983"/>
<path d="M156.114 44.9725C155.885 43.0739 155.657 41.16 155.429 39.2614L154.322 30.1022C154.234 29.4035 154.146 28.7048 154.076 28.0061C153.97 27.201 152.512 27.3378 152.617 28.158C152.846 30.0566 153.074 31.9705 153.303 33.8692C153.671 36.9222 154.04 39.9753 154.409 43.0283C154.497 43.727 154.585 44.4257 154.655 45.1244C154.761 45.9295 156.219 45.7928 156.114 44.9725Z" fill="#D6C983"/>
<path d="M142.461 21.5451C143.946 21.5288 145.141 20.9647 145.131 20.2853C145.121 19.6058 143.909 19.0683 142.425 19.0846C140.94 19.101 139.745 19.665 139.755 20.3445C139.765 21.0239 140.977 21.5615 142.461 21.5451Z" fill="#47250D"/>
<path d="M150.446 16.1408C151.93 16.1245 153.126 15.5604 153.116 14.881C153.106 14.2015 151.894 13.664 150.409 13.6804C148.925 13.6967 147.73 14.2608 147.74 14.9402C147.75 15.6196 148.961 16.1572 150.446 16.1408Z" fill="#47250D"/>
<path d="M160.225 19.238C161.709 19.2216 162.904 18.6576 162.894 17.9781C162.884 17.2987 161.673 16.7612 160.188 16.7775C158.704 16.7939 157.508 17.3579 157.518 18.0374C157.528 18.7168 158.74 19.2543 160.225 19.238Z" fill="#47250D"/>
<path d="M151.362 24.6364C152.846 24.6201 154.041 24.056 154.031 23.3766C154.021 22.6971 152.81 22.1596 151.325 22.176C149.841 22.1923 148.645 22.7564 148.655 23.4358C148.665 24.1152 149.877 24.6528 151.362 24.6364Z" fill="#47250D"/>
<path d="M145.305 35.5443C145.792 35.0109 145.242 33.9339 144.077 33.1386C142.912 32.3433 141.572 32.1309 141.085 32.6642C140.598 33.1975 141.148 34.2746 142.313 35.0699C143.478 35.8652 144.818 36.0776 145.305 35.5443Z" fill="#47250D"/>
<path d="M160.197 30.6758C160.794 29.5007 160.5 28.2527 159.54 27.8884C158.581 27.5241 157.319 28.1814 156.722 29.3566C156.125 30.5317 156.419 31.7797 157.379 32.144C158.338 32.5083 159.6 31.851 160.197 30.6758Z" fill="#47250D"/>
<path d="M169.572 34.6954C170.118 33.6201 169.855 32.4804 168.984 32.1498C168.114 31.8193 166.965 32.423 166.419 33.4983C165.873 34.5736 166.136 35.7133 167.006 36.0439C167.877 36.3744 169.026 35.7707 169.572 34.6954Z" fill="#47250D"/>
</g>
<g filter="url(#filter2_d_1016_3007)">
<path d="M122.986 50.4501L127.097 34.5532C127.273 33.875 127.027 33.1653 126.465 32.6764L113.181 21.5265C112.619 21.0534 111.811 20.8799 111.055 21.0849L93.6608 25.8319C92.9229 26.0369 92.3431 26.5731 92.1674 27.2513L88.0559 43.1482C87.8802 43.8264 88.1262 44.5361 88.6884 45.025L101.972 56.1749C102.534 56.648 103.342 56.8215 104.098 56.6165L121.492 51.8695" fill="#ECE5C3"/>
<path d="M93.6081 28.0082C95.1543 29.2384 96.7005 30.4685 98.2291 31.6986C100.689 33.6542 103.149 35.6255 105.609 37.5811C106.171 38.0385 106.733 38.48 107.313 38.9374C108.016 39.5051 109.017 38.5431 108.314 37.9754C106.768 36.7453 105.222 35.5151 103.693 34.285C101.234 32.3294 98.7738 30.3581 96.3139 28.4025L94.6096 27.0462C93.9068 26.4785 92.9053 27.4405 93.6081 28.0082Z" fill="#FCF8DF"/>
<path d="M123.671 33.9697C118.962 35.0894 114.271 36.2249 109.562 37.3446L107.594 37.8177C106.681 38.0385 107.102 39.3002 108.016 39.0794C112.725 37.9597 117.416 36.8242 122.125 35.7044L124.093 35.2313C125.006 35.0105 124.585 33.7489 123.671 33.9697Z" fill="#FCF8DF"/>
<path d="M103.957 55.8434C104.467 53.9036 104.994 51.9796 105.503 50.0398C106.329 46.933 107.155 43.8419 107.981 40.7351L108.543 38.606C108.754 37.7859 107.331 37.4863 107.12 38.3221C106.61 40.2619 106.083 42.186 105.574 44.1258C104.748 47.2326 103.922 50.3237 103.096 53.4305C102.903 54.1402 102.727 54.8499 102.534 55.5596C102.323 56.3797 103.746 56.6793 103.957 55.8434Z" fill="#FCF8DF"/>
<path d="M103.061 28.4153C103.312 27.7469 102.376 26.8594 100.969 26.433C99.5627 26.0066 98.2186 26.2028 97.9671 26.8713C97.7156 27.5397 98.652 28.4272 100.059 28.8536C101.465 29.2799 102.809 29.0837 103.061 28.4153Z" fill="#47250D"/>
<path d="M112.689 25.5125C112.941 24.8441 112.004 23.9565 110.598 23.5302C109.191 23.1038 107.847 23.3 107.595 23.9684C107.344 24.6369 108.28 25.5244 109.687 25.9507C111.094 26.3771 112.438 26.1809 112.689 25.5125Z" fill="#47250D"/>
<path d="M120.708 31.4519C120.96 30.7835 120.023 29.896 118.617 29.4696C117.21 29.0432 115.866 29.2395 115.615 29.9079C115.363 30.5763 116.299 31.4638 117.706 31.8902C119.113 32.3166 120.457 32.1203 120.708 31.4519Z" fill="#47250D"/>
<path d="M110.28 34.0906C110.532 33.4222 109.596 32.5347 108.189 32.1083C106.782 31.6819 105.438 31.8781 105.187 32.5466C104.935 33.215 105.872 34.1025 107.278 34.5289C108.685 34.9552 110.029 34.759 110.28 34.0906Z" fill="#47250D"/>
<path d="M97.3714 43.4158C98.0357 43.0386 97.9307 41.8198 97.1369 40.6937C96.3431 39.5675 95.1611 38.9603 94.4969 39.3375C93.8327 39.7147 93.9377 40.9335 94.7315 42.0596C95.5253 43.1858 96.7072 43.7929 97.3714 43.4158Z" fill="#47250D"/>
<path d="M113.283 43.0518C114.298 42.0786 114.499 40.7688 113.734 40.1261C112.969 39.4835 111.526 39.7515 110.512 40.7247C109.498 41.6979 109.296 43.0078 110.061 43.6504C110.826 44.293 112.269 44.025 113.283 43.0518Z" fill="#47250D"/>
<path d="M120.59 49.7864C121.518 48.8959 121.708 47.7013 121.013 47.1182C120.319 46.535 119.004 46.7842 118.075 47.6747C117.147 48.5652 116.958 49.7598 117.652 50.3429C118.347 50.9261 119.662 50.6769 120.59 49.7864Z" fill="#47250D"/>
</g>
<g filter="url(#filter3_d_1016_3007)">
<path d="M154.068 53.6137L152.082 37.9991C151.994 37.3307 151.502 36.7536 150.799 36.4801L134.16 30.1614C133.44 29.888 132.632 29.9639 131.999 30.3741L117.346 39.6699C116.713 40.0648 116.379 40.718 116.467 41.3863L118.452 57.0009C118.54 57.6692 119.032 58.2464 119.735 58.5198L136.374 64.8386C137.095 65.112 137.903 65.0361 138.535 64.6259L153.189 55.3301" fill="#ECE5C3"/>
<path d="M118.066 41.6594C119.981 42.3278 121.879 43.0113 123.794 43.6796C126.833 44.7581 129.891 45.8365 132.93 46.8998C133.633 47.1428 134.336 47.401 135.039 47.644C135.917 47.9478 136.497 46.7934 135.636 46.4896C133.721 45.8213 131.823 45.1378 129.908 44.4695C126.869 43.391 123.811 42.3126 120.772 41.2493C120.069 41.0063 119.366 40.7481 118.663 40.5051C117.785 40.2013 117.205 41.3557 118.066 41.6594Z" fill="#FCF8DF"/>
<path d="M148.638 38.4392C144.615 40.8088 140.608 43.1783 136.585 45.5478L134.898 46.5351C134.125 46.9908 134.986 48.0237 135.759 47.568C139.783 45.1985 143.789 42.8289 147.812 40.4594C148.375 40.1252 148.937 39.7911 149.499 39.4721C150.272 39.0164 149.411 37.9835 148.638 38.4392Z" fill="#FCF8DF"/>
<path d="M138.114 63.9725C137.885 62.0739 137.657 60.16 137.429 58.2614L136.322 49.1022C136.234 48.4035 136.146 47.7048 136.076 47.0061C135.97 46.201 134.512 46.3378 134.617 47.158C134.846 49.0566 135.074 50.9705 135.303 52.8692C135.671 55.9222 136.04 58.9753 136.409 62.0283C136.497 62.727 136.585 63.4257 136.655 64.1244C136.761 64.9295 138.219 64.7928 138.114 63.9725Z" fill="#FCF8DF"/>
<path d="M124.461 40.5451C125.946 40.5288 127.141 39.9647 127.131 39.2853C127.121 38.6058 125.909 38.0683 124.425 38.0846C122.94 38.101 121.745 38.665 121.755 39.3445C121.765 40.0239 122.977 40.5615 124.461 40.5451Z" fill="#47250D"/>
<path d="M132.446 35.1408C133.93 35.1245 135.126 34.5604 135.116 33.881C135.106 33.2015 133.894 32.664 132.409 32.6804C130.925 32.6967 129.73 33.2608 129.74 33.9402C129.75 34.6196 130.961 35.1572 132.446 35.1408Z" fill="#47250D"/>
<path d="M142.225 38.238C143.709 38.2216 144.904 37.6576 144.894 36.9781C144.884 36.2987 143.673 35.7612 142.188 35.7775C140.704 35.7939 139.508 36.3579 139.518 37.0374C139.528 37.7168 140.74 38.2543 142.225 38.238Z" fill="#47250D"/>
<path d="M133.362 43.6364C134.846 43.6201 136.041 43.056 136.031 42.3766C136.021 41.6971 134.81 41.1596 133.325 41.176C131.841 41.1923 130.645 41.7564 130.655 42.4358C130.665 43.1152 131.877 43.6528 133.362 43.6364Z" fill="#47250D"/>
<path d="M127.305 54.5443C127.792 54.0109 127.242 52.9339 126.077 52.1386C124.912 51.3433 123.572 51.1309 123.085 51.6642C122.598 52.1975 123.148 53.2746 124.313 54.0699C125.478 54.8652 126.818 55.0776 127.305 54.5443Z" fill="#47250D"/>
<path d="M142.197 49.6758C142.794 48.5007 142.5 47.2527 141.54 46.8884C140.581 46.5241 139.319 47.1814 138.722 48.3566C138.125 49.5317 138.419 50.7797 139.379 51.144C140.338 51.5083 141.6 50.851 142.197 49.6758Z" fill="#47250D"/>
<path d="M151.572 53.6954C152.118 52.6201 151.855 51.4804 150.984 51.1498C150.114 50.8193 148.965 51.423 148.419 52.4983C147.873 53.5736 148.136 54.7133 149.006 55.0439C149.877 55.3744 151.026 54.7707 151.572 53.6954Z" fill="#47250D"/>
</g>
<g filter="url(#filter4_d_1016_3007)">
<path d="M439.986 139.45L444.097 123.553C444.273 122.875 444.027 122.165 443.465 121.676L430.181 110.527C429.619 110.053 428.811 109.88 428.055 110.085L410.661 114.832C409.923 115.037 409.343 115.573 409.167 116.251L405.056 132.148C404.88 132.826 405.126 133.536 405.688 134.025L418.972 145.175C419.534 145.648 420.342 145.821 421.098 145.616L438.492 140.869" fill="#E9A1BE"/>
<path d="M410.608 117.008C412.154 118.238 413.7 119.468 415.229 120.699C417.689 122.654 420.149 124.626 422.609 126.581C423.171 127.038 423.733 127.48 424.313 127.937C425.016 128.505 426.017 127.543 425.314 126.975C423.768 125.745 422.222 124.515 420.693 123.285C418.234 121.329 415.774 119.358 413.314 117.403L411.61 116.046C410.907 115.478 409.905 116.44 410.608 117.008Z" fill="#FFEDE0"/>
<path d="M440.671 122.97C435.962 124.09 431.271 125.225 426.562 126.345L424.594 126.818C423.681 127.039 424.102 128.301 425.016 128.08C429.725 126.96 434.416 125.825 439.125 124.705L441.093 124.232C442.006 124.011 441.585 122.749 440.671 122.97Z" fill="#FFEDE0"/>
<path d="M420.957 144.843C421.467 142.904 421.994 140.98 422.503 139.04C423.329 135.933 424.155 132.842 424.981 129.735L425.543 127.606C425.754 126.786 424.331 126.486 424.12 127.322C423.61 129.262 423.083 131.186 422.574 133.126C421.748 136.233 420.922 139.324 420.096 142.431C419.903 143.14 419.727 143.85 419.534 144.56C419.323 145.38 420.746 145.679 420.957 144.843Z" fill="#FFEDE0"/>
<path d="M420.061 117.415C420.312 116.746 419.376 115.859 417.969 115.433C416.563 115.006 415.219 115.202 414.967 115.871C414.716 116.539 415.652 117.427 417.059 117.853C418.465 118.279 419.809 118.083 420.061 117.415Z" fill="#470D3E"/>
<path d="M429.689 114.512C429.941 113.844 429.004 112.957 427.598 112.53C426.191 112.104 424.847 112.3 424.595 112.968C424.344 113.637 425.28 114.524 426.687 114.951C428.094 115.377 429.438 115.181 429.689 114.512Z" fill="#470D3E"/>
<path d="M437.708 120.452C437.96 119.784 437.023 118.896 435.617 118.47C434.21 118.043 432.866 118.239 432.615 118.908C432.363 119.576 433.299 120.464 434.706 120.89C436.113 121.317 437.457 121.12 437.708 120.452Z" fill="#470D3E"/>
<path d="M427.28 123.091C427.532 122.422 426.596 121.535 425.189 121.108C423.782 120.682 422.438 120.878 422.187 121.547C421.935 122.215 422.872 123.102 424.278 123.529C425.685 123.955 427.029 123.759 427.28 123.091Z" fill="#470D3E"/>
<path d="M414.371 132.416C415.036 132.039 414.931 130.82 414.137 129.694C413.343 128.568 412.161 127.96 411.497 128.338C410.833 128.715 410.938 129.933 411.731 131.06C412.525 132.186 413.707 132.793 414.371 132.416Z" fill="#470D3E"/>
<path d="M430.283 132.051C431.298 131.078 431.499 129.768 430.734 129.126C429.969 128.483 428.526 128.751 427.512 129.724C426.498 130.697 426.296 132.007 427.061 132.65C427.826 133.293 429.269 133.025 430.283 132.051Z" fill="#470D3E"/>
<path d="M437.59 138.786C438.518 137.896 438.708 136.701 438.013 136.118C437.319 135.535 436.004 135.784 435.075 136.675C434.147 137.565 433.958 138.76 434.652 139.343C435.347 139.926 436.662 139.677 437.59 138.786Z" fill="#470D3E"/>
</g>
<g filter="url(#filter5_d_1016_3007)">
<path d="M471.068 142.614L469.082 126.999C468.994 126.331 468.502 125.754 467.799 125.48L451.16 119.161C450.44 118.888 449.632 118.964 448.999 119.374L434.346 128.67C433.713 129.065 433.379 129.718 433.467 130.386L435.452 146.001C435.54 146.669 436.032 147.246 436.735 147.52L453.374 153.839C454.095 154.112 454.903 154.036 455.535 153.626L470.189 144.33" fill="#E9A1BE"/>
<path d="M435.066 130.66C436.981 131.328 438.879 132.012 440.794 132.68C443.833 133.759 446.891 134.837 449.93 135.9C450.633 136.143 451.336 136.401 452.039 136.645C452.917 136.948 453.497 135.794 452.636 135.49C450.721 134.822 448.823 134.138 446.908 133.47C443.869 132.392 440.811 131.313 437.772 130.25C437.069 130.007 436.366 129.749 435.663 129.506C434.785 129.202 434.205 130.356 435.066 130.66Z" fill="#FFEDE0"/>
<path d="M465.638 127.44C461.615 129.809 457.608 132.179 453.585 134.548L451.898 135.536C451.125 135.991 451.986 137.024 452.759 136.568C456.783 134.199 460.789 131.829 464.812 129.46C465.375 129.126 465.937 128.792 466.499 128.473C467.272 128.017 466.411 126.984 465.638 127.44Z" fill="#FFEDE0"/>
<path d="M455.114 152.973C454.885 151.074 454.657 149.16 454.429 147.261L453.322 138.102C453.234 137.403 453.146 136.705 453.076 136.006C452.97 135.201 451.512 135.338 451.617 136.158C451.846 138.057 452.074 139.97 452.303 141.869C452.671 144.922 453.04 147.975 453.409 151.028C453.497 151.727 453.585 152.426 453.655 153.124C453.761 153.929 455.219 153.793 455.114 152.973Z" fill="#FFEDE0"/>
<path d="M441.461 129.545C442.946 129.529 444.141 128.965 444.131 128.285C444.121 127.606 442.909 127.068 441.425 127.085C439.94 127.101 438.745 127.665 438.755 128.344C438.765 129.024 439.977 129.561 441.461 129.545Z" fill="#470D3E"/>
<path d="M449.446 124.141C450.93 124.124 452.126 123.56 452.116 122.881C452.106 122.202 450.894 121.664 449.409 121.68C447.925 121.697 446.73 122.261 446.74 122.94C446.75 123.62 447.961 124.157 449.446 124.141Z" fill="#470D3E"/>
<path d="M459.225 127.238C460.709 127.222 461.904 126.658 461.894 125.979C461.884 125.299 460.673 124.762 459.188 124.778C457.704 124.794 456.508 125.358 456.518 126.038C456.528 126.717 457.74 127.255 459.225 127.238Z" fill="#470D3E"/>
<path d="M450.362 132.637C451.846 132.621 453.041 132.057 453.031 131.377C453.021 130.698 451.81 130.16 450.325 130.176C448.841 130.193 447.645 130.757 447.655 131.436C447.665 132.116 448.877 132.653 450.362 132.637Z" fill="#470D3E"/>
<path d="M444.305 143.544C444.792 143.011 444.242 141.934 443.077 141.139C441.912 140.343 440.572 140.131 440.085 140.664C439.598 141.198 440.148 142.275 441.313 143.07C442.478 143.865 443.818 144.078 444.305 143.544Z" fill="#470D3E"/>
<path d="M459.197 138.676C459.794 137.501 459.5 136.253 458.54 135.888C457.581 135.524 456.319 136.181 455.722 137.357C455.125 138.532 455.419 139.78 456.379 140.144C457.338 140.508 458.6 139.851 459.197 138.676Z" fill="#470D3E"/>
<path d="M468.572 142.695C469.118 141.62 468.855 140.48 467.984 140.15C467.114 139.819 465.965 140.423 465.419 141.498C464.873 142.574 465.136 143.713 466.006 144.044C466.877 144.374 468.026 143.771 468.572 142.695Z" fill="#470D3E"/>
</g>
<g filter="url(#filter6_d_1016_3007)">
<path d="M421.986 158.45L426.097 142.553C426.273 141.875 426.027 141.165 425.465 140.676L412.181 129.527C411.619 129.053 410.811 128.88 410.055 129.085L392.661 133.832C391.923 134.037 391.343 134.573 391.167 135.251L387.056 151.148C386.88 151.826 387.126 152.536 387.688 153.025L400.972 164.175C401.534 164.648 402.342 164.821 403.098 164.616L420.492 159.869" fill="#E9A1BE"/>
<path d="M392.608 136.008C394.154 137.238 395.7 138.468 397.229 139.699C399.689 141.654 402.149 143.626 404.609 145.581C405.171 146.038 405.733 146.48 406.313 146.937C407.016 147.505 408.017 146.543 407.314 145.975C405.768 144.745 404.222 143.515 402.693 142.285C400.234 140.329 397.774 138.358 395.314 136.403L393.61 135.046C392.907 134.478 391.905 135.44 392.608 136.008Z" fill="#FCDFFB"/>
<path d="M422.671 141.97C417.962 143.09 413.271 144.225 408.562 145.345L406.594 145.818C405.681 146.039 406.102 147.301 407.016 147.08C411.725 145.96 416.416 144.825 421.125 143.705L423.093 143.232C424.006 143.011 423.585 141.749 422.671 141.97Z" fill="#FCDFFB"/>
<path d="M402.957 163.843C403.467 161.904 403.994 159.98 404.503 158.04C405.329 154.933 406.155 151.842 406.981 148.735L407.543 146.606C407.754 145.786 406.331 145.486 406.12 146.322C405.61 148.262 405.083 150.186 404.574 152.126C403.748 155.233 402.922 158.324 402.096 161.431C401.903 162.14 401.727 162.85 401.534 163.56C401.323 164.38 402.746 164.679 402.957 163.843Z" fill="#FCDFFB"/>
<path d="M402.061 136.415C402.312 135.746 401.376 134.859 399.969 134.433C398.563 134.006 397.219 134.202 396.967 134.871C396.716 135.539 397.652 136.427 399.059 136.853C400.465 137.279 401.809 137.083 402.061 136.415Z" fill="#470D3E"/>
<path d="M411.689 133.512C411.941 132.844 411.004 131.957 409.598 131.53C408.191 131.104 406.847 131.3 406.595 131.968C406.344 132.637 407.28 133.524 408.687 133.951C410.094 134.377 411.438 134.181 411.689 133.512Z" fill="#470D3E"/>
<path d="M419.708 139.452C419.96 138.784 419.023 137.896 417.617 137.47C416.21 137.043 414.866 137.239 414.615 137.908C414.363 138.576 415.299 139.464 416.706 139.89C418.113 140.317 419.457 140.12 419.708 139.452Z" fill="#470D3E"/>
<path d="M409.28 142.091C409.532 141.422 408.596 140.535 407.189 140.108C405.782 139.682 404.438 139.878 404.187 140.547C403.935 141.215 404.872 142.102 406.278 142.529C407.685 142.955 409.029 142.759 409.28 142.091Z" fill="#470D3E"/>
<path d="M396.371 151.416C397.036 151.039 396.931 149.82 396.137 148.694C395.343 147.568 394.161 146.96 393.497 147.338C392.833 147.715 392.938 148.933 393.731 150.06C394.525 151.186 395.707 151.793 396.371 151.416Z" fill="#470D3E"/>
<path d="M412.283 151.051C413.298 150.078 413.499 148.768 412.734 148.126C411.969 147.483 410.526 147.751 409.512 148.724C408.498 149.697 408.296 151.007 409.061 151.65C409.826 152.293 411.269 152.025 412.283 151.051Z" fill="#470D3E"/>
<path d="M419.59 157.786C420.518 156.896 420.708 155.701 420.013 155.118C419.319 154.535 418.004 154.784 417.075 155.675C416.147 156.565 415.958 157.76 416.652 158.343C417.347 158.926 418.662 158.677 419.59 157.786Z" fill="#470D3E"/>
</g>
<g filter="url(#filter7_d_1016_3007)">
<path d="M453.068 161.614L451.082 145.999C450.994 145.331 450.502 144.754 449.799 144.48L433.16 138.161C432.44 137.888 431.632 137.964 430.999 138.374L416.346 147.67C415.713 148.065 415.379 148.718 415.467 149.386L417.452 165.001C417.54 165.669 418.032 166.246 418.735 166.52L435.374 172.839C436.095 173.112 436.903 173.036 437.535 172.626L452.189 163.33" fill="#E9A1BE"/>
<path d="M417.066 149.66C418.981 150.328 420.879 151.012 422.794 151.68C425.833 152.759 428.891 153.837 431.93 154.9C432.633 155.143 433.336 155.401 434.039 155.645C434.917 155.948 435.497 154.794 434.636 154.49C432.721 153.822 430.823 153.138 428.908 152.47C425.869 151.392 422.811 150.313 419.772 149.25C419.069 149.007 418.366 148.749 417.663 148.506C416.785 148.202 416.205 149.356 417.066 149.66Z" fill="#FCDFFB"/>
<path d="M447.638 146.44C443.615 148.809 439.608 151.179 435.585 153.548L433.898 154.536C433.125 154.991 433.986 156.024 434.759 155.568C438.783 153.199 442.789 150.829 446.812 148.46C447.375 148.126 447.937 147.792 448.499 147.473C449.272 147.017 448.411 145.984 447.638 146.44Z" fill="#FCDFFB"/>
<path d="M437.114 171.973C436.885 170.074 436.657 168.16 436.429 166.261L435.322 157.102C435.234 156.403 435.146 155.705 435.076 155.006C434.97 154.201 433.512 154.338 433.617 155.158C433.846 157.057 434.074 158.97 434.303 160.869C434.671 163.922 435.04 166.975 435.409 170.028C435.497 170.727 435.585 171.426 435.655 172.124C435.761 172.929 437.219 172.793 437.114 171.973Z" fill="#FCDFFB"/>
<path d="M423.461 148.545C424.946 148.529 426.141 147.965 426.131 147.285C426.121 146.606 424.909 146.068 423.425 146.085C421.94 146.101 420.745 146.665 420.755 147.344C420.765 148.024 421.977 148.561 423.461 148.545Z" fill="#470D3E"/>
<path d="M431.446 143.141C432.93 143.124 434.126 142.56 434.116 141.881C434.106 141.202 432.894 140.664 431.409 140.68C429.925 140.697 428.73 141.261 428.74 141.94C428.75 142.62 429.961 143.157 431.446 143.141Z" fill="#470D3E"/>
<path d="M441.225 146.238C442.709 146.222 443.904 145.658 443.894 144.979C443.884 144.299 442.673 143.762 441.188 143.778C439.704 143.794 438.508 144.358 438.518 145.038C438.528 145.717 439.74 146.255 441.225 146.238Z" fill="#470D3E"/>
<path d="M432.362 151.637C433.846 151.621 435.041 151.057 435.031 150.377C435.021 149.698 433.81 149.16 432.325 149.176C430.841 149.193 429.645 149.757 429.655 150.436C429.665 151.116 430.877 151.653 432.362 151.637Z" fill="#470D3E"/>
<path d="M426.305 162.544C426.792 162.011 426.242 160.934 425.077 160.139C423.912 159.343 422.572 159.131 422.085 159.664C421.598 160.198 422.148 161.275 423.313 162.07C424.478 162.865 425.818 163.078 426.305 162.544Z" fill="#470D3E"/>
<path d="M441.197 157.676C441.794 156.501 441.5 155.253 440.54 154.888C439.581 154.524 438.319 155.181 437.722 156.357C437.125 157.532 437.419 158.78 438.379 159.144C439.338 159.508 440.6 158.851 441.197 157.676Z" fill="#470D3E"/>
<path d="M450.572 161.695C451.118 160.62 450.855 159.48 449.984 159.15C449.114 158.819 447.965 159.423 447.419 160.498C446.873 161.574 447.136 162.713 448.006 163.044C448.877 163.374 450.026 162.771 450.572 161.695Z" fill="#470D3E"/>
</g>
<defs>
<filter id="filter0_d_1016_3007" x="102" y="0" width="47.1531" height="43.7012" filterUnits="userSpaceOnUse" color-interpolation-filters="sRGB">
<feFlood flood-opacity="0" result="BackgroundImageFix"/>
<feColorMatrix in="SourceAlpha" type="matrix" values="0 0 0 0 0 0 0 0 0 0 0 0 0 0 0 0 0 0 127 0" result="hardAlpha"/>
<feOffset dy="2"/>
<feGaussianBlur stdDeviation="2"/>
<feComposite in2="hardAlpha" operator="out"/>
<feColorMatrix type="matrix" values="0 0 0 0 0.486275 0 0 0 0 0.266667 0 0 0 0 0.333333 0 0 0 0.25 0"/>
<feBlend mode="normal" in2="BackgroundImageFix" result="effect1_dropShadow_1016_3007"/>
<feBlend mode="normal" in="SourceGraphic" in2="effect1_dropShadow_1016_3007" result="shape"/>
</filter>
<filter id="filter1_d_1016_3007" x="127.453" y="6" width="51.6143" height="49" filterUnits="userSpaceOnUse" color-interpolation-filters="sRGB">
<feFlood flood-opacity="0" result="BackgroundImageFix"/>
<feColorMatrix in="SourceAlpha" type="matrix" values="0 0 0 0 0 0 0 0 0 0 0 0 0 0 0 0 0 0 127 0" result="hardAlpha"/>
<feOffset dy="2"/>
<feGaussianBlur stdDeviation="3.5"/>
<feComposite in2="hardAlpha" operator="out"/>
<feColorMatrix type="matrix" values="0 0 0 0 0.486275 0 0 0 0 0.266667 0 0 0 0 0.333333 0 0 0 0.25 0"/>
<feBlend mode="normal" in2="BackgroundImageFix" result="effect1_dropShadow_1016_3007"/>
<feBlend mode="normal" in="SourceGraphic" in2="effect1_dropShadow_1016_3007" result="shape"/>
</filter>
<filter id="filter2_d_1016_3007" x="84" y="19" width="47.1531" height="43.7012" filterUnits="userSpaceOnUse" color-interpolation-filters="sRGB">
<feFlood flood-opacity="0" result="BackgroundImageFix"/>
<feColorMatrix in="SourceAlpha" type="matrix" values="0 0 0 0 0 0 0 0 0 0 0 0 0 0 0 0 0 0 127 0" result="hardAlpha"/>
<feOffset dy="2"/>
<feGaussianBlur stdDeviation="2"/>
<feComposite in2="hardAlpha" operator="out"/>
<feColorMatrix type="matrix" values="0 0 0 0 0.486275 0 0 0 0 0.266667 0 0 0 0 0.333333 0 0 0 0.25 0"/>
<feBlend mode="normal" in2="BackgroundImageFix" result="effect1_dropShadow_1016_3007"/>
<feBlend mode="normal" in="SourceGraphic" in2="effect1_dropShadow_1016_3007" result="shape"/>
</filter>
<filter id="filter3_d_1016_3007" x="109.453" y="25" width="51.6143" height="49" filterUnits="userSpaceOnUse" color-interpolation-filters="sRGB">
<feFlood flood-opacity="0" result="BackgroundImageFix"/>
<feColorMatrix in="SourceAlpha" type="matrix" values="0 0 0 0 0 0 0 0 0 0 0 0 0 0 0 0 0 0 127 0" result="hardAlpha"/>
<feOffset dy="2"/>
<feGaussianBlur stdDeviation="3.5"/>
<feComposite in2="hardAlpha" operator="out"/>
<feColorMatrix type="matrix" values="0 0 0 0 0.486275 0 0 0 0 0.266667 0 0 0 0 0.333333 0 0 0 0.25 0"/>
<feBlend mode="normal" in2="BackgroundImageFix" result="effect1_dropShadow_1016_3007"/>
<feBlend mode="normal" in="SourceGraphic" in2="effect1_dropShadow_1016_3007" result="shape"/>
</filter>
<filter id="filter4_d_1016_3007" x="401" y="108" width="47.1531" height="43.7012" filterUnits="userSpaceOnUse" color-interpolation-filters="sRGB">
<feFlood flood-opacity="0" result="BackgroundImageFix"/>
<feColorMatrix in="SourceAlpha" type="matrix" values="0 0 0 0 0 0 0 0 0 0 0 0 0 0 0 0 0 0 127 0" result="hardAlpha"/>
<feOffset dy="2"/>
<feGaussianBlur stdDeviation="2"/>
<feComposite in2="hardAlpha" operator="out"/>
<feColorMatrix type="matrix" values="0 0 0 0 0.486275 0 0 0 0 0.266667 0 0 0 0 0.333333 0 0 0 0.25 0"/>
<feBlend mode="normal" in2="BackgroundImageFix" result="effect1_dropShadow_1016_3007"/>
<feBlend mode="normal" in="SourceGraphic" in2="effect1_dropShadow_1016_3007" result="shape"/>
</filter>
<filter id="filter5_d_1016_3007" x="426.453" y="114" width="51.6143" height="49" filterUnits="userSpaceOnUse" color-interpolation-filters="sRGB">
<feFlood flood-opacity="0" result="BackgroundImageFix"/>
<feColorMatrix in="SourceAlpha" type="matrix" values="0 0 0 0 0 0 0 0 0 0 0 0 0 0 0 0 0 0 127 0" result="hardAlpha"/>
<feOffset dy="2"/>
<feGaussianBlur stdDeviation="3.5"/>
<feComposite in2="hardAlpha" operator="out"/>
<feColorMatrix type="matrix" values="0 0 0 0 0.486275 0 0 0 0 0.266667 0 0 0 0 0.333333 0 0 0 0.25 0"/>
<feBlend mode="normal" in2="BackgroundImageFix" result="effect1_dropShadow_1016_3007"/>
<feBlend mode="normal" in="SourceGraphic" in2="effect1_dropShadow_1016_3007" result="shape"/>
</filter>
<filter id="filter6_d_1016_3007" x="383" y="127" width="47.1531" height="43.7012" filterUnits="userSpaceOnUse" color-interpolation-filters="sRGB">
<feFlood flood-opacity="0" result="BackgroundImageFix"/>
<feColorMatrix in="SourceAlpha" type="matrix" values="0 0 0 0 0 0 0 0 0 0 0 0 0 0 0 0 0 0 127 0" result="hardAlpha"/>
<feOffset dy="2"/>
<feGaussianBlur stdDeviation="2"/>
<feComposite in2="hardAlpha" operator="out"/>
<feColorMatrix type="matrix" values="0 0 0 0 0.486275 0 0 0 0 0.266667 0 0 0 0 0.333333 0 0 0 0.25 0"/>
<feBlend mode="normal" in2="BackgroundImageFix" result="effect1_dropShadow_1016_3007"/>
<feBlend mode="normal" in="SourceGraphic" in2="effect1_dropShadow_1016_3007" result="shape"/>
</filter>
<filter id="filter7_d_1016_3007" x="408.453" y="133" width="51.6143" height="49" filterUnits="userSpaceOnUse" color-interpolation-filters="sRGB">
<feFlood flood-opacity="0" result="BackgroundImageFix"/>
<feColorMatrix in="SourceAlpha" type="matrix" values="0 0 0 0 0 0 0 0 0 0 0 0 0 0 0 0 0 0 127 0" result="hardAlpha"/>
<feOffset dy="2"/>
<feGaussianBlur stdDeviation="3.5"/>
<feComposite in2="hardAlpha" operator="out"/>
<feColorMatrix type="matrix" values="0 0 0 0 0.486275 0 0 0 0 0.266667 0 0 0 0 0.333333 0 0 0 0.25 0"/>
<feBlend mode="normal" in2="BackgroundImageFix" result="effect1_dropShadow_1016_3007"/>
<feBlend mode="normal" in="SourceGraphic" in2="effect1_dropShadow_1016_3007" result="shape"/>
</filter>
</defs>
</svg>
