<svg width="520" height="211" viewBox="0 0 520 211" fill="none" xmlns="http://www.w3.org/2000/svg">
<path d="M75.9309 0H435.849L519.867 190.578H0L75.9309 0Z" fill="#BF99A7"/>
<path d="M40.6102 148.282L32.0204 171.012C31.627 172.196 32.8509 173.348 34.4902 173.348H148.714C149.982 173.348 151.053 172.65 151.228 171.725L155.621 148.396C155.84 147.26 154.638 146.238 153.086 146.238L43.0581 146.839C41.8779 146.839 40.8724 147.439 40.6102 148.282Z" fill="#991544"/>
<path d="M121.896 149.726L118.924 167.864C118.749 168.87 119.82 169.762 121.175 169.762H139.25C140.431 169.762 141.414 169.097 141.524 168.237L144.234 149.937C144.365 148.915 143.272 148.055 141.895 148.088L124.082 148.25C122.967 148.282 122.027 148.915 121.896 149.743V149.726Z" fill="#BC6689"/>
<path d="M42.9926 150.862L36.8289 167.199C36.3481 168.497 37.6813 169.778 39.4955 169.778H109.175C110.53 169.778 111.689 169.048 111.907 168.042L115.077 151.608C115.339 150.359 114.028 149.239 112.345 149.239L45.6373 149.337C44.3914 149.337 43.3204 149.953 42.9926 150.845V150.862Z" fill="#BC6689"/>
<path d="M0 191H520V204.556C520 208.116 512.982 211 504.368 211H15.6317C6.99601 211 0 208.107 0 204.556V191Z" fill="#BC6081"/>
<path d="M57.1996 97.8935L49.1344 119.211C48.7847 120.331 49.9213 121.401 51.4513 121.401H158.528C159.709 121.401 160.736 120.752 160.889 119.876L165.02 98.007C165.217 96.9363 164.102 95.9791 162.637 95.9953L59.4946 96.5469C58.4018 96.5469 57.4401 97.1147 57.1996 97.9097V97.8935Z" fill="#991544"/>
<path d="M133.415 99.2566L130.639 116.259C130.486 117.2 131.47 118.027 132.759 118.027H149.698C150.791 118.027 151.709 117.411 151.818 116.6L154.354 99.4351C154.485 98.4779 153.458 97.6667 152.168 97.6992L135.469 97.8452C134.42 97.8776 133.546 98.4617 133.415 99.2404V99.2566Z" fill="#BC6689"/>
<path d="M59.451 100.311L53.6807 115.626C53.2436 116.843 54.4676 118.043 56.1724 118.043H121.503C122.77 118.043 123.863 117.362 124.06 116.421L127.033 101.009C127.273 99.8407 126.049 98.7861 124.453 98.7861L61.9208 98.8835C60.7624 98.8835 59.7351 99.4675 59.451 100.295V100.311Z" fill="#BC6689"/>
<path d="M73.0895 58.518L65.6363 78.2133C65.3084 79.2354 66.3576 80.2251 67.7783 80.2251H166.725C167.817 80.2251 168.757 79.6248 168.91 78.8136L172.713 58.5991C172.91 57.6095 171.861 56.7334 170.506 56.7334L75.1878 57.2526C74.1823 57.2526 73.2862 57.7717 73.0676 58.5018L73.0895 58.518Z" fill="#991544"/>
<path d="M143.512 59.7675L140.955 75.4881C140.802 76.3642 141.72 77.1267 142.922 77.1267H158.594C159.599 77.1267 160.452 76.5589 160.561 75.7964L162.9 59.946C163.009 59.0699 162.069 58.3074 160.867 58.3399L145.436 58.4697C144.452 58.4859 143.665 59.0375 143.534 59.7513L143.512 59.7675Z" fill="#BC6689"/>
<path d="M75.166 60.7405L69.8329 74.8874C69.4176 76.0069 70.5761 77.1263 72.1279 77.1263H132.497C133.677 77.1263 134.682 76.4936 134.857 75.6337L137.611 61.4057C137.83 60.3187 136.715 59.3453 135.229 59.3615L77.4391 59.4426C76.3681 59.4426 75.4283 59.978 75.1442 60.7568L75.166 60.7405Z" fill="#BC6689"/>
<path d="M87.4714 14.8605L80.499 33.3228C80.193 34.28 81.1766 35.221 82.5098 35.221H175.271C176.298 35.221 177.172 34.6532 177.325 33.8907L180.888 14.9416C181.063 14.0169 180.079 13.1895 178.833 13.1895L89.4822 13.6762C88.5205 13.6762 87.7118 14.1629 87.4932 14.8605H87.4714Z" fill="#991544"/>
<path d="M153.501 16.0445L151.097 30.7754C150.966 31.5866 151.818 32.3167 152.933 32.3167H167.621C168.582 32.3167 169.369 31.7813 169.457 31.0837L171.642 16.2229C171.752 15.3955 170.856 14.6979 169.741 14.7141L155.272 14.8439C154.354 14.8602 153.61 15.3793 153.501 16.0445Z" fill="#BC6689"/>
<path d="M89.4166 16.9526L84.4114 30.2072C84.0179 31.2618 85.0889 32.3001 86.5752 32.3001H143.163C144.256 32.3001 145.195 31.6998 145.37 30.8886L147.949 17.5367C148.168 16.5308 147.097 15.6061 145.72 15.6223L91.5367 15.7034C90.5313 15.7034 89.657 16.2063 89.3947 16.9364L89.4166 16.9526Z" fill="#BC6689"/>
<path d="M472.59 144.714L481.18 167.443C481.573 168.628 480.35 169.779 478.71 169.779H364.486C363.218 169.779 362.147 169.082 361.972 168.157L357.579 144.828C357.361 143.692 358.563 142.67 360.115 142.67L470.142 143.27C471.323 143.27 472.328 143.87 472.59 144.714Z" fill="#5D2784"/>
<path d="M391.305 146.158L394.277 164.296C394.452 165.302 393.381 166.194 392.026 166.194H373.95C372.77 166.194 371.786 165.529 371.677 164.669L368.967 146.369C368.836 145.347 369.928 144.487 371.305 144.519L389.119 144.682C390.234 144.714 391.173 145.347 391.305 146.174V146.158Z" fill="#77519C"/>
<path d="M470.208 147.277L476.371 163.614C476.852 164.912 475.519 166.193 473.705 166.193H404.025C402.67 166.193 401.511 165.463 401.293 164.457L398.124 148.023C397.861 146.774 399.173 145.654 400.856 145.654L467.563 145.752C468.809 145.752 469.88 146.368 470.208 147.26V147.277Z" fill="#77519C"/>
<path d="M456.001 94.3232L464.066 115.641C464.416 116.76 463.279 117.831 461.749 117.831H354.672C353.492 117.831 352.465 117.182 352.312 116.306L348.181 94.4367C347.984 93.366 349.099 92.4088 350.563 92.425L453.706 92.9766C454.799 92.9766 455.761 93.5444 456.001 94.3394V94.3232Z" fill="#5D2784"/>
<path d="M379.786 95.6697L382.562 112.672C382.715 113.613 381.731 114.44 380.442 114.44H363.503C362.41 114.44 361.492 113.824 361.382 113.013L358.847 95.8482C358.716 94.891 359.743 94.0798 361.033 94.1123L377.731 94.2583C378.781 94.2907 379.655 94.8748 379.786 95.6535V95.6697Z" fill="#BC6689"/>
<path d="M379.786 95.6697L382.562 112.672C382.715 113.613 381.731 114.44 380.442 114.44H363.503C362.41 114.44 361.492 113.824 361.382 113.013L358.847 95.8482C358.716 94.891 359.743 94.0798 361.033 94.1123L377.731 94.2583C378.781 94.2907 379.655 94.8748 379.786 95.6535V95.6697Z" fill="#77519C"/>
<path d="M453.75 96.7242L459.52 112.039C459.957 113.256 458.733 114.457 457.028 114.457H391.698C390.43 114.457 389.337 113.775 389.141 112.834L386.168 97.4218C385.928 96.2538 387.152 95.1992 388.747 95.1992L451.28 95.2966C452.438 95.2966 453.466 95.8806 453.75 96.708V96.7242Z" fill="#BC6689"/>
<path d="M453.75 96.7242L459.52 112.039C459.957 113.256 458.733 114.457 457.028 114.457H391.698C390.43 114.457 389.337 113.775 389.141 112.834L386.168 97.4218C385.928 96.2538 387.152 95.1992 388.747 95.1992L451.28 95.2966C452.438 95.2966 453.466 95.8806 453.75 96.708V96.7242Z" fill="#77519C"/>
<path d="M440.111 54.9321L447.564 74.6274C447.892 75.6495 446.843 76.6391 445.422 76.6391H346.476C345.383 76.6391 344.443 76.0389 344.29 75.2277L340.487 55.0132C340.29 54.0235 341.34 53.1475 342.695 53.1475L438.013 53.6666C439.018 53.6666 439.914 54.1858 440.133 54.9158L440.111 54.9321Z" fill="#5D2784"/>
<path d="M369.688 56.1982L372.245 71.9188C372.398 72.7949 371.48 73.5574 370.278 73.5574H354.607C353.601 73.5574 352.749 72.9895 352.64 72.227L350.301 56.3767C350.192 55.5006 351.131 54.7381 352.334 54.7705L367.765 54.9003C368.748 54.9165 369.535 55.4681 369.666 56.182L369.688 56.1982Z" fill="#77519C"/>
<path d="M434.913 57.0989L440.246 71.2458C440.661 72.3653 439.503 73.4847 437.951 73.4847H377.582C376.402 73.4847 375.397 72.852 375.222 71.9921L372.468 57.7641C372.249 56.6771 373.364 55.7037 374.85 55.7199L432.64 55.801C433.711 55.801 434.651 56.3364 434.935 57.1152L434.913 57.0989Z" fill="#77519C"/>
<path d="M425.729 11.2745L432.702 29.7369C433.008 30.6941 432.024 31.6351 430.691 31.6351H337.93C336.903 31.6351 336.028 31.0672 335.875 30.3047L332.313 11.3557C332.138 10.4309 333.121 9.60352 334.367 9.60352L423.718 10.0902C424.68 10.0902 425.489 10.5769 425.707 11.2745H425.729Z" fill="#5D2784"/>
<path d="M359.699 12.4595L362.104 27.1905C362.235 28.0016 361.382 28.7317 360.268 28.7317H345.58C344.618 28.7317 343.831 28.1963 343.744 27.4987L341.558 12.638C341.449 11.8106 342.345 11.113 343.46 11.1292L357.929 11.259C358.847 11.2752 359.59 11.7943 359.699 12.4595Z" fill="#77519C"/>
<path d="M423.784 13.3676L428.789 26.6223C429.183 27.6768 428.112 28.7151 426.625 28.7151H370.038C368.945 28.7151 368.005 28.1148 367.83 27.3037L365.251 13.9517C365.033 12.9458 366.103 12.0211 367.48 12.0373L421.664 12.1184C422.669 12.1184 423.543 12.6214 423.806 13.3514L423.784 13.3676Z" fill="#77519C"/>
<path d="M171.621 190.334L201.193 0H318.958L344.05 190.578L171.621 190.334Z" fill="#8493CE"/>
<path d="M214.792 24.9728L207.82 43.4351C207.514 44.3923 208.498 45.3333 209.831 45.3333H302.592C303.619 45.3333 304.493 44.7655 304.646 44.003L308.209 25.0539C308.384 24.1292 307.4 23.3018 306.154 23.3018L216.803 23.7885C215.842 23.7885 215.033 24.2752 214.814 24.9728H214.792Z" fill="#991544"/>
<path d="M280.822 26.1578L278.418 40.8887C278.287 41.6999 279.139 42.4299 280.254 42.4299H294.942C295.903 42.4299 296.69 41.8946 296.778 41.197L298.963 26.3362C299.073 25.5088 298.177 24.8112 297.062 24.8274L282.593 24.9572C281.675 24.9734 280.931 25.4926 280.822 26.1578Z" fill="#BC6689"/>
<path d="M216.738 27.0659L211.732 40.3205C211.339 41.375 212.41 42.4133 213.896 42.4133H270.484C271.577 42.4133 272.517 41.8131 272.691 41.0019L275.27 27.6499C275.489 26.6441 274.418 25.7193 273.041 25.7356L218.858 25.8167C217.852 25.8167 216.978 26.3196 216.716 27.0497L216.738 27.0659Z" fill="#BC6689"/>
<path d="M213.06 9.96237L206.518 28.5115C206.235 29.4725 207.24 30.4007 208.573 30.3835L301.32 29.1927C302.347 29.1795 303.208 28.6005 303.343 27.8362L306.464 8.84418C306.617 7.91733 305.615 7.10268 304.369 7.11868L215.042 8.75242C214.081 8.76477 213.284 9.26178 213.081 9.96209L213.06 9.96237Z" fill="#991544"/>
<path d="M279.107 10.2984L277.046 25.058C276.934 25.8707 277.803 26.5898 278.918 26.5754L293.604 26.3869C294.565 26.3745 295.339 25.8291 295.411 25.1305L297.25 10.2439C297.34 9.41525 296.427 8.72924 295.313 8.75977L280.849 9.0753C279.932 9.10331 279.201 9.63192 279.107 10.2984Z" fill="#BC6689"/>
<path d="M215.053 12.0297L210.358 25.3466C209.989 26.406 211.084 27.4304 212.57 27.4113L269.149 26.6848C270.242 26.6708 271.167 26.0585 271.323 25.2452L273.591 11.8622C273.786 10.8537 272.694 9.94281 271.317 9.97671L217.144 10.7534C216.139 10.7663 215.276 11.2804 215.031 12.0137L215.053 12.0297Z" fill="#BC6689"/>
<path d="M218.924 16.6495L211.952 35.1119C211.646 36.0691 212.629 37.0101 213.962 37.0101L306.723 37.0101C307.751 37.0101 308.625 36.4422 308.778 35.6797L312.34 16.7307C312.515 15.8059 311.532 14.9785 310.286 14.9785L220.935 15.4652C219.973 15.4652 219.164 15.9519 218.946 16.6495L218.924 16.6495Z" fill="#991544"/>
<path d="M284.954 17.8335L282.549 32.5645C282.418 33.3757 283.271 34.1057 284.385 34.1057H299.073C300.035 34.1057 300.822 33.5703 300.909 32.8727L303.095 18.012C303.204 17.1846 302.308 16.487 301.193 16.5032L286.724 16.633C285.806 16.6492 285.063 17.1684 284.954 17.8335Z" fill="#BC6689"/>
<path d="M220.869 18.7417L215.864 31.9963C215.471 33.0508 216.542 34.0891 218.028 34.0891H274.615C275.708 34.0891 276.648 33.4889 276.823 32.6777L279.402 19.3257C279.621 18.3199 278.55 17.3951 277.173 17.4113L222.989 17.4925C221.984 17.4925 221.11 17.9954 220.847 18.7255L220.869 18.7417Z" fill="#BC6689"/>
<path d="M319.98 126.025L328.57 148.754C328.964 149.938 327.74 151.09 326.1 151.09H211.876C210.608 151.09 209.537 150.392 209.363 149.468L204.969 126.138C204.751 125.003 205.953 123.98 207.505 123.98L317.532 124.581C318.713 124.581 319.718 125.181 319.98 126.025Z" fill="#5D2784"/>
<path d="M238.694 127.468L241.667 145.605C241.842 146.611 240.771 147.504 239.416 147.504H221.34C220.16 147.504 219.176 146.838 219.067 145.979L216.357 127.678C216.225 126.656 217.318 125.797 218.695 125.829L236.509 125.991C237.623 126.024 238.563 126.656 238.694 127.484V127.468Z" fill="#77519C"/>
<path d="M317.598 128.587L323.762 144.924C324.243 146.222 322.909 147.504 321.095 147.504H251.415C250.06 147.504 248.902 146.774 248.683 145.768L245.514 129.333C245.252 128.084 246.563 126.965 248.246 126.965L314.953 127.062C316.199 127.062 317.27 127.679 317.598 128.571V128.587Z" fill="#77519C"/>
<path d="M315.259 148.806L323.848 171.535C324.242 172.719 323.018 173.871 321.378 173.871H207.154C205.886 173.871 204.815 173.174 204.641 172.249L200.247 148.919C200.029 147.784 201.231 146.762 202.783 146.762L312.811 147.362C313.991 147.362 314.996 147.962 315.259 148.806Z" fill="#5D2784"/>
<path d="M233.973 150.25L236.945 168.388C237.12 169.394 236.049 170.286 234.694 170.286H216.618C215.438 170.286 214.455 169.621 214.345 168.761L211.635 150.461C211.504 149.439 212.597 148.579 213.974 148.611L231.787 148.773C232.902 148.806 233.842 149.439 233.973 150.266V150.25Z" fill="#77519C"/>
<path d="M312.876 151.368L319.04 167.706C319.52 169.003 318.187 170.285 316.373 170.285H246.693C245.338 170.285 244.18 169.555 243.961 168.549L240.792 152.115C240.53 150.866 241.841 149.746 243.524 149.746L310.231 149.843C311.477 149.843 312.548 150.46 312.876 151.352V151.368Z" fill="#77519C"/>
<path d="M302.273 132.596L310.863 155.325C311.257 156.509 310.033 157.661 308.393 157.661H194.169C192.901 157.661 191.83 156.964 191.656 156.039L187.262 132.709C187.044 131.574 188.246 130.552 189.798 130.552L299.825 131.152C301.006 131.152 302.011 131.752 302.273 132.596Z" fill="#5D2784"/>
<path d="M220.988 134.04L223.96 152.178C224.135 153.184 223.064 154.076 221.709 154.076H203.633C202.453 154.076 201.469 153.411 201.36 152.551L198.65 134.251C198.519 133.229 199.612 132.369 200.989 132.401L218.802 132.564C219.917 132.596 220.856 133.229 220.988 134.056V134.04Z" fill="#77519C"/>
<path d="M299.891 135.158L306.055 151.496C306.536 152.793 305.202 154.075 303.388 154.075H233.708C232.353 154.075 231.195 153.345 230.976 152.339L227.807 135.905C227.545 134.656 228.856 133.536 230.539 133.536L297.246 133.633C298.492 133.633 299.563 134.25 299.891 135.142V135.158Z" fill="#77519C"/>
<path d="M302.143 132.802L310.732 155.531C311.126 156.715 309.902 157.867 308.262 157.867H194.038C192.771 157.867 191.7 157.17 191.525 156.245L187.131 132.916C186.913 131.78 188.115 130.758 189.667 130.758L299.695 131.358C300.875 131.358 301.88 131.958 302.143 132.802Z" fill="#5D2784"/>
<path d="M220.857 134.246L223.829 152.384C224.004 153.39 222.933 154.282 221.578 154.282H203.502C202.322 154.282 201.338 153.617 201.229 152.757L198.519 134.457C198.388 133.435 199.48 132.575 200.857 132.607L218.671 132.77C219.786 132.802 220.725 133.435 220.857 134.262V134.246Z" fill="#77519C"/>
<path d="M299.76 135.365L305.924 151.702C306.404 153 305.071 154.281 303.257 154.281H233.577C232.222 154.281 231.064 153.551 230.845 152.545L227.676 136.111C227.414 134.862 228.725 133.742 230.408 133.742L297.115 133.84C298.361 133.84 299.432 134.456 299.76 135.348V135.365Z" fill="#77519C"/>
</svg>
