<svg width="531" height="234" viewBox="0 0 531 234" fill="none" xmlns="http://www.w3.org/2000/svg">
<g filter="url(#filter0_d_1012_2761)">
<path d="M516.179 198H16.3215C11.0353 198 6.75 200.868 6.75 204.406V219.594C6.75 223.132 11.0353 226 16.3215 226H516.179C521.465 226 525.75 223.132 525.75 219.594V204.406C525.75 200.868 521.465 198 516.179 198Z" fill="#FFD699"/>
<path d="M108.737 20H165.383L111.706 202.819H5.8623L108.737 20Z" fill="#F39D4D"/>
<path d="M81.6079 68.2228H151.222L159.251 40.8779H96.982L81.6079 68.2228Z" fill="#84A3D2"/>
<path d="M46.116 131.287H132.703L141.892 97.3125H65.2325L46.116 131.287Z" fill="#84A3D2"/>
<path d="M5.8623 202.818H111.706L121.949 167.925H25.5059L5.8623 202.818Z" fill="#84A3D2"/>
<path d="M422.613 20H365.966L419.644 202.819H525.47L422.613 20Z" fill="#F39D4D"/>
<path d="M449.741 68.2228H380.11L372.081 40.8779H434.35L449.741 68.2228Z" fill="#84A3D2"/>
<path d="M485.234 131.287H398.629L389.458 97.3125H466.117L485.234 131.287Z" fill="#84A3D2"/>
<path d="M525.47 202.818H419.644L409.4 167.925H505.844L525.47 202.818Z" fill="#84A3D2"/>
<path d="M111.706 202.818H219.149L223.822 167.925H121.95L111.706 202.818Z" fill="#F39D4D"/>
<path d="M419.644 202.818H312.201L307.527 167.925H409.4L419.644 202.818Z" fill="#F39D4D"/>
<path d="M223.822 167.925H307.527L312.201 202.818H219.148L223.822 167.925Z" fill="#84A3D2"/>
<path d="M159.251 40.878H231.887L236.385 20H165.383" fill="#84A3D2"/>
<path d="M372 41H298.549L294 20H365.799" fill="#84A3D2"/>
<path d="M236.385 20H294.279L298.777 40.878H231.887L236.385 20Z" fill="#F39D4D"/>
<path d="M122 168H410L371.94 40H159.373L122 168Z" fill="#B5A997"/>
<g filter="url(#filter1_d_1012_2761)">
<path d="M188.225 134.45L192.336 118.553C192.512 117.875 192.266 117.165 191.704 116.676L178.421 105.527C177.858 105.053 177.05 104.88 176.295 105.085L158.9 109.832C158.162 110.037 157.582 110.573 157.407 111.251L153.295 127.148C153.119 127.826 153.365 128.536 153.928 129.025L167.211 140.175C167.773 140.648 168.581 140.821 169.337 140.616L186.731 135.869" fill="#ECE5C3"/>
<path d="M158.847 112.008C160.394 113.238 161.94 114.468 163.468 115.699C165.928 117.654 168.388 119.626 170.848 121.581C171.41 122.038 171.972 122.48 172.552 122.937C173.255 123.505 174.257 122.543 173.554 121.975C172.008 120.745 170.461 119.515 168.933 118.285C166.473 116.329 164.013 114.358 161.553 112.403L159.849 111.046C159.146 110.478 158.145 111.44 158.847 112.008Z" fill="#FCF8DF"/>
<path d="M188.91 117.97C184.201 119.09 179.51 120.225 174.801 121.345L172.833 121.818C171.92 122.039 172.341 123.301 173.255 123.08C177.964 121.96 182.655 120.825 187.364 119.705L189.332 119.232C190.246 119.011 189.824 117.749 188.91 117.97Z" fill="#FCF8DF"/>
<path d="M169.196 139.843C169.706 137.904 170.233 135.98 170.743 134.04C171.568 130.933 172.394 127.842 173.22 124.735L173.782 122.606C173.993 121.786 172.57 121.486 172.359 122.322C171.85 124.262 171.322 126.186 170.813 128.126C169.987 131.233 169.161 134.324 168.335 137.431C168.142 138.14 167.966 138.85 167.773 139.56C167.562 140.38 168.986 140.679 169.196 139.843Z" fill="#FCF8DF"/>
<path d="M168.3 112.415C168.552 111.746 167.615 110.859 166.209 110.433C164.802 110.006 163.458 110.202 163.206 110.871C162.955 111.539 163.891 112.427 165.298 112.853C166.705 113.279 168.049 113.083 168.3 112.415Z" fill="#47250D"/>
<path d="M177.929 109.512C178.18 108.844 177.244 107.957 175.837 107.53C174.43 107.104 173.086 107.3 172.835 107.968C172.583 108.637 173.52 109.524 174.926 109.951C176.333 110.377 177.677 110.181 177.929 109.512Z" fill="#47250D"/>
<path d="M185.948 115.452C186.199 114.784 185.263 113.896 183.856 113.47C182.449 113.043 181.105 113.239 180.854 113.908C180.602 114.576 181.539 115.464 182.945 115.89C184.352 116.317 185.696 116.12 185.948 115.452Z" fill="#47250D"/>
<path d="M175.52 118.091C175.771 117.422 174.835 116.535 173.428 116.108C172.021 115.682 170.677 115.878 170.426 116.547C170.174 117.215 171.111 118.102 172.517 118.529C173.924 118.955 175.268 118.759 175.52 118.091Z" fill="#47250D"/>
<path d="M162.611 127.416C163.275 127.039 163.17 125.82 162.376 124.694C161.582 123.568 160.4 122.96 159.736 123.338C159.072 123.715 159.177 124.933 159.971 126.06C160.765 127.186 161.946 127.793 162.611 127.416Z" fill="#47250D"/>
<path d="M178.523 127.051C179.537 126.078 179.739 124.768 178.973 124.126C178.208 123.483 176.765 123.751 175.751 124.724C174.737 125.697 174.535 127.007 175.3 127.65C176.066 128.293 177.508 128.025 178.523 127.051Z" fill="#47250D"/>
<path d="M185.83 133.786C186.758 132.896 186.947 131.701 186.253 131.118C185.558 130.535 184.243 130.784 183.315 131.675C182.387 132.565 182.197 133.76 182.892 134.343C183.586 134.926 184.902 134.677 185.83 133.786Z" fill="#47250D"/>
</g>
<g filter="url(#filter2_d_1012_2761)">
<path d="M219.307 137.614L217.321 121.999C217.233 121.331 216.741 120.754 216.039 120.48L199.4 114.161C198.679 113.888 197.871 113.964 197.238 114.374L182.585 123.67C181.952 124.065 181.618 124.718 181.706 125.386L183.692 141.001C183.78 141.669 184.272 142.246 184.974 142.52L201.613 148.839C202.334 149.112 203.142 149.036 203.775 148.626L218.428 139.33" fill="#ECE5C3"/>
<path d="M183.305 125.66C185.22 126.328 187.118 127.012 189.033 127.68C192.073 128.759 195.13 129.837 198.17 130.9C198.872 131.143 199.575 131.401 200.278 131.645C201.157 131.948 201.736 130.794 200.875 130.49C198.96 129.822 197.063 129.138 195.148 128.47C192.108 127.392 189.051 126.313 186.011 125.25C185.308 125.007 184.605 124.749 183.902 124.506C183.024 124.202 182.444 125.356 183.305 125.66Z" fill="#FCF8DF"/>
<path d="M213.877 122.44C209.854 124.809 205.848 127.179 201.824 129.548L200.137 130.536C199.364 130.991 200.225 132.024 200.998 131.568C205.022 129.199 209.028 126.829 213.052 124.46C213.614 124.126 214.176 123.792 214.738 123.473C215.511 123.017 214.65 121.984 213.877 122.44Z" fill="#FCF8DF"/>
<path d="M203.353 147.973C203.125 146.074 202.896 144.16 202.668 142.261L201.561 133.102C201.473 132.403 201.385 131.705 201.315 131.006C201.209 130.201 199.751 130.338 199.857 131.158C200.085 133.057 200.313 134.97 200.542 136.869C200.911 139.922 201.28 142.975 201.649 146.028C201.737 146.727 201.824 147.426 201.895 148.124C202 148.929 203.458 148.793 203.353 147.973Z" fill="#FCF8DF"/>
<path d="M189.7 124.545C191.185 124.529 192.38 123.965 192.37 123.285C192.36 122.606 191.149 122.068 189.664 122.085C188.18 122.101 186.984 122.665 186.994 123.344C187.004 124.024 188.216 124.561 189.7 124.545Z" fill="#47250D"/>
<path d="M197.685 119.141C199.17 119.124 200.365 118.56 200.355 117.881C200.345 117.202 199.133 116.664 197.649 116.68C196.164 116.697 194.969 117.261 194.979 117.94C194.989 118.62 196.2 119.157 197.685 119.141Z" fill="#47250D"/>
<path d="M207.464 122.238C208.948 122.222 210.144 121.658 210.134 120.979C210.124 120.299 208.912 119.762 207.428 119.778C205.943 119.794 204.748 120.358 204.758 121.038C204.768 121.717 205.979 122.255 207.464 122.238Z" fill="#47250D"/>
<path d="M198.601 127.637C200.085 127.621 201.281 127.057 201.271 126.377C201.261 125.698 200.049 125.16 198.565 125.176C197.08 125.193 195.885 125.757 195.895 126.436C195.905 127.116 197.116 127.653 198.601 127.637Z" fill="#47250D"/>
<path d="M192.544 138.544C193.031 138.011 192.481 136.934 191.316 136.139C190.151 135.343 188.811 135.131 188.324 135.664C187.837 136.198 188.387 137.275 189.552 138.07C190.718 138.865 192.057 139.078 192.544 138.544Z" fill="#47250D"/>
<path d="M207.436 133.676C208.033 132.501 207.739 131.253 206.78 130.888C205.82 130.524 204.558 131.181 203.961 132.357C203.364 133.532 203.658 134.78 204.618 135.144C205.577 135.508 206.839 134.851 207.436 133.676Z" fill="#47250D"/>
<path d="M216.811 137.695C217.357 136.62 217.094 135.48 216.224 135.15C215.353 134.819 214.204 135.423 213.658 136.498C213.112 137.574 213.375 138.713 214.245 139.044C215.116 139.374 216.265 138.771 216.811 137.695Z" fill="#47250D"/>
</g>
<path d="M309.716 83.324C310.319 81.1833 305.14 78.7478 298.148 77.8841C291.156 77.0203 284.998 78.0555 284.395 80.1962C283.791 82.3369 288.97 84.7725 295.963 85.6362C302.955 86.4999 309.112 85.4647 309.716 83.324Z" fill="white"/>
<path d="M346.288 101.174C346.288 111.816 310.093 120.458 265.429 120.458C220.765 120.458 184.57 111.828 184.57 101.174C184.57 90.5197 220.765 77.4463 265.429 77.4463C310.093 77.4463 346.288 90.5314 346.288 101.174Z" fill="#47250D"/>
<path d="M338 94.0335C338 106.165 305.321 116 265 116C224.679 116 192 106.165 192 94.0335C192 81.9024 224.679 67 265 67C305.321 67 338 81.9024 338 94.0335Z" fill="url(#paint0_linear_1012_2761)"/>
<path d="M315.211 85.0226C315.934 82.4582 310.851 79.6792 303.859 78.8154C296.867 77.9517 290.613 79.3304 289.89 81.8948C289.167 84.4592 294.249 87.2383 301.241 88.102C308.234 88.9657 314.488 87.5871 315.211 85.0226Z" fill="white"/>
<path d="M7.99999 203C5.79085 203 4 204.791 4 207V222C4 224.209 5.79086 226 8 226H523C525.209 226 527 224.209 527 222V207C527 204.791 525.209 203 523 203H7.99999Z" fill="#CE5151"/>
<g filter="url(#filter3_i_1012_2761)">
<path d="M78.02 122.83C85.763 122.83 92.04 121.611 92.04 120.107C92.04 118.604 85.763 117.385 78.02 117.385C70.277 117.385 64 118.604 64 120.107C64 121.611 70.277 122.83 78.02 122.83Z" fill="#47250D"/>
<path d="M88.7754 118.466L82.7497 97.9838C84.6771 96.7487 85.9153 94.8584 85.9153 92.7388C85.9153 89.0172 82.1141 86 77.4257 86C72.7372 86 68.9361 89.0172 68.9361 92.7388C68.9361 95.0091 70.3558 97.0141 72.5267 98.236L67.4297 118.538C67.0789 119.933 68.4243 121.234 70.2155 121.234H86.0061C87.8344 121.234 89.1881 119.881 88.7713 118.466H88.7754Z" fill="#43559D"/>
<path d="M77.3885 99.591C75.6427 99.591 73.8557 99.0078 72.5309 98.2314L72.2874 99.2077L74.029 99.6892C76.3567 100.331 78.8867 100.246 81.1443 99.4501L83.0263 98.8964L82.758 97.9824C81.3506 98.9423 79.3613 99.591 77.3927 99.591H77.3885Z" fill="#47250D"/>
<path d="M83.7788 93.6725C84.6767 93.343 84.6774 91.827 83.7802 90.2865C82.8831 88.746 81.4279 87.7643 80.5299 88.0938C79.632 88.4233 79.6313 89.9392 80.5285 91.4797C81.4256 93.0202 82.8808 94.002 83.7788 93.6725Z" fill="white"/>
</g>
<g filter="url(#filter4_i_1012_2761)">
<path d="M112.02 125.83C119.763 125.83 126.04 124.611 126.04 123.108C126.04 121.605 119.763 120.386 112.02 120.386C104.277 120.386 98 121.605 98 123.108C98 124.611 104.277 125.83 112.02 125.83Z" fill="#47250D"/>
<path d="M122.775 121.464L116.75 100.983C118.677 99.7481 119.915 97.858 119.915 95.7385C119.915 92.0171 116.114 89 111.426 89C106.737 89 102.936 92.0171 102.936 95.7385C102.936 98.0087 104.356 100.013 106.527 101.235L101.43 121.536C101.079 122.932 102.424 124.232 104.216 124.232H120.006C121.834 124.232 123.188 122.879 122.771 121.464H122.775Z" fill="#5C8659"/>
<path d="M111.388 102.596C109.643 102.596 107.855 102.013 106.531 101.236L106.287 102.212L108.029 102.694C110.357 103.336 112.886 103.251 115.144 102.455L117.026 101.901L116.758 100.987C115.35 101.947 113.361 102.596 111.392 102.596H111.388Z" fill="#47250D"/>
<path d="M117.785 96.6761C118.683 96.3466 118.684 94.8308 117.787 93.2904C116.89 91.7499 115.434 90.7683 114.537 91.0978C113.639 91.4272 113.638 92.9431 114.535 94.4835C115.432 96.0239 116.887 97.0056 117.785 96.6761Z" fill="white"/>
</g>
</g>
<g filter="url(#filter5_i_1012_2761)">
<path d="M127.019 36.8292C134.762 36.8292 141.038 35.6104 141.038 34.107C141.038 32.6035 134.762 31.3848 127.019 31.3848C119.277 31.3848 113 32.6035 113 34.107C113 35.6104 119.277 36.8292 127.019 36.8292Z" fill="#47250D"/>
<path d="M137.774 32.4633L131.749 11.9829C133.676 10.7479 134.914 8.8578 134.914 6.73835C134.914 3.01702 131.113 0 126.425 0C121.737 0 117.936 3.01702 117.936 6.73835C117.936 9.00849 119.355 11.0133 121.526 12.2352L116.429 32.5354C116.079 33.9309 117.424 35.2314 119.215 35.2314H135.005C136.833 35.2314 138.187 33.8785 137.77 32.4633H137.774Z" fill="#C6400C"/>
<path d="M126.388 13.5952C124.642 13.5952 122.855 13.0121 121.53 12.2358L121.287 13.212L123.028 13.6935C125.356 14.3356 127.886 14.2504 130.143 13.4544L132.025 12.9008L131.757 11.9868C130.349 12.9466 128.36 13.5952 126.392 13.5952H126.388Z" fill="#47250D"/>
<path d="M132.786 7.67503C133.684 7.34556 133.685 5.82974 132.788 4.28935C131.891 2.74897 130.436 1.76733 129.538 2.0968C128.64 2.42627 128.639 3.94209 129.536 5.48247C130.433 7.02286 131.888 8.0045 132.786 7.67503Z" fill="white"/>
</g>
<defs>
<filter id="filter0_d_1012_2761" x="0" y="19" width="532" height="215" filterUnits="userSpaceOnUse" color-interpolation-filters="sRGB">
<feFlood flood-opacity="0" result="BackgroundImageFix"/>
<feColorMatrix in="SourceAlpha" type="matrix" values="0 0 0 0 0 0 0 0 0 0 0 0 0 0 0 0 0 0 127 0" result="hardAlpha"/>
<feOffset dy="4"/>
<feGaussianBlur stdDeviation="2"/>
<feColorMatrix type="matrix" values="0 0 0 0 0.682353 0 0 0 0 0.447059 0 0 0 0 0.517647 0 0 0 1 0"/>
<feBlend mode="normal" in2="BackgroundImageFix" result="effect1_dropShadow_1012_2761"/>
<feBlend mode="normal" in="SourceGraphic" in2="effect1_dropShadow_1012_2761" result="shape"/>
</filter>
<filter id="filter1_d_1012_2761" x="149.239" y="103" width="47.1531" height="43.7012" filterUnits="userSpaceOnUse" color-interpolation-filters="sRGB">
<feFlood flood-opacity="0" result="BackgroundImageFix"/>
<feColorMatrix in="SourceAlpha" type="matrix" values="0 0 0 0 0 0 0 0 0 0 0 0 0 0 0 0 0 0 127 0" result="hardAlpha"/>
<feOffset dy="2"/>
<feGaussianBlur stdDeviation="2"/>
<feComposite in2="hardAlpha" operator="out"/>
<feColorMatrix type="matrix" values="0 0 0 0 0.486275 0 0 0 0 0.266667 0 0 0 0 0.333333 0 0 0 0.5 0"/>
<feBlend mode="normal" in2="BackgroundImageFix" result="effect1_dropShadow_1012_2761"/>
<feBlend mode="normal" in="SourceGraphic" in2="effect1_dropShadow_1012_2761" result="shape"/>
</filter>
<filter id="filter2_d_1012_2761" x="174.692" y="109" width="51.6143" height="49" filterUnits="userSpaceOnUse" color-interpolation-filters="sRGB">
<feFlood flood-opacity="0" result="BackgroundImageFix"/>
<feColorMatrix in="SourceAlpha" type="matrix" values="0 0 0 0 0 0 0 0 0 0 0 0 0 0 0 0 0 0 127 0" result="hardAlpha"/>
<feOffset dy="2"/>
<feGaussianBlur stdDeviation="3.5"/>
<feComposite in2="hardAlpha" operator="out"/>
<feColorMatrix type="matrix" values="0 0 0 0 0.486275 0 0 0 0 0.266667 0 0 0 0 0.333333 0 0 0 0.5 0"/>
<feBlend mode="normal" in2="BackgroundImageFix" result="effect1_dropShadow_1012_2761"/>
<feBlend mode="normal" in="SourceGraphic" in2="effect1_dropShadow_1012_2761" result="shape"/>
</filter>
<filter id="filter3_i_1012_2761" x="64" y="86" width="28.04" height="37.8291" filterUnits="userSpaceOnUse" color-interpolation-filters="sRGB">
<feFlood flood-opacity="0" result="BackgroundImageFix"/>
<feBlend mode="normal" in="SourceGraphic" in2="BackgroundImageFix" result="shape"/>
<feColorMatrix in="SourceAlpha" type="matrix" values="0 0 0 0 0 0 0 0 0 0 0 0 0 0 0 0 0 0 127 0" result="hardAlpha"/>
<feOffset dy="1"/>
<feGaussianBlur stdDeviation="2"/>
<feComposite in2="hardAlpha" operator="arithmetic" k2="-1" k3="1"/>
<feColorMatrix type="matrix" values="0 0 0 0 0.244444 0 0 0 0 0.00950615 0 0 0 0 0.236613 0 0 0 0.4 0"/>
<feBlend mode="normal" in2="shape" result="effect1_innerShadow_1012_2761"/>
</filter>
<filter id="filter4_i_1012_2761" x="98" y="89" width="28.04" height="37.8301" filterUnits="userSpaceOnUse" color-interpolation-filters="sRGB">
<feFlood flood-opacity="0" result="BackgroundImageFix"/>
<feBlend mode="normal" in="SourceGraphic" in2="BackgroundImageFix" result="shape"/>
<feColorMatrix in="SourceAlpha" type="matrix" values="0 0 0 0 0 0 0 0 0 0 0 0 0 0 0 0 0 0 127 0" result="hardAlpha"/>
<feOffset dy="1"/>
<feGaussianBlur stdDeviation="2"/>
<feComposite in2="hardAlpha" operator="arithmetic" k2="-1" k3="1"/>
<feColorMatrix type="matrix" values="0 0 0 0 0.243137 0 0 0 0 0.00784314 0 0 0 0 0.235294 0 0 0 0.4 0"/>
<feBlend mode="normal" in2="shape" result="effect1_innerShadow_1012_2761"/>
</filter>
<filter id="filter5_i_1012_2761" x="113" y="0" width="28.0383" height="37.8291" filterUnits="userSpaceOnUse" color-interpolation-filters="sRGB">
<feFlood flood-opacity="0" result="BackgroundImageFix"/>
<feBlend mode="normal" in="SourceGraphic" in2="BackgroundImageFix" result="shape"/>
<feColorMatrix in="SourceAlpha" type="matrix" values="0 0 0 0 0 0 0 0 0 0 0 0 0 0 0 0 0 0 127 0" result="hardAlpha"/>
<feOffset dy="1"/>
<feGaussianBlur stdDeviation="2"/>
<feComposite in2="hardAlpha" operator="arithmetic" k2="-1" k3="1"/>
<feColorMatrix type="matrix" values="0 0 0 0 0.243137 0 0 0 0 0.00784314 0 0 0 0 0.235294 0 0 0 0.4 0"/>
<feBlend mode="normal" in2="shape" result="effect1_innerShadow_1012_2761"/>
</filter>
<linearGradient id="paint0_linear_1012_2761" x1="297.881" y1="66.7235" x2="196.839" y2="153.757" gradientUnits="userSpaceOnUse">
<stop stop-color="#6DA1EF"/>
<stop offset="1" stop-color="#D03D3D"/>
</linearGradient>
</defs>
</svg>
