<svg width="197" height="58" viewBox="0 0 197 58" fill="none" xmlns="http://www.w3.org/2000/svg">
<rect width="197" height="58" rx="29" fill="#C85875"/>
<path d="M184.435 8.30697C189.694 13.1948 192.83 19.7061 191.453 22.868C190.077 26.0299 187.197 18.907 181.937 14.0315C176.678 9.14362 171.045 8.35697 172.421 5.19508C173.798 2.03318 179.184 3.43204 184.435 8.30697Z" fill="white"/>
<path d="M39.5634 26C39.1794 26 38.9874 25.808 38.9874 25.16C38.9874 24.512 39.5394 24.152 39.8754 23.096L43.5954 11.768C43.7154 10.976 43.2354 10.616 43.2354 10.04C43.2354 9.416 43.4514 9.2 43.8354 9.2H46.6434C47.5554 9.2 48.1554 9.632 48.4434 10.376C48.6354 10.856 51.5394 19.16 52.9074 23.096C53.3154 24.2 53.8434 24.512 53.8434 25.16C53.8434 25.808 53.6274 26 53.2434 26H47.2674C46.8594 26 46.6674 25.808 46.6674 25.16C46.6674 24.512 47.6034 24.176 47.2674 23.096L47.0034 22.184H43.1874L42.9234 23.096C42.6114 24.176 43.4034 24.512 43.4034 25.16C43.4034 25.808 43.1874 26 42.8034 26H39.5634ZM43.8834 19.904H46.2834L45.0594 15.896L43.8834 19.904ZM55.1611 26C54.7531 26 54.5611 25.784 54.5611 25.16C54.5611 24.512 55.1851 24.152 55.1851 23.096V12.104C55.1851 11.048 54.5611 10.928 54.5611 10.28C54.5611 9.656 54.8491 9.512 55.4491 9.416C56.0971 9.296 58.0651 8.96 58.9051 8.84C59.7451 8.72 60.0331 9.08 60.0331 9.752V23.096C60.0331 24.152 60.6811 24.512 60.6811 25.16C60.6811 25.784 60.4651 26 60.0811 26H55.1611ZM67.2609 26.288C63.5169 26.288 61.2849 23.888 61.2849 20.288C61.2849 16.568 63.8049 13.472 67.4529 13.472C70.8129 13.472 72.2289 16.088 72.2289 18.344C72.2289 19.376 71.7969 20.096 70.3329 20.096H66.2289C66.4929 21.536 67.2609 22.496 68.8929 22.496C70.4289 22.496 71.1489 21.248 71.8449 21.824C72.7329 22.568 71.6769 26.288 67.2609 26.288ZM66.1329 18.032L68.0049 17.888C68.1249 16.688 67.9569 15.728 67.2849 15.728C66.6609 15.728 66.2529 16.664 66.1329 18.032ZM76.3648 26.288C74.0128 26.288 72.8368 24.872 72.8368 22.712C72.8368 19.832 75.5248 18.896 78.9328 18.824V17.144C78.9328 16.088 78.7648 15.728 78.2848 15.728C77.8528 15.728 77.5648 16.232 77.3008 16.976C77.1088 17.624 76.8448 18.176 75.7888 18.176C74.6368 18.176 73.5808 17.384 73.5808 16.376C73.5808 14.72 75.5728 13.472 78.3088 13.472C83.4688 13.472 83.7088 16.856 83.7088 18.008V22.472C83.7088 23.672 84.1888 23.288 84.4768 23.648C85.1008 24.416 84.3088 26.288 81.9328 26.288C80.5648 26.288 79.7968 25.616 79.4128 24.632C78.9808 25.544 78.0928 26.288 76.3648 26.288ZM77.3968 22.232C77.3968 22.808 77.6128 23.336 78.1168 23.336C78.6448 23.336 78.9328 22.76 78.9328 21.968V20.84C77.8048 20.888 77.3968 21.392 77.3968 22.232ZM89.9861 26.288C87.4901 26.288 86.1461 24.56 86.1461 22.112V16.136H85.8341C85.0661 16.136 84.6821 15.632 84.6821 14.936C84.6821 14.24 85.0661 13.736 85.8341 13.736H86.1461C87.3221 13.736 87.8501 13.448 88.3541 11.816C88.6661 10.784 90.9941 10.856 90.9941 12.032V13.736H91.8581C92.6261 13.736 93.0341 14.24 93.0341 14.936C93.0341 15.632 92.6261 16.136 91.8581 16.136H90.9941V21.56C90.9941 22.328 91.1381 22.712 91.7141 22.712C92.2901 22.712 92.9141 22.136 93.4661 22.52C94.3301 23.144 93.5861 26.288 89.9861 26.288ZM100.336 26.288C96.3997 26.288 94.1677 23.456 94.1677 19.88C94.1677 16.304 96.3997 13.472 100.336 13.472C104.296 13.472 106.528 16.304 106.528 19.88C106.528 23.456 104.296 26.288 100.336 26.288ZM98.9437 19.88C98.9437 22.16 99.4237 23.672 100.336 23.672C101.272 23.672 101.752 22.16 101.752 19.88C101.752 17.6 101.272 16.088 100.336 16.088C99.4237 16.088 98.9437 17.6 98.9437 19.88ZM107.731 26C107.347 26 107.131 25.784 107.131 25.16C107.131 24.512 107.755 24.152 107.755 23.096V16.76C107.755 15.704 107.131 15.584 107.131 14.936C107.131 14.312 107.443 14.168 108.019 14.072C108.691 13.952 110.467 13.616 111.307 13.496C112.147 13.376 112.435 13.736 112.435 14.408V14.744C112.939 14 113.635 13.472 114.739 13.472C116.347 13.472 117.235 14.6 117.235 15.992C117.235 17.192 116.779 19.232 115.219 19.232C114.427 19.232 114.091 18.68 113.899 18.128C113.731 17.696 113.515 17.336 113.155 17.336C112.699 17.336 112.531 17.744 112.531 18.632V23.096C112.531 24.152 113.155 24.512 113.155 25.16C113.155 25.784 112.963 26 112.555 26H107.731ZM118.56 26C118.176 26 117.96 25.784 117.96 25.16C117.96 24.512 118.584 24.152 118.584 23.096V16.76C118.584 15.704 117.96 15.584 117.96 14.936C117.96 14.312 118.272 14.168 118.848 14.072C119.52 13.928 121.488 13.616 122.328 13.496C123.144 13.376 123.456 13.736 123.456 14.408V23.096C123.456 24.152 124.08 24.512 124.08 25.16C124.08 25.784 123.888 26 123.48 26H118.56ZM118.2 10.112C118.2 8.672 119.448 7.496 120.984 7.496C122.52 7.496 123.768 8.672 123.768 10.112C123.768 11.552 122.52 12.728 120.984 12.728C119.448 12.728 118.2 11.552 118.2 10.112ZM125.547 26C124.779 26 124.611 25.232 124.899 24.608C125.139 24.152 127.611 19.184 129.123 16.136H128.667C127.179 16.136 127.011 18.44 125.475 18.44C124.851 18.44 124.563 17.912 124.731 17.312C124.923 16.496 125.043 15.656 125.331 14.456C125.475 13.928 125.691 13.736 126.123 13.736H133.995C134.787 13.736 134.979 14.576 134.667 15.2C134.427 15.656 131.883 20.576 130.323 23.624L131.331 23.6C132.795 23.6 132.987 21.32 134.499 21.32C135.123 21.32 135.411 21.848 135.267 22.424C135.075 23.24 134.931 24.104 134.643 25.304C134.523 25.832 134.307 26 133.875 26H125.547ZM139.435 26.288C137.083 26.288 135.907 24.872 135.907 22.712C135.907 19.832 138.595 18.896 142.003 18.824V17.144C142.003 16.088 141.835 15.728 141.355 15.728C140.923 15.728 140.635 16.232 140.371 16.976C140.179 17.624 139.915 18.176 138.859 18.176C137.707 18.176 136.651 17.384 136.651 16.376C136.651 14.72 138.643 13.472 141.379 13.472C146.539 13.472 146.779 16.856 146.779 18.008V22.472C146.779 23.672 147.259 23.288 147.547 23.648C148.171 24.416 147.379 26.288 145.003 26.288C143.635 26.288 142.867 25.616 142.483 24.632C142.051 25.544 141.163 26.288 139.435 26.288ZM140.467 22.232C140.467 22.808 140.683 23.336 141.187 23.336C141.715 23.336 142.003 22.76 142.003 21.968V20.84C140.875 20.888 140.467 21.392 140.467 22.232ZM149.075 26C148.691 26 148.475 25.784 148.475 25.16C148.475 24.512 149.099 24.152 149.099 23.096V16.76C149.099 15.704 148.475 15.584 148.475 14.936C148.475 14.312 148.787 14.168 149.363 14.072C150.035 13.952 151.811 13.616 152.651 13.496C153.491 13.376 153.779 13.736 153.779 14.408V14.744C154.283 14 154.979 13.472 156.083 13.472C157.691 13.472 158.579 14.6 158.579 15.992C158.579 17.192 158.123 19.232 156.563 19.232C155.771 19.232 155.435 18.68 155.243 18.128C155.075 17.696 154.859 17.336 154.499 17.336C154.043 17.336 153.875 17.744 153.875 18.632V23.096C153.875 24.152 154.499 24.512 154.499 25.16C154.499 25.784 154.307 26 153.899 26H149.075ZM41.4268 48C41.0188 48 40.8268 47.784 40.8268 47.16C40.8268 46.512 41.4508 46.152 41.4508 45.096V38.76C41.4508 37.704 40.8268 37.584 40.8268 36.936C40.8268 36.312 41.1388 36.168 41.7148 36.072C42.3628 35.928 44.3548 35.616 45.1708 35.496C46.0108 35.376 46.3228 35.736 46.3228 36.408V36.696C46.9708 36 47.9788 35.472 49.4428 35.472C51.9388 35.472 53.4028 37.104 53.4028 39.864V45.096C53.4028 46.152 54.0268 46.512 54.0268 47.16C54.0268 47.784 53.8348 48 53.4268 48H48.5068C48.1228 48 47.9068 47.784 47.9068 47.16C47.9068 46.512 48.5548 46.152 48.5548 45.096V40.728C48.5548 39.528 48.1948 38.976 47.4268 38.976C46.7068 38.976 46.3468 39.624 46.3228 40.872V45.096C46.3228 46.152 46.9468 46.512 46.9468 47.16C46.9468 47.784 46.7308 48 46.3468 48H41.4268ZM60.7966 48.288C56.8606 48.288 54.6286 45.456 54.6286 41.88C54.6286 38.304 56.8606 35.472 60.7966 35.472C64.7566 35.472 66.9886 38.304 66.9886 41.88C66.9886 45.456 64.7566 48.288 60.7966 48.288ZM59.4046 41.88C59.4046 44.16 59.8846 45.672 60.7966 45.672C61.7326 45.672 62.2126 44.16 62.2126 41.88C62.2126 39.6 61.7326 38.088 60.7966 38.088C59.8846 38.088 59.4046 39.6 59.4046 41.88ZM72.6988 48C71.9548 48 71.3308 47.688 71.0428 47.016C70.8748 46.68 68.8348 41.424 67.7548 38.664C67.3468 37.632 66.7468 37.224 66.7468 36.576C66.7468 35.952 66.9388 35.736 67.3468 35.736H72.4348C72.8428 35.736 73.0348 35.952 73.0348 36.576C73.0348 37.224 72.3388 37.656 72.6748 38.664L74.0668 42.72L75.4108 38.664C75.7468 37.56 75.0268 37.224 75.0268 36.576C75.0268 35.952 75.2428 35.736 75.6268 35.736H78.4588C78.8668 35.736 79.0588 35.952 79.0588 36.576C79.0588 37.224 78.3148 37.584 77.9068 38.664L74.7628 46.992C74.5708 47.544 74.0668 48 73.1548 48H72.6988ZM82.1069 48.288C79.7549 48.288 78.5789 46.872 78.5789 44.712C78.5789 41.832 81.2669 40.896 84.6749 40.824V39.144C84.6749 38.088 84.5069 37.728 84.0269 37.728C83.5949 37.728 83.3069 38.232 83.0429 38.976C82.8509 39.624 82.5869 40.176 81.5309 40.176C80.3789 40.176 79.3229 39.384 79.3229 38.376C79.3229 36.72 81.3149 35.472 84.0509 35.472C89.2109 35.472 89.4509 38.856 89.4509 40.008V44.472C89.4509 45.672 89.9309 45.288 90.2189 45.648C90.8429 46.416 90.0509 48.288 87.6749 48.288C86.3069 48.288 85.5389 47.616 85.1549 46.632C84.7229 47.544 83.8349 48.288 82.1069 48.288ZM83.1389 44.232C83.1389 44.808 83.3549 45.336 83.8589 45.336C84.3869 45.336 84.6749 44.76 84.6749 43.968V42.84C83.5469 42.888 83.1389 43.392 83.1389 44.232ZM91.7471 48C91.3631 48 91.1471 47.784 91.1471 47.16C91.1471 46.512 91.7711 46.152 91.7711 45.096V38.76C91.7711 37.704 91.1471 37.584 91.1471 36.936C91.1471 36.312 91.4591 36.168 92.0351 36.072C92.7071 35.928 94.6751 35.616 95.5151 35.496C96.3311 35.376 96.6431 35.736 96.6431 36.408V36.744C97.3151 36.024 98.2991 35.472 99.7631 35.472C101.299 35.472 102.331 36.144 102.883 37.32C103.531 36.336 104.611 35.472 106.435 35.472C108.859 35.472 110.059 37.104 110.059 39.864V45.096C110.059 46.152 110.707 46.512 110.707 47.16C110.707 47.784 110.491 48 110.107 48H105.187C104.779 48 104.587 47.784 104.587 47.16C104.587 46.512 105.211 46.152 105.211 45.096V40.728C105.211 39.528 104.947 38.976 104.275 38.976C103.651 38.976 103.387 39.6 103.363 40.824V45.096C103.363 46.152 103.987 46.512 103.987 47.16C103.987 47.784 103.771 48 103.387 48H98.4671C98.0591 48 97.8671 47.784 97.8671 47.16C97.8671 46.512 98.4911 46.152 98.4911 45.096V40.728C98.4911 39.528 98.2271 38.976 97.5551 38.976C96.9311 38.976 96.6671 39.6 96.6431 40.824V45.096C96.6431 46.152 97.2671 46.512 97.2671 47.16C97.2671 47.784 97.0751 48 96.6671 48H91.7471ZM117.3 48.288C113.556 48.288 111.324 45.888 111.324 42.288C111.324 38.568 113.844 35.472 117.492 35.472C120.852 35.472 122.268 38.088 122.268 40.344C122.268 41.376 121.836 42.096 120.372 42.096H116.268C116.532 43.536 117.3 44.496 118.932 44.496C120.468 44.496 121.188 43.248 121.884 43.824C122.772 44.568 121.716 48.288 117.3 48.288ZM116.172 40.032L118.044 39.888C118.164 38.688 117.996 37.728 117.324 37.728C116.7 37.728 116.292 38.664 116.172 40.032ZM123.716 48C123.308 48 123.116 47.784 123.116 47.16C123.116 46.512 123.74 46.152 123.74 45.096V38.76C123.74 37.704 123.116 37.584 123.116 36.936C123.116 36.312 123.428 36.168 124.004 36.072C124.652 35.928 126.644 35.616 127.46 35.496C128.3 35.376 128.612 35.736 128.612 36.408V36.696C129.26 36 130.268 35.472 131.732 35.472C134.228 35.472 135.692 37.104 135.692 39.864V45.096C135.692 46.152 136.316 46.512 136.316 47.16C136.316 47.784 136.124 48 135.716 48H130.796C130.412 48 130.196 47.784 130.196 47.16C130.196 46.512 130.844 46.152 130.844 45.096V40.728C130.844 39.528 130.484 38.976 129.716 38.976C128.996 38.976 128.636 39.624 128.612 40.872V45.096C128.612 46.152 129.236 46.512 129.236 47.16C129.236 47.784 129.02 48 128.636 48H123.716ZM141.97 48.288C139.474 48.288 138.13 46.56 138.13 44.112V38.136H137.818C137.05 38.136 136.666 37.632 136.666 36.936C136.666 36.24 137.05 35.736 137.818 35.736H138.13C139.306 35.736 139.834 35.448 140.338 33.816C140.65 32.784 142.978 32.856 142.978 34.032V35.736H143.842C144.61 35.736 145.018 36.24 145.018 36.936C145.018 37.632 144.61 38.136 143.842 38.136H142.978V43.56C142.978 44.328 143.122 44.712 143.698 44.712C144.274 44.712 144.898 44.136 145.45 44.52C146.314 45.144 145.57 48.288 141.97 48.288ZM152.011 48.288C148.267 48.288 146.035 45.888 146.035 42.288C146.035 38.568 148.555 35.472 152.203 35.472C155.563 35.472 156.979 38.088 156.979 40.344C156.979 41.376 156.547 42.096 155.083 42.096H150.979C151.243 43.536 152.011 44.496 153.643 44.496C155.179 44.496 155.899 43.248 156.595 43.824C157.483 44.568 156.427 48.288 152.011 48.288ZM150.883 40.032L152.755 39.888C152.875 38.688 152.707 37.728 152.035 37.728C151.411 37.728 151.003 38.664 150.883 40.032Z" fill="#FDF9F4"/>
</svg>
