<svg width="52" height="75" viewBox="0 0 52 75" fill="none" xmlns="http://www.w3.org/2000/svg">
<g opacity="0.8">
<g filter="url(#filter0_i_1026_3545)">
<path d="M26.2516 72.8264C37.9885 72.8264 47.5031 70.9788 47.5031 68.6998C47.5031 66.4208 37.9885 64.5732 26.2516 64.5732C14.5147 64.5732 5 66.4208 5 68.6998C5 70.9788 14.5147 72.8264 26.2516 72.8264Z" fill="#47250D"/>
<path d="M42.5544 66.2109L33.4207 35.1648C36.3422 33.2927 38.219 30.4275 38.219 27.2146C38.219 21.5735 32.4573 17 25.3505 17C18.2437 17 12.4819 21.5735 12.4819 27.2146C12.4819 30.6559 14.634 33.695 17.9246 35.5472L10.1985 66.3202C9.66672 68.4356 11.7062 70.407 14.4213 70.407H38.3566C41.128 70.407 43.18 68.3562 42.5481 66.2109H42.5544Z" fill="#43559D"/>
<path d="M25.2941 37.6013C22.6479 37.6013 19.939 36.7174 17.9309 35.5405L17.5618 37.0203L20.2018 37.7503C23.7302 38.7236 27.5651 38.5944 30.9871 37.3878L33.8398 36.5485L33.4332 35.1631C31.2999 36.6181 28.2845 37.6013 25.3004 37.6013H25.2941Z" fill="#47250D"/>
<path d="M34.9805 28.6298C36.3416 28.1304 36.3425 25.8325 34.9826 23.4975C33.6227 21.1624 31.4169 19.6744 30.0558 20.1738C28.6947 20.6732 28.6937 22.9711 30.0536 25.3061C31.4135 27.6412 33.6193 29.1293 34.9805 28.6298Z" fill="white"/>
</g>
</g>
<path d="M19.305 68.586C19.305 70.2871 20.0104 71.9185 21.2659 73.1214C22.5215 74.3242 24.2244 75 26 75C27.7756 75 29.4785 74.3242 30.7341 73.1214C31.9896 71.9185 32.695 70.2871 32.695 68.586C32.695 67.7437 32.5218 66.9097 32.1854 66.1315C31.8489 65.3533 31.3558 64.6462 30.7341 64.0506C30.1124 63.4551 29.3743 62.9826 28.5621 62.6603C27.7498 62.3379 26.8792 62.172 26 62.172C25.1208 62.172 24.2502 62.3379 23.4379 62.6603C22.6257 62.9826 21.8876 63.4551 21.2659 64.0506C20.6442 64.6462 20.1511 65.3533 19.8146 66.1315C19.4782 66.9097 19.305 67.7437 19.305 68.586ZM37.7975 44.3748C47.216 39.4055 52 32.2007 52 22.9658C52 7.1052 38.9415 0 26 0C13.3965 0 0 8.77408 0 25.0394C0 26.691 0.684819 28.2749 1.90381 29.4427C3.12279 30.6105 4.77609 31.2666 6.5 31.2666C8.22391 31.2666 9.87721 30.6105 11.0962 29.4427C12.3152 28.2749 13 26.691 13 25.0394C13 16.3899 19.7405 12.4543 26 12.4543C30.8555 12.4543 39 13.8181 39 22.9658C39 26.2101 38.1095 29.9963 31.5315 33.471C27.0595 35.8187 19.5 41.9151 19.5 49.8173C19.5 51.4689 20.1848 53.0528 21.4038 54.2206C22.6228 55.3884 24.2761 56.0445 26 56.0445C27.7239 56.0445 29.3772 55.3884 30.5962 54.2206C31.8152 53.0528 32.5 51.4689 32.5 49.8173C32.5 48.6591 35.0675 45.8133 37.7975 44.3748Z" fill="#301D14"/>
<defs>
<filter id="filter0_i_1026_3545" x="5" y="17" width="42.5032" height="58.8262" filterUnits="userSpaceOnUse" color-interpolation-filters="sRGB">
<feFlood flood-opacity="0" result="BackgroundImageFix"/>
<feBlend mode="normal" in="SourceGraphic" in2="BackgroundImageFix" result="shape"/>
<feColorMatrix in="SourceAlpha" type="matrix" values="0 0 0 0 0 0 0 0 0 0 0 0 0 0 0 0 0 0 127 0" result="hardAlpha"/>
<feOffset dy="3"/>
<feGaussianBlur stdDeviation="2"/>
<feComposite in2="hardAlpha" operator="arithmetic" k2="-1" k3="1"/>
<feColorMatrix type="matrix" values="0 0 0 0 0.244444 0 0 0 0 0.00950615 0 0 0 0 0.236613 0 0 0 0.4 0"/>
<feBlend mode="normal" in2="shape" result="effect1_innerShadow_1026_3545"/>
</filter>
</defs>
</svg>
