<svg width="138" height="30" viewBox="0 0 138 30" fill="none" xmlns="http://www.w3.org/2000/svg">
<rect x="0.878418" width="137.122" height="29.8491" rx="14.9246" fill="#C85875"/>
<path d="M129.254 4.27507C132.915 6.79056 135.097 10.1415 134.139 11.7687C133.181 13.396 131.176 9.73028 127.515 7.22113C123.855 4.70564 119.934 4.3008 120.892 2.67356C121.85 1.04633 125.599 1.76624 129.254 4.27507Z" fill="white"/>
<path d="M33.8227 22.6025C33.4387 22.6025 33.2227 22.3865 33.2227 21.7625C33.2227 21.1145 33.8467 20.7545 33.8467 19.6985V8.73054C33.8467 7.65054 33.2227 7.29054 33.2227 6.64254C33.2227 6.01854 33.4387 5.80254 33.8227 5.80254H39.2467C43.6867 5.80254 46.5427 7.57854 46.5427 11.1305C46.5427 13.1705 45.8227 14.7065 44.3107 15.5945L46.4227 20.0105C46.8787 21.0185 47.4547 21.1145 47.4547 21.7625C47.4547 22.3865 47.2387 22.6025 46.8547 22.6025H41.4307C41.0467 22.6025 40.8307 22.3865 40.8307 21.7625C40.8307 21.1145 41.3587 20.9225 40.9027 19.6985L39.7027 16.4345H38.8867V19.6985C38.8867 20.7545 39.5347 21.1145 39.5347 21.7625C39.5347 22.3865 39.3187 22.6025 38.9347 22.6025H33.8227ZM38.8867 12.4265C38.8867 13.0745 39.0307 13.4825 39.6307 13.4825H39.8947C40.8307 13.4825 41.2627 12.6665 41.2627 11.2985C41.2627 9.81054 40.4707 8.75454 39.6307 8.75454C39.0307 8.75454 38.8867 9.18654 38.8867 9.81054V12.4265ZM53.4403 22.8905C49.6963 22.8905 47.4643 20.4905 47.4643 16.8905C47.4643 13.1705 49.9843 10.0745 53.6323 10.0745C56.9923 10.0745 58.4083 12.6905 58.4083 14.9465C58.4083 15.9785 57.9763 16.6985 56.5123 16.6985H52.4083C52.6723 18.1385 53.4403 19.0985 55.0723 19.0985C56.6083 19.0985 57.3283 17.8505 58.0243 18.4265C58.9123 19.1705 57.8563 22.8905 53.4403 22.8905ZM52.3123 14.6345L54.1843 14.4905C54.3043 13.2905 54.1363 12.3305 53.4643 12.3305C52.8403 12.3305 52.4323 13.2665 52.3123 14.6345ZM59.8561 22.6025C59.4721 22.6025 59.2561 22.3865 59.2561 21.7625C59.2561 21.1145 59.8801 20.7545 59.8801 19.6985V13.3625C59.8801 12.3065 59.2561 12.1865 59.2561 11.5385C59.2561 10.9145 59.5681 10.7705 60.1441 10.6745C60.8161 10.5545 62.5921 10.2185 63.4321 10.0985C64.2721 9.97854 64.5601 10.3385 64.5601 11.0105V11.3465C65.0641 10.6025 65.7601 10.0745 66.8641 10.0745C68.4721 10.0745 69.3601 11.2025 69.3601 12.5945C69.3601 13.7945 68.9041 15.8345 67.3441 15.8345C66.5521 15.8345 66.2161 15.2825 66.0241 14.7305C65.8561 14.2985 65.6401 13.9385 65.2801 13.9385C64.8241 13.9385 64.6561 14.3465 64.6561 15.2345V19.6985C64.6561 20.7545 65.2801 21.1145 65.2801 21.7625C65.2801 22.3865 65.0881 22.6025 64.6801 22.6025H59.8561ZM70.6843 22.6025C70.3003 22.6025 70.0843 22.3865 70.0843 21.7625C70.0843 21.1145 70.7083 20.7545 70.7083 19.6985V13.3625C70.7083 12.3065 70.0843 12.1865 70.0843 11.5385C70.0843 10.9145 70.3963 10.7705 70.9723 10.6745C71.6443 10.5545 73.4203 10.2185 74.2603 10.0985C75.1003 9.97854 75.3883 10.3385 75.3883 11.0105V11.3465C75.8923 10.6025 76.5883 10.0745 77.6923 10.0745C79.3003 10.0745 80.1883 11.2025 80.1883 12.5945C80.1883 13.7945 79.7323 15.8345 78.1723 15.8345C77.3803 15.8345 77.0443 15.2825 76.8523 14.7305C76.6843 14.2985 76.4683 13.9385 76.1083 13.9385C75.6523 13.9385 75.4843 14.3465 75.4843 15.2345V19.6985C75.4843 20.7545 76.1083 21.1145 76.1083 21.7625C76.1083 22.3865 75.9163 22.6025 75.5083 22.6025H70.6843ZM86.351 22.8905C82.415 22.8905 80.183 20.0585 80.183 16.4825C80.183 12.9065 82.415 10.0745 86.351 10.0745C90.311 10.0745 92.543 12.9065 92.543 16.4825C92.543 20.0585 90.311 22.8905 86.351 22.8905ZM84.959 16.4825C84.959 18.7625 85.439 20.2745 86.351 20.2745C87.287 20.2745 87.767 18.7625 87.767 16.4825C87.767 14.2025 87.287 12.6905 86.351 12.6905C85.439 12.6905 84.959 14.2025 84.959 16.4825ZM93.9811 22.6025C93.5731 22.6025 93.3811 22.3865 93.3811 21.7625C93.3811 21.1145 94.0051 20.7545 94.0051 19.6985V8.70654C94.0051 7.65054 93.3811 7.53054 93.3811 6.88254C93.3811 6.25854 93.6691 6.11454 94.2691 6.01854C94.9171 5.89854 96.8851 5.56254 97.7251 5.44254C98.5651 5.32254 98.8531 5.68254 98.8531 6.35454V19.6985C98.8531 20.7545 99.5011 21.1145 99.5011 21.7625C99.5011 22.3865 99.2851 22.6025 98.9011 22.6025H93.9811ZM100.942 22.6025C100.534 22.6025 100.342 22.3865 100.342 21.7625C100.342 21.1145 100.966 20.7545 100.966 19.6985V8.70654C100.966 7.65054 100.342 7.53054 100.342 6.88254C100.342 6.25854 100.63 6.11454 101.23 6.01854C101.878 5.89854 103.846 5.56254 104.686 5.44254C105.526 5.32254 105.814 5.68254 105.814 6.35454V19.6985C105.814 20.7545 106.462 21.1145 106.462 21.7625C106.462 22.3865 106.246 22.6025 105.862 22.6025H100.942Z" fill="#FDF9F4"/>
</svg>
