<svg width="33" height="50" viewBox="0 0 33 50" fill="none" xmlns="http://www.w3.org/2000/svg">
<path d="M21.444 1.83739L2.2286 21.871C0.199509 23.987 0.304025 27.3134 2.46193 29.2972L21.7232 47.0046C25.1499 50.1549 30.7697 47.764 30.7608 43.1569L30.7149 5.41585C30.711 0.661348 24.7695 -1.63051 21.444 1.83739Z" fill="#643E26"/>
<path d="M19.2282 11.1463L7.87563 22.9851C6.6779 24.2341 6.73963 26.1986 8.01354 27.3744L19.3925 37.8354C21.4155 39.6952 24.7377 38.2841 24.7347 35.5625L24.7081 13.2579C24.7071 10.446 21.1962 9.09392 19.228 11.1415L19.2282 11.1463Z" fill="#9E572D" stroke="#9E572D" stroke-miterlimit="10"/>
<path d="M28.3259 8.22669C29.4672 8.08662 30.1909 6.50753 29.9424 4.6997C29.6939 2.89187 28.5672 1.53989 27.4259 1.67996C26.2846 1.82004 25.5608 3.39913 25.8093 5.20696C26.0579 7.01479 27.1845 8.36677 28.3259 8.22669Z" fill="white"/>
</svg>
