<svg width="33" height="50" viewBox="0 0 33 50" fill="none" xmlns="http://www.w3.org/2000/svg">
<path d="M10.6185 1.83739L29.8339 21.871C31.863 23.987 31.7585 27.3134 29.6006 29.2972L10.3393 47.0046C6.91259 50.1549 1.2928 47.764 1.30173 43.1569L1.34763 5.41585C1.35149 0.661347 7.29304 -1.63051 10.6185 1.83739Z" fill="#643E26"/>
<path d="M12.8343 11.1463L24.1869 22.9851C25.3846 24.2341 25.3229 26.1986 24.049 27.3744L12.67 37.8354C10.647 39.6952 7.3248 38.2841 7.32785 35.5625L7.3544 13.2579C7.35544 10.446 10.8663 9.09392 12.8345 11.1415L12.8343 11.1463Z" fill="#9E572D" stroke="#9E572D" stroke-miterlimit="10"/>
<path d="M3.73664 8.22669C2.59533 8.08662 1.87157 6.50753 2.12008 4.6997C2.36859 2.89187 3.49527 1.53989 4.63659 1.67996C5.77791 1.82004 6.50167 3.39913 6.25315 5.20696C6.00464 7.01479 4.87796 8.36677 3.73664 8.22669Z" fill="white"/>
</svg>
