<svg width="168" height="193" viewBox="0 0 168 193" fill="none" xmlns="http://www.w3.org/2000/svg">
<g filter="url(#filter0_d_1017_3196)">
<path d="M58.4315 144C86.2841 144 108.863 133.762 108.863 121.133C108.863 108.504 86.2841 98.2666 58.4315 98.2666C30.579 98.2666 8 108.504 8 121.133C8 133.762 30.579 144 58.4315 144Z" fill="#7E5435"/>
</g>
<path d="M100.338 114.471C100.238 111.071 99.8273 107.745 99.1303 104.557C94.5999 83.8477 78.1089 68.3447 58.4316 68.3447C38.7543 68.3447 22.5869 83.3483 17.8574 103.675C16.9612 107.522 16.4883 111.57 16.4883 115.736H16.5007C16.5007 115.821 16.4883 115.916 16.4883 116.001C16.4883 124.746 35.3814 131.834 58.7054 131.834C82.0294 131.834 100.537 124.746 100.537 116.001C100.537 115.48 100.462 114.97 100.338 114.471Z" fill="#9AB2D7"/>
<path d="M85.3524 81.5635C86.2609 83.6568 87.8416 89.1397 85.6884 87.8646C82.1039 85.7501 77.1753 86.0901 76.2667 83.9968C75.3582 81.9036 74.238 78.8434 76.6899 78.0677C79.1418 77.292 84.4438 79.4703 85.3524 81.5635Z" fill="white"/>
<path d="M99.1176 104.557C99.8146 107.755 100.225 111.071 100.325 114.471C100.449 114.981 100.524 115.491 100.524 116.001C100.524 124.746 82.0042 131.833 58.6927 131.833C35.3812 131.833 16.4756 124.746 16.4756 116.001C16.4756 115.905 16.488 115.82 16.488 115.735H16.4756C16.4756 111.57 16.9485 107.522 17.8447 103.675C43.4338 98.9998 69.8942 99.0742 95.446 103.866L99.1052 104.557H99.1176Z" fill="#F1AF73"/>
<path d="M58.3072 68.4189C51.0013 68.4189 44.1311 70.5441 38.1445 74.2525C42.8989 78.2265 51.549 80.1498 59.3029 80.1498C67.0568 80.1498 72.1099 77.0152 75.9806 72.8818C69.8945 68.9609 65.7873 68.4189 58.3072 68.4189Z" fill="#77A1AD"/>
<path d="M58.5683 74.6455C35.4061 74.6455 16.625 49.2712 16.625 17.9678H100.512C100.512 49.2712 81.7305 74.6455 58.5683 74.6455Z" fill="#9AB2D7"/>
<path d="M58.5185 32.3553C81.7106 32.3553 100.512 26.0091 100.512 18.1806C100.512 10.3521 81.7106 4.00586 58.5185 4.00586C35.3263 4.00586 16.5254 10.3521 16.5254 18.1806C16.5254 26.0091 35.3263 32.3553 58.5185 32.3553Z" fill="white"/>
<path d="M58.5683 42.0354C86.4208 42.0354 109 32.6255 109 21.0177C109 9.40995 86.4208 0 58.5683 0C30.7157 0 8.13672 9.40995 8.13672 21.0177C8.13672 32.6255 30.7157 42.0354 58.5683 42.0354Z" fill="#7E5435"/>
<path d="M58.4314 32.3665C79.5545 32.3665 96.6782 25.2305 96.6782 16.4279C96.6782 7.62521 79.5545 0.489258 58.4314 0.489258C37.3083 0.489258 20.1846 7.62521 20.1846 16.4279C20.1846 25.2305 37.3083 32.3665 58.4314 32.3665Z" fill="#9A6A47"/>
<path d="M104.718 25.0665C103.636 26.2459 100.624 28.9767 100.873 27.5954C101.308 25.2896 99.8645 23.3664 100.947 22.1869C102.03 21.0074 103.648 19.3817 104.743 20.1149C105.839 20.8481 105.789 23.887 104.706 25.0665H104.718Z" fill="white"/>
<g filter="url(#filter1_d_1017_3196)">
<path d="M109.084 181C136.936 181 159.515 170.762 159.515 158.133C159.515 145.504 136.936 135.267 109.084 135.267C81.2313 135.267 58.6523 145.504 58.6523 158.133C58.6523 170.762 81.2313 181 109.084 181Z" fill="#7E5435"/>
</g>
<path d="M150.99 151.471C150.89 148.071 150.48 144.745 149.783 141.557C145.252 120.848 128.761 105.345 109.084 105.345C89.4067 105.345 73.2392 120.348 68.5097 140.675C67.6136 144.522 67.1406 148.57 67.1406 152.736H67.1531C67.1531 152.821 67.1406 152.916 67.1406 153.001C67.1406 161.746 86.0338 168.834 109.358 168.834C132.682 168.834 151.189 161.746 151.189 153.001C151.189 152.48 151.114 151.97 150.99 151.471Z" fill="#9AB2D7"/>
<path d="M136.005 118.564C136.913 120.657 138.494 126.14 136.341 124.865C132.756 122.75 127.828 123.09 126.919 120.997C126.011 118.904 124.89 115.843 127.342 115.068C129.794 114.292 135.096 116.47 136.005 118.564Z" fill="white"/>
<path d="M149.77 141.557C150.467 144.755 150.878 148.071 150.977 151.471C151.102 151.981 151.176 152.491 151.176 153.001C151.176 161.746 132.657 168.833 109.345 168.833C86.0335 168.833 67.1279 161.746 67.1279 153.001C67.1279 152.905 67.1404 152.82 67.1404 152.735H67.1279C67.1279 148.57 67.6009 144.522 68.497 140.675C94.0862 136 120.547 136.074 146.098 140.866L149.757 141.557H149.77Z" fill="#F1AF73"/>
<path d="M108.96 105.419C101.654 105.419 94.7834 107.544 88.7969 111.252C93.5513 115.226 102.201 117.15 109.955 117.15C117.709 117.15 122.762 114.015 126.633 109.882C120.547 105.961 116.44 105.419 108.96 105.419Z" fill="#77A1AD"/>
<path d="M109.221 111.645C86.0585 111.645 67.2773 86.2712 67.2773 54.9678H151.164C151.164 86.2712 132.383 111.645 109.221 111.645Z" fill="#9AB2D7"/>
<path d="M109.171 69.3553C132.363 69.3553 151.164 63.0091 151.164 55.1806C151.164 47.3521 132.363 41.0059 109.171 41.0059C85.9787 41.0059 67.1777 47.3521 67.1777 55.1806C67.1777 63.0091 85.9787 69.3553 109.171 69.3553Z" fill="white"/>
<path d="M109.221 79.0354C137.073 79.0354 159.652 69.6255 159.652 58.0177C159.652 46.4099 137.073 37 109.221 37C81.368 37 58.7891 46.4099 58.7891 58.0177C58.7891 69.6255 81.368 79.0354 109.221 79.0354Z" fill="#7E5435"/>
<path d="M109.084 69.3665C130.207 69.3665 147.331 62.2305 147.331 53.4279C147.331 44.6252 130.207 37.4893 109.084 37.4893C87.9606 37.4893 70.8369 44.6252 70.8369 53.4279C70.8369 62.2305 87.9606 69.3665 109.084 69.3665Z" fill="#9A6A47"/>
<path d="M155.371 62.0665C154.288 63.2459 151.276 65.9767 151.525 64.5954C151.961 62.2896 150.517 60.3664 151.6 59.1869C152.682 58.0074 154.3 56.3817 155.396 57.1149C156.491 57.8481 156.441 60.887 155.358 62.0665H155.371Z" fill="white"/>
<defs>
<filter id="filter0_d_1017_3196" x="0" y="94.2666" width="116.863" height="61.7334" filterUnits="userSpaceOnUse" color-interpolation-filters="sRGB">
<feFlood flood-opacity="0" result="BackgroundImageFix"/>
<feColorMatrix in="SourceAlpha" type="matrix" values="0 0 0 0 0 0 0 0 0 0 0 0 0 0 0 0 0 0 127 0" result="hardAlpha"/>
<feMorphology radius="4" operator="dilate" in="SourceAlpha" result="effect1_dropShadow_1017_3196"/>
<feOffset dy="4"/>
<feGaussianBlur stdDeviation="2"/>
<feColorMatrix type="matrix" values="0 0 0 0 0.772549 0 0 0 0 0.427451 0 0 0 0 0.454902 0 0 0 1 0"/>
<feBlend mode="normal" in2="BackgroundImageFix" result="effect1_dropShadow_1017_3196"/>
<feBlend mode="normal" in="SourceGraphic" in2="effect1_dropShadow_1017_3196" result="shape"/>
</filter>
<filter id="filter1_d_1017_3196" x="50.6523" y="131.267" width="116.863" height="61.7334" filterUnits="userSpaceOnUse" color-interpolation-filters="sRGB">
<feFlood flood-opacity="0" result="BackgroundImageFix"/>
<feColorMatrix in="SourceAlpha" type="matrix" values="0 0 0 0 0 0 0 0 0 0 0 0 0 0 0 0 0 0 127 0" result="hardAlpha"/>
<feMorphology radius="4" operator="dilate" in="SourceAlpha" result="effect1_dropShadow_1017_3196"/>
<feOffset dy="4"/>
<feGaussianBlur stdDeviation="2"/>
<feColorMatrix type="matrix" values="0 0 0 0 0.772549 0 0 0 0 0.427451 0 0 0 0 0.454902 0 0 0 1 0"/>
<feBlend mode="normal" in2="BackgroundImageFix" result="effect1_dropShadow_1017_3196"/>
<feBlend mode="normal" in="SourceGraphic" in2="effect1_dropShadow_1017_3196" result="shape"/>
</filter>
</defs>
</svg>
