<svg width="174" height="231" viewBox="0 0 174 231" fill="none" xmlns="http://www.w3.org/2000/svg">
<g filter="url(#filter0_d_1017_3236)">
<path d="M64.7792 144C92.6318 144 115.211 133.762 115.211 121.133C115.211 108.504 92.6318 98.2666 64.7792 98.2666C36.9266 98.2666 14.3477 108.504 14.3477 121.133C14.3477 133.762 36.9266 144 64.7792 144Z" fill="#7E5435"/>
</g>
<path d="M106.685 114.471C106.586 111.071 106.175 107.745 105.478 104.557C100.948 83.8477 84.4565 68.3447 64.7792 68.3447C45.102 68.3447 28.9345 83.3483 24.205 103.675C23.3089 107.522 22.8359 111.57 22.8359 115.736H22.8484C22.8484 115.821 22.8359 115.916 22.8359 116.001C22.8359 124.746 41.7291 131.834 65.0531 131.834C88.377 131.834 106.884 124.746 106.884 116.001C106.884 115.48 106.81 114.97 106.685 114.471Z" fill="#9AB2D7"/>
<path d="M91.7 81.5635C92.6086 83.6568 94.1892 89.1397 92.0361 87.8646C88.4516 85.7501 83.5229 86.0901 82.6144 83.9968C81.7058 81.9036 80.5857 78.8434 83.0376 78.0677C85.4894 77.292 90.7915 79.4703 91.7 81.5635Z" fill="white"/>
<path d="M105.465 104.557C106.162 107.755 106.573 111.071 106.673 114.471C106.797 114.981 106.872 115.491 106.872 116.001C106.872 124.746 88.3519 131.833 65.0404 131.833C41.7288 131.833 22.8232 124.746 22.8232 116.001C22.8232 115.905 22.8357 115.82 22.8357 115.735H22.8232C22.8232 111.57 23.2962 107.522 24.1923 103.675C49.7815 98.9998 76.2418 99.0742 101.794 103.866L105.453 104.557H105.465Z" fill="#F1AF73"/>
<path d="M64.6548 68.4189C57.349 68.4189 50.4788 70.5441 44.4922 74.2525C49.2466 78.2265 57.8966 80.1498 65.6505 80.1498C73.4045 80.1498 78.4576 77.0152 82.3283 72.8818C76.2422 68.9609 72.1349 68.4189 64.6548 68.4189Z" fill="#77A1AD"/>
<path d="M64.916 74.6455C41.7538 74.6455 22.9727 49.2712 22.9727 17.9678H106.859C106.859 49.2712 88.0781 74.6455 64.916 74.6455Z" fill="#9AB2D7"/>
<path d="M64.8661 32.3553C88.0583 32.3553 106.859 26.0091 106.859 18.1806C106.859 10.3521 88.0583 4.00586 64.8661 4.00586C41.674 4.00586 22.873 10.3521 22.873 18.1806C22.873 26.0091 41.674 32.3553 64.8661 32.3553Z" fill="white"/>
<path d="M64.9159 42.0354C92.7685 42.0354 115.347 32.6255 115.347 21.0177C115.347 9.40995 92.7685 0 64.9159 0C37.0633 0 14.4844 9.40995 14.4844 21.0177C14.4844 32.6255 37.0633 42.0354 64.9159 42.0354Z" fill="#7E5435"/>
<path d="M64.7791 32.3665C85.9022 32.3665 103.026 25.2305 103.026 16.4279C103.026 7.62521 85.9022 0.489258 64.7791 0.489258C43.6559 0.489258 26.5322 7.62521 26.5322 16.4279C26.5322 25.2305 43.6559 32.3665 64.7791 32.3665Z" fill="#9A6A47"/>
<path d="M111.066 25.0665C109.983 26.2459 106.971 28.9767 107.22 27.5954C107.656 25.2896 106.212 23.3664 107.295 22.1869C108.378 21.0074 109.996 19.3817 111.091 20.1149C112.186 20.8481 112.136 23.887 111.054 25.0665H111.066Z" fill="white"/>
<g filter="url(#filter1_d_1017_3236)">
<path d="M115.432 181C143.284 181 165.863 170.762 165.863 158.133C165.863 145.504 143.284 135.267 115.432 135.267C87.579 135.267 65 145.504 65 158.133C65 170.762 87.579 181 115.432 181Z" fill="#7E5435"/>
</g>
<path d="M157.338 151.471C157.238 148.071 156.827 144.745 156.13 141.557C151.6 120.848 135.109 105.345 115.432 105.345C95.7543 105.345 79.5869 120.348 74.8574 140.675C73.9612 144.522 73.4883 148.57 73.4883 152.736H73.5007C73.5007 152.821 73.4883 152.916 73.4883 153.001C73.4883 161.746 92.3814 168.834 115.705 168.834C139.029 168.834 157.537 161.746 157.537 153.001C157.537 152.48 157.462 151.97 157.338 151.471Z" fill="#9AB2D7"/>
<path d="M142.352 118.564C143.261 120.657 144.842 126.14 142.688 124.865C139.104 122.75 134.175 123.09 133.267 120.997C132.358 118.904 131.238 115.843 133.69 115.068C136.142 114.292 141.444 116.47 142.352 118.564Z" fill="white"/>
<path d="M156.118 141.557C156.815 144.755 157.225 148.071 157.325 151.471C157.449 151.981 157.524 152.491 157.524 153.001C157.524 161.746 139.004 168.833 115.693 168.833C92.3812 168.833 73.4756 161.746 73.4756 153.001C73.4756 152.905 73.488 152.82 73.488 152.735H73.4756C73.4756 148.57 73.9485 144.522 74.8447 140.675C100.434 136 126.894 136.074 152.446 140.866L156.105 141.557H156.118Z" fill="#F1AF73"/>
<path d="M115.307 105.419C108.001 105.419 101.131 107.544 95.1445 111.252C99.8989 115.226 108.549 117.15 116.303 117.15C124.057 117.15 129.11 114.015 132.981 109.882C126.895 105.961 122.787 105.419 115.307 105.419Z" fill="#77A1AD"/>
<path d="M115.568 111.645C92.4061 111.645 73.625 86.2712 73.625 54.9678H157.512C157.512 86.2712 138.73 111.645 115.568 111.645Z" fill="#9AB2D7"/>
<path d="M115.518 69.3553C138.711 69.3553 157.512 63.0091 157.512 55.1806C157.512 47.3521 138.711 41.0059 115.518 41.0059C92.3263 41.0059 73.5254 47.3521 73.5254 55.1806C73.5254 63.0091 92.3263 69.3553 115.518 69.3553Z" fill="white"/>
<path d="M115.568 79.0354C143.421 79.0354 166 69.6255 166 58.0177C166 46.4099 143.421 37 115.568 37C87.7157 37 65.1367 46.4099 65.1367 58.0177C65.1367 69.6255 87.7157 79.0354 115.568 79.0354Z" fill="#7E5435"/>
<path d="M115.431 69.3665C136.555 69.3665 153.678 62.2305 153.678 53.4279C153.678 44.6252 136.555 37.4893 115.431 37.4893C94.3083 37.4893 77.1846 44.6252 77.1846 53.4279C77.1846 62.2305 94.3083 69.3665 115.431 69.3665Z" fill="#9A6A47"/>
<path d="M161.718 62.0665C160.636 63.2459 157.624 65.9767 157.873 64.5954C158.308 62.2896 156.864 60.3664 157.947 59.1869C159.03 58.0074 160.648 56.3817 161.743 57.1149C162.839 57.8481 162.789 60.887 161.706 62.0665H161.718Z" fill="white"/>
<g filter="url(#filter2_d_1017_3236)">
<path d="M58.4315 219C86.2841 219 108.863 208.762 108.863 196.133C108.863 183.504 86.2841 173.267 58.4315 173.267C30.579 173.267 8 183.504 8 196.133C8 208.762 30.579 219 58.4315 219Z" fill="#7E5435"/>
</g>
<path d="M100.338 189.471C100.238 186.071 99.8273 182.745 99.1303 179.557C94.5999 158.848 78.1089 143.345 58.4316 143.345C38.7543 143.345 22.5869 158.348 17.8574 178.675C16.9612 182.522 16.4883 186.57 16.4883 190.736H16.5007C16.5007 190.821 16.4883 190.916 16.4883 191.001C16.4883 199.746 35.3814 206.834 58.7054 206.834C82.0294 206.834 100.537 199.746 100.537 191.001C100.537 190.48 100.462 189.97 100.338 189.471Z" fill="#9AB2D7"/>
<path d="M85.3524 156.564C86.2609 158.657 87.8416 164.14 85.6884 162.865C82.1039 160.75 77.1753 161.09 76.2667 158.997C75.3582 156.904 74.238 153.843 76.6899 153.068C79.1418 152.292 84.4438 154.47 85.3524 156.564Z" fill="white"/>
<path d="M99.1176 179.557C99.8146 182.755 100.225 186.071 100.325 189.471C100.449 189.981 100.524 190.491 100.524 191.001C100.524 199.746 82.0042 206.833 58.6927 206.833C35.3812 206.833 16.4756 199.746 16.4756 191.001C16.4756 190.905 16.488 190.82 16.488 190.735H16.4756C16.4756 186.57 16.9485 182.522 17.8447 178.675C43.4338 174 69.8942 174.074 95.446 178.866L99.1052 179.557H99.1176Z" fill="#F1AF73"/>
<path d="M58.3072 143.419C51.0013 143.419 44.1311 145.544 38.1445 149.252C42.8989 153.226 51.549 155.15 59.3029 155.15C67.0568 155.15 72.1099 152.015 75.9806 147.882C69.8945 143.961 65.7873 143.419 58.3072 143.419Z" fill="#77A1AD"/>
<path d="M58.5683 149.645C35.4061 149.645 16.625 124.271 16.625 92.9678H100.512C100.512 124.271 81.7305 149.645 58.5683 149.645Z" fill="#9AB2D7"/>
<path d="M58.5185 107.355C81.7106 107.355 100.512 101.009 100.512 93.1806C100.512 85.3521 81.7106 79.0059 58.5185 79.0059C35.3263 79.0059 16.5254 85.3521 16.5254 93.1806C16.5254 101.009 35.3263 107.355 58.5185 107.355Z" fill="white"/>
<path d="M58.5683 117.035C86.4208 117.035 109 107.625 109 96.0177C109 84.4099 86.4208 75 58.5683 75C30.7157 75 8.13672 84.4099 8.13672 96.0177C8.13672 107.625 30.7157 117.035 58.5683 117.035Z" fill="#7E5435"/>
<path d="M58.4314 107.366C79.5545 107.366 96.6782 100.231 96.6782 91.4279C96.6782 82.6252 79.5545 75.4893 58.4314 75.4893C37.3083 75.4893 20.1846 82.6252 20.1846 91.4279C20.1846 100.231 37.3083 107.366 58.4314 107.366Z" fill="#9A6A47"/>
<path d="M104.718 100.066C103.636 101.246 100.624 103.977 100.873 102.595C101.308 100.29 99.8645 98.3664 100.947 97.1869C102.03 96.0074 103.648 94.3817 104.743 95.1149C105.839 95.8481 105.789 98.887 104.706 100.066H104.718Z" fill="white"/>
<defs>
<filter id="filter0_d_1017_3236" x="6.34766" y="94.2666" width="116.863" height="61.7334" filterUnits="userSpaceOnUse" color-interpolation-filters="sRGB">
<feFlood flood-opacity="0" result="BackgroundImageFix"/>
<feColorMatrix in="SourceAlpha" type="matrix" values="0 0 0 0 0 0 0 0 0 0 0 0 0 0 0 0 0 0 127 0" result="hardAlpha"/>
<feMorphology radius="4" operator="dilate" in="SourceAlpha" result="effect1_dropShadow_1017_3236"/>
<feOffset dy="4"/>
<feGaussianBlur stdDeviation="2"/>
<feColorMatrix type="matrix" values="0 0 0 0 0.772549 0 0 0 0 0.427451 0 0 0 0 0.454902 0 0 0 1 0"/>
<feBlend mode="normal" in2="BackgroundImageFix" result="effect1_dropShadow_1017_3236"/>
<feBlend mode="normal" in="SourceGraphic" in2="effect1_dropShadow_1017_3236" result="shape"/>
</filter>
<filter id="filter1_d_1017_3236" x="57" y="131.267" width="116.863" height="61.7334" filterUnits="userSpaceOnUse" color-interpolation-filters="sRGB">
<feFlood flood-opacity="0" result="BackgroundImageFix"/>
<feColorMatrix in="SourceAlpha" type="matrix" values="0 0 0 0 0 0 0 0 0 0 0 0 0 0 0 0 0 0 127 0" result="hardAlpha"/>
<feMorphology radius="4" operator="dilate" in="SourceAlpha" result="effect1_dropShadow_1017_3236"/>
<feOffset dy="4"/>
<feGaussianBlur stdDeviation="2"/>
<feColorMatrix type="matrix" values="0 0 0 0 0.772549 0 0 0 0 0.427451 0 0 0 0 0.454902 0 0 0 1 0"/>
<feBlend mode="normal" in2="BackgroundImageFix" result="effect1_dropShadow_1017_3236"/>
<feBlend mode="normal" in="SourceGraphic" in2="effect1_dropShadow_1017_3236" result="shape"/>
</filter>
<filter id="filter2_d_1017_3236" x="0" y="169.267" width="116.863" height="61.7334" filterUnits="userSpaceOnUse" color-interpolation-filters="sRGB">
<feFlood flood-opacity="0" result="BackgroundImageFix"/>
<feColorMatrix in="SourceAlpha" type="matrix" values="0 0 0 0 0 0 0 0 0 0 0 0 0 0 0 0 0 0 127 0" result="hardAlpha"/>
<feMorphology radius="4" operator="dilate" in="SourceAlpha" result="effect1_dropShadow_1017_3236"/>
<feOffset dy="4"/>
<feGaussianBlur stdDeviation="2"/>
<feColorMatrix type="matrix" values="0 0 0 0 0.772549 0 0 0 0 0.427451 0 0 0 0 0.454902 0 0 0 1 0"/>
<feBlend mode="normal" in2="BackgroundImageFix" result="effect1_dropShadow_1017_3236"/>
<feBlend mode="normal" in="SourceGraphic" in2="effect1_dropShadow_1017_3236" result="shape"/>
</filter>
</defs>
</svg>
