<svg width="215" height="239" viewBox="0 0 215 239" fill="none" xmlns="http://www.w3.org/2000/svg">
<g filter="url(#filter0_d_1019_3341)">
<path d="M70.4315 144C98.2841 144 120.863 133.762 120.863 121.133C120.863 108.504 98.2841 98.2666 70.4315 98.2666C42.579 98.2666 20 108.504 20 121.133C20 133.762 42.579 144 70.4315 144Z" fill="#7E5435"/>
</g>
<path d="M112.338 114.471C112.238 111.071 111.827 107.745 111.13 104.557C106.6 83.8477 90.1089 68.3447 70.4316 68.3447C50.7543 68.3447 34.5869 83.3483 29.8574 103.675C28.9612 107.522 28.4883 111.57 28.4883 115.736H28.5007C28.5007 115.821 28.4883 115.916 28.4883 116.001C28.4883 124.746 47.3814 131.834 70.7054 131.834C94.0294 131.834 112.537 124.746 112.537 116.001C112.537 115.48 112.462 114.97 112.338 114.471Z" fill="#9AB2D7"/>
<path d="M97.3524 81.5635C98.2609 83.6568 99.8416 89.1397 97.6884 87.8646C94.1039 85.7501 89.1753 86.0901 88.2667 83.9968C87.3582 81.9036 86.238 78.8434 88.6899 78.0677C91.1418 77.292 96.4438 79.4703 97.3524 81.5635Z" fill="white"/>
<path d="M111.118 104.557C111.815 107.755 112.225 111.071 112.325 114.471C112.449 114.981 112.524 115.491 112.524 116.001C112.524 124.746 94.0042 131.833 70.6927 131.833C47.3812 131.833 28.4756 124.746 28.4756 116.001C28.4756 115.905 28.488 115.82 28.488 115.735H28.4756C28.4756 111.57 28.9485 107.522 29.8447 103.675C55.4338 98.9998 81.8942 99.0742 107.446 103.866L111.105 104.557H111.118Z" fill="#F1AF73"/>
<path d="M70.3072 68.4189C63.0013 68.4189 56.1311 70.5441 50.1445 74.2525C54.8989 78.2265 63.549 80.1498 71.3029 80.1498C79.0568 80.1498 84.1099 77.0152 87.9806 72.8818C81.8945 68.9609 77.7873 68.4189 70.3072 68.4189Z" fill="#77A1AD"/>
<path d="M70.5683 74.6455C47.4061 74.6455 28.625 49.2712 28.625 17.9678H112.512C112.512 49.2712 93.7305 74.6455 70.5683 74.6455Z" fill="#9AB2D7"/>
<path d="M70.5185 32.3553C93.7106 32.3553 112.512 26.0091 112.512 18.1806C112.512 10.3521 93.7106 4.00586 70.5185 4.00586C47.3263 4.00586 28.5254 10.3521 28.5254 18.1806C28.5254 26.0091 47.3263 32.3553 70.5185 32.3553Z" fill="white"/>
<path d="M70.5683 42.0354C98.4208 42.0354 121 32.6255 121 21.0177C121 9.40995 98.4208 0 70.5683 0C42.7157 0 20.1367 9.40995 20.1367 21.0177C20.1367 32.6255 42.7157 42.0354 70.5683 42.0354Z" fill="#7E5435"/>
<path d="M70.4314 32.3665C91.5545 32.3665 108.678 25.2305 108.678 16.4279C108.678 7.62521 91.5545 0.489258 70.4314 0.489258C49.3083 0.489258 32.1846 7.62521 32.1846 16.4279C32.1846 25.2305 49.3083 32.3665 70.4314 32.3665Z" fill="#9A6A47"/>
<path d="M116.718 25.0665C115.636 26.2459 112.624 28.9767 112.873 27.5954C113.308 25.2896 111.864 23.3664 112.947 22.1869C114.03 21.0074 115.648 19.3817 116.743 20.1149C117.839 20.8481 117.789 23.887 116.706 25.0665H116.718Z" fill="white"/>
<g filter="url(#filter1_d_1019_3341)">
<path d="M142.432 176C170.284 176 192.863 165.762 192.863 153.133C192.863 140.504 170.284 130.267 142.432 130.267C114.579 130.267 92 140.504 92 153.133C92 165.762 114.579 176 142.432 176Z" fill="#7E5435"/>
</g>
<path d="M184.338 146.471C184.238 143.071 183.827 139.745 183.13 136.557C178.6 115.848 162.109 100.345 142.432 100.345C122.754 100.345 106.587 115.348 101.857 135.675C100.961 139.522 100.488 143.57 100.488 147.736H100.501C100.501 147.821 100.488 147.916 100.488 148.001C100.488 156.746 119.381 163.834 142.705 163.834C166.029 163.834 184.537 156.746 184.537 148.001C184.537 147.48 184.462 146.97 184.338 146.471Z" fill="#9AB2D7"/>
<path d="M169.352 113.564C170.261 115.657 171.842 121.14 169.688 119.865C166.104 117.75 161.175 118.09 160.267 115.997C159.358 113.904 158.238 110.843 160.69 110.068C163.142 109.292 168.444 111.47 169.352 113.564Z" fill="white"/>
<path d="M183.118 136.557C183.815 139.755 184.225 143.071 184.325 146.471C184.449 146.981 184.524 147.491 184.524 148.001C184.524 156.746 166.004 163.833 142.693 163.833C119.381 163.833 100.476 156.746 100.476 148.001C100.476 147.905 100.488 147.82 100.488 147.735H100.476C100.476 143.57 100.949 139.522 101.845 135.675C127.434 131 153.894 131.074 179.446 135.866L183.105 136.557H183.118Z" fill="#F1AF73"/>
<path d="M142.307 100.419C135.001 100.419 128.131 102.544 122.145 106.252C126.899 110.226 135.549 112.15 143.303 112.15C151.057 112.15 156.11 109.015 159.981 104.882C153.895 100.961 149.787 100.419 142.307 100.419Z" fill="#77A1AD"/>
<path d="M142.568 106.645C119.406 106.645 100.625 81.2712 100.625 49.9678H184.512C184.512 81.2712 165.73 106.645 142.568 106.645Z" fill="#9AB2D7"/>
<path d="M142.518 64.3553C165.711 64.3553 184.512 58.0091 184.512 50.1806C184.512 42.3521 165.711 36.0059 142.518 36.0059C119.326 36.0059 100.525 42.3521 100.525 50.1806C100.525 58.0091 119.326 64.3553 142.518 64.3553Z" fill="white"/>
<path d="M142.568 74.0354C170.421 74.0354 193 64.6255 193 53.0177C193 41.4099 170.421 32 142.568 32C114.716 32 92.1367 41.4099 92.1367 53.0177C92.1367 64.6255 114.716 74.0354 142.568 74.0354Z" fill="#7E5435"/>
<path d="M142.431 64.3665C163.555 64.3665 180.678 57.2305 180.678 48.4279C180.678 39.6252 163.555 32.4893 142.431 32.4893C121.308 32.4893 104.185 39.6252 104.185 48.4279C104.185 57.2305 121.308 64.3665 142.431 64.3665Z" fill="#9A6A47"/>
<path d="M188.718 57.0665C187.636 58.2459 184.624 60.9767 184.873 59.5954C185.308 57.2896 183.864 55.3664 184.947 54.1869C186.03 53.0074 187.648 51.3817 188.743 52.1149C189.839 52.8481 189.789 55.887 188.706 57.0665H188.718Z" fill="white"/>
<g filter="url(#filter2_d_1019_3341)">
<path d="M156.432 227C184.284 227 206.863 216.762 206.863 204.133C206.863 191.504 184.284 181.267 156.432 181.267C128.579 181.267 106 191.504 106 204.133C106 216.762 128.579 227 156.432 227Z" fill="#7E5435"/>
</g>
<path d="M198.338 197.471C198.238 194.071 197.827 190.745 197.13 187.557C192.6 166.848 176.109 151.345 156.432 151.345C136.754 151.345 120.587 166.348 115.857 186.675C114.961 190.522 114.488 194.57 114.488 198.736H114.501C114.501 198.821 114.488 198.916 114.488 199.001C114.488 207.746 133.381 214.834 156.705 214.834C180.029 214.834 198.537 207.746 198.537 199.001C198.537 198.48 198.462 197.97 198.338 197.471Z" fill="#9AB2D7"/>
<path d="M183.352 164.564C184.261 166.657 185.842 172.14 183.688 170.865C180.104 168.75 175.175 169.09 174.267 166.997C173.358 164.904 172.238 161.843 174.69 161.068C177.142 160.292 182.444 162.47 183.352 164.564Z" fill="white"/>
<path d="M197.118 187.557C197.815 190.755 198.225 194.071 198.325 197.471C198.449 197.981 198.524 198.491 198.524 199.001C198.524 207.746 180.004 214.833 156.693 214.833C133.381 214.833 114.476 207.746 114.476 199.001C114.476 198.905 114.488 198.82 114.488 198.735H114.476C114.476 194.57 114.949 190.522 115.845 186.675C141.434 182 167.894 182.074 193.446 186.866L197.105 187.557H197.118Z" fill="#F1AF73"/>
<path d="M156.307 151.419C149.001 151.419 142.131 153.544 136.145 157.252C140.899 161.226 149.549 163.15 157.303 163.15C165.057 163.15 170.11 160.015 173.981 155.882C167.895 151.961 163.787 151.419 156.307 151.419Z" fill="#77A1AD"/>
<path d="M156.568 157.645C133.406 157.645 114.625 132.271 114.625 100.968H198.512C198.512 132.271 179.73 157.645 156.568 157.645Z" fill="#9AB2D7"/>
<path d="M156.518 115.355C179.711 115.355 198.512 109.009 198.512 101.181C198.512 93.3521 179.711 87.0059 156.518 87.0059C133.326 87.0059 114.525 93.3521 114.525 101.181C114.525 109.009 133.326 115.355 156.518 115.355Z" fill="white"/>
<path d="M156.568 125.035C184.421 125.035 207 115.625 207 104.018C207 92.4099 184.421 83 156.568 83C128.716 83 106.137 92.4099 106.137 104.018C106.137 115.625 128.716 125.035 156.568 125.035Z" fill="#7E5435"/>
<path d="M156.431 115.366C177.555 115.366 194.678 108.231 194.678 99.4279C194.678 90.6252 177.555 83.4893 156.431 83.4893C135.308 83.4893 118.185 90.6252 118.185 99.4279C118.185 108.231 135.308 115.366 156.431 115.366Z" fill="#9A6A47"/>
<path d="M202.718 108.066C201.636 109.246 198.624 111.977 198.873 110.595C199.308 108.29 197.864 106.366 198.947 105.187C200.03 104.007 201.648 102.382 202.743 103.115C203.839 103.848 203.789 106.887 202.706 108.066H202.718Z" fill="white"/>
<g filter="url(#filter3_d_1019_3341)">
<path d="M58.4315 216C86.2841 216 108.863 205.762 108.863 193.133C108.863 180.504 86.2841 170.267 58.4315 170.267C30.579 170.267 8 180.504 8 193.133C8 205.762 30.579 216 58.4315 216Z" fill="#7E5435"/>
</g>
<path d="M100.338 186.471C100.238 183.071 99.8273 179.745 99.1303 176.557C94.5999 155.848 78.1089 140.345 58.4316 140.345C38.7543 140.345 22.5869 155.348 17.8574 175.675C16.9612 179.522 16.4883 183.57 16.4883 187.736H16.5007C16.5007 187.821 16.4883 187.916 16.4883 188.001C16.4883 196.746 35.3814 203.834 58.7054 203.834C82.0294 203.834 100.537 196.746 100.537 188.001C100.537 187.48 100.462 186.97 100.338 186.471Z" fill="#9AB2D7"/>
<path d="M85.3524 153.564C86.2609 155.657 87.8416 161.14 85.6884 159.865C82.1039 157.75 77.1753 158.09 76.2667 155.997C75.3582 153.904 74.238 150.843 76.6899 150.068C79.1418 149.292 84.4438 151.47 85.3524 153.564Z" fill="white"/>
<path d="M99.1176 176.557C99.8146 179.755 100.225 183.071 100.325 186.471C100.449 186.981 100.524 187.491 100.524 188.001C100.524 196.746 82.0042 203.833 58.6927 203.833C35.3812 203.833 16.4756 196.746 16.4756 188.001C16.4756 187.905 16.488 187.82 16.488 187.735H16.4756C16.4756 183.57 16.9485 179.522 17.8447 175.675C43.4338 171 69.8942 171.074 95.446 175.866L99.1052 176.557H99.1176Z" fill="#F1AF73"/>
<path d="M58.3072 140.419C51.0013 140.419 44.1311 142.544 38.1445 146.252C42.8989 150.226 51.549 152.15 59.3029 152.15C67.0568 152.15 72.1099 149.015 75.9806 144.882C69.8945 140.961 65.7873 140.419 58.3072 140.419Z" fill="#77A1AD"/>
<path d="M58.5683 146.645C35.4061 146.645 16.625 121.271 16.625 89.9678H100.512C100.512 121.271 81.7305 146.645 58.5683 146.645Z" fill="#9AB2D7"/>
<path d="M58.5185 104.355C81.7106 104.355 100.512 98.0091 100.512 90.1806C100.512 82.3521 81.7106 76.0059 58.5185 76.0059C35.3263 76.0059 16.5254 82.3521 16.5254 90.1806C16.5254 98.0091 35.3263 104.355 58.5185 104.355Z" fill="white"/>
<path d="M58.5683 114.035C86.4208 114.035 109 104.625 109 93.0177C109 81.4099 86.4208 72 58.5683 72C30.7157 72 8.13672 81.4099 8.13672 93.0177C8.13672 104.625 30.7157 114.035 58.5683 114.035Z" fill="#7E5435"/>
<path d="M58.4314 104.366C79.5545 104.366 96.6782 97.2305 96.6782 88.4279C96.6782 79.6252 79.5545 72.4893 58.4314 72.4893C37.3083 72.4893 20.1846 79.6252 20.1846 88.4279C20.1846 97.2305 37.3083 104.366 58.4314 104.366Z" fill="#9A6A47"/>
<path d="M104.718 97.0665C103.636 98.2459 100.624 100.977 100.873 99.5954C101.308 97.2896 99.8645 95.3664 100.947 94.1869C102.03 93.0074 103.648 91.3817 104.743 92.1149C105.839 92.8481 105.789 95.887 104.706 97.0665H104.718Z" fill="white"/>
<defs>
<filter id="filter0_d_1019_3341" x="12" y="94.2666" width="116.863" height="61.7334" filterUnits="userSpaceOnUse" color-interpolation-filters="sRGB">
<feFlood flood-opacity="0" result="BackgroundImageFix"/>
<feColorMatrix in="SourceAlpha" type="matrix" values="0 0 0 0 0 0 0 0 0 0 0 0 0 0 0 0 0 0 127 0" result="hardAlpha"/>
<feMorphology radius="4" operator="dilate" in="SourceAlpha" result="effect1_dropShadow_1019_3341"/>
<feOffset dy="4"/>
<feGaussianBlur stdDeviation="2"/>
<feColorMatrix type="matrix" values="0 0 0 0 0.772549 0 0 0 0 0.427451 0 0 0 0 0.454902 0 0 0 1 0"/>
<feBlend mode="normal" in2="BackgroundImageFix" result="effect1_dropShadow_1019_3341"/>
<feBlend mode="normal" in="SourceGraphic" in2="effect1_dropShadow_1019_3341" result="shape"/>
</filter>
<filter id="filter1_d_1019_3341" x="84" y="126.267" width="116.863" height="61.7334" filterUnits="userSpaceOnUse" color-interpolation-filters="sRGB">
<feFlood flood-opacity="0" result="BackgroundImageFix"/>
<feColorMatrix in="SourceAlpha" type="matrix" values="0 0 0 0 0 0 0 0 0 0 0 0 0 0 0 0 0 0 127 0" result="hardAlpha"/>
<feMorphology radius="4" operator="dilate" in="SourceAlpha" result="effect1_dropShadow_1019_3341"/>
<feOffset dy="4"/>
<feGaussianBlur stdDeviation="2"/>
<feColorMatrix type="matrix" values="0 0 0 0 0.772549 0 0 0 0 0.427451 0 0 0 0 0.454902 0 0 0 1 0"/>
<feBlend mode="normal" in2="BackgroundImageFix" result="effect1_dropShadow_1019_3341"/>
<feBlend mode="normal" in="SourceGraphic" in2="effect1_dropShadow_1019_3341" result="shape"/>
</filter>
<filter id="filter2_d_1019_3341" x="98" y="177.267" width="116.863" height="61.7334" filterUnits="userSpaceOnUse" color-interpolation-filters="sRGB">
<feFlood flood-opacity="0" result="BackgroundImageFix"/>
<feColorMatrix in="SourceAlpha" type="matrix" values="0 0 0 0 0 0 0 0 0 0 0 0 0 0 0 0 0 0 127 0" result="hardAlpha"/>
<feMorphology radius="4" operator="dilate" in="SourceAlpha" result="effect1_dropShadow_1019_3341"/>
<feOffset dy="4"/>
<feGaussianBlur stdDeviation="2"/>
<feColorMatrix type="matrix" values="0 0 0 0 0.772549 0 0 0 0 0.427451 0 0 0 0 0.454902 0 0 0 1 0"/>
<feBlend mode="normal" in2="BackgroundImageFix" result="effect1_dropShadow_1019_3341"/>
<feBlend mode="normal" in="SourceGraphic" in2="effect1_dropShadow_1019_3341" result="shape"/>
</filter>
<filter id="filter3_d_1019_3341" x="0" y="166.267" width="116.863" height="61.7334" filterUnits="userSpaceOnUse" color-interpolation-filters="sRGB">
<feFlood flood-opacity="0" result="BackgroundImageFix"/>
<feColorMatrix in="SourceAlpha" type="matrix" values="0 0 0 0 0 0 0 0 0 0 0 0 0 0 0 0 0 0 127 0" result="hardAlpha"/>
<feMorphology radius="4" operator="dilate" in="SourceAlpha" result="effect1_dropShadow_1019_3341"/>
<feOffset dy="4"/>
<feGaussianBlur stdDeviation="2"/>
<feColorMatrix type="matrix" values="0 0 0 0 0.772549 0 0 0 0 0.427451 0 0 0 0 0.454902 0 0 0 1 0"/>
<feBlend mode="normal" in2="BackgroundImageFix" result="effect1_dropShadow_1019_3341"/>
<feBlend mode="normal" in="SourceGraphic" in2="effect1_dropShadow_1019_3341" result="shape"/>
</filter>
</defs>
</svg>
