<svg width="246" height="294" viewBox="0 0 246 294" fill="none" xmlns="http://www.w3.org/2000/svg">
<g filter="url(#filter0_d_1023_3486)">
<path d="M72.4315 144C100.284 144 122.863 133.762 122.863 121.133C122.863 108.504 100.284 98.2666 72.4315 98.2666C44.579 98.2666 22 108.504 22 121.133C22 133.762 44.579 144 72.4315 144Z" fill="#7E5435"/>
</g>
<path d="M114.338 114.471C114.238 111.071 113.827 107.745 113.13 104.557C108.6 83.8477 92.1089 68.3447 72.4316 68.3447C52.7543 68.3447 36.5869 83.3483 31.8574 103.675C30.9612 107.522 30.4883 111.57 30.4883 115.736H30.5007C30.5007 115.821 30.4883 115.916 30.4883 116.001C30.4883 124.746 49.3814 131.834 72.7054 131.834C96.0294 131.834 114.537 124.746 114.537 116.001C114.537 115.48 114.462 114.97 114.338 114.471Z" fill="#9AB2D7"/>
<path d="M99.3524 81.5635C100.261 83.6568 101.842 89.1397 99.6884 87.8646C96.1039 85.7501 91.1753 86.0901 90.2667 83.9968C89.3582 81.9036 88.238 78.8434 90.6899 78.0677C93.1418 77.292 98.4438 79.4703 99.3524 81.5635Z" fill="white"/>
<path d="M113.118 104.557C113.815 107.755 114.225 111.071 114.325 114.471C114.449 114.981 114.524 115.491 114.524 116.001C114.524 124.746 96.0042 131.833 72.6927 131.833C49.3812 131.833 30.4756 124.746 30.4756 116.001C30.4756 115.905 30.488 115.82 30.488 115.735H30.4756C30.4756 111.57 30.9485 107.522 31.8447 103.675C57.4338 98.9998 83.8942 99.0742 109.446 103.866L113.105 104.557H113.118Z" fill="#F1AF73"/>
<path d="M72.3072 68.4189C65.0013 68.4189 58.1311 70.5441 52.1445 74.2525C56.8989 78.2265 65.549 80.1498 73.3029 80.1498C81.0568 80.1498 86.1099 77.0152 89.9806 72.8818C83.8945 68.9609 79.7873 68.4189 72.3072 68.4189Z" fill="#77A1AD"/>
<path d="M72.5683 74.6455C49.4061 74.6455 30.625 49.2712 30.625 17.9678H114.512C114.512 49.2712 95.7305 74.6455 72.5683 74.6455Z" fill="#9AB2D7"/>
<path d="M72.5185 32.3553C95.7106 32.3553 114.512 26.0091 114.512 18.1806C114.512 10.3521 95.7106 4.00586 72.5185 4.00586C49.3263 4.00586 30.5254 10.3521 30.5254 18.1806C30.5254 26.0091 49.3263 32.3553 72.5185 32.3553Z" fill="white"/>
<path d="M72.5683 42.0354C100.421 42.0354 123 32.6255 123 21.0177C123 9.40995 100.421 0 72.5683 0C44.7157 0 22.1367 9.40995 22.1367 21.0177C22.1367 32.6255 44.7157 42.0354 72.5683 42.0354Z" fill="#7E5435"/>
<path d="M72.4314 32.3665C93.5545 32.3665 110.678 25.2305 110.678 16.4279C110.678 7.62521 93.5545 0.489258 72.4314 0.489258C51.3083 0.489258 34.1846 7.62521 34.1846 16.4279C34.1846 25.2305 51.3083 32.3665 72.4314 32.3665Z" fill="#9A6A47"/>
<path d="M118.718 25.0665C117.636 26.2459 114.624 28.9767 114.873 27.5954C115.308 25.2896 113.864 23.3664 114.947 22.1869C116.03 21.0074 117.648 19.3817 118.743 20.1149C119.839 20.8481 119.789 23.887 118.706 25.0665H118.718Z" fill="white"/>
<g filter="url(#filter1_d_1023_3486)">
<path d="M144.432 176C172.284 176 194.863 165.762 194.863 153.133C194.863 140.504 172.284 130.267 144.432 130.267C116.579 130.267 94 140.504 94 153.133C94 165.762 116.579 176 144.432 176Z" fill="#7E5435"/>
</g>
<path d="M186.338 146.471C186.238 143.071 185.827 139.745 185.13 136.557C180.6 115.848 164.109 100.345 144.432 100.345C124.754 100.345 108.587 115.348 103.857 135.675C102.961 139.522 102.488 143.57 102.488 147.736H102.501C102.501 147.821 102.488 147.916 102.488 148.001C102.488 156.746 121.381 163.834 144.705 163.834C168.029 163.834 186.537 156.746 186.537 148.001C186.537 147.48 186.462 146.97 186.338 146.471Z" fill="#9AB2D7"/>
<path d="M171.352 113.564C172.261 115.657 173.842 121.14 171.688 119.865C168.104 117.75 163.175 118.09 162.267 115.997C161.358 113.904 160.238 110.843 162.69 110.068C165.142 109.292 170.444 111.47 171.352 113.564Z" fill="white"/>
<path d="M185.118 136.557C185.815 139.755 186.225 143.071 186.325 146.471C186.449 146.981 186.524 147.491 186.524 148.001C186.524 156.746 168.004 163.833 144.693 163.833C121.381 163.833 102.476 156.746 102.476 148.001C102.476 147.905 102.488 147.82 102.488 147.735H102.476C102.476 143.57 102.949 139.522 103.845 135.675C129.434 131 155.894 131.074 181.446 135.866L185.105 136.557H185.118Z" fill="#F1AF73"/>
<path d="M144.307 100.419C137.001 100.419 130.131 102.544 124.145 106.252C128.899 110.226 137.549 112.15 145.303 112.15C153.057 112.15 158.11 109.015 161.981 104.882C155.895 100.961 151.787 100.419 144.307 100.419Z" fill="#77A1AD"/>
<path d="M144.568 106.645C121.406 106.645 102.625 81.2712 102.625 49.9678H186.512C186.512 81.2712 167.73 106.645 144.568 106.645Z" fill="#9AB2D7"/>
<path d="M144.518 64.3553C167.711 64.3553 186.512 58.0091 186.512 50.1806C186.512 42.3521 167.711 36.0059 144.518 36.0059C121.326 36.0059 102.525 42.3521 102.525 50.1806C102.525 58.0091 121.326 64.3553 144.518 64.3553Z" fill="white"/>
<path d="M144.568 74.0354C172.421 74.0354 195 64.6255 195 53.0177C195 41.4099 172.421 32 144.568 32C116.716 32 94.1367 41.4099 94.1367 53.0177C94.1367 64.6255 116.716 74.0354 144.568 74.0354Z" fill="#7E5435"/>
<path d="M144.431 64.3665C165.555 64.3665 182.678 57.2305 182.678 48.4279C182.678 39.6252 165.555 32.4893 144.431 32.4893C123.308 32.4893 106.185 39.6252 106.185 48.4279C106.185 57.2305 123.308 64.3665 144.431 64.3665Z" fill="#9A6A47"/>
<path d="M190.718 57.0665C189.636 58.2459 186.624 60.9767 186.873 59.5954C187.308 57.2896 185.864 55.3664 186.947 54.1869C188.03 53.0074 189.648 51.3817 190.743 52.1149C191.839 52.8481 191.789 55.887 190.706 57.0665H190.718Z" fill="white"/>
<g filter="url(#filter2_d_1023_3486)">
<path d="M158.432 227C186.284 227 208.863 216.762 208.863 204.133C208.863 191.504 186.284 181.267 158.432 181.267C130.579 181.267 108 191.504 108 204.133C108 216.762 130.579 227 158.432 227Z" fill="#7E5435"/>
</g>
<path d="M200.338 197.471C200.238 194.071 199.827 190.745 199.13 187.557C194.6 166.848 178.109 151.345 158.432 151.345C138.754 151.345 122.587 166.348 117.857 186.675C116.961 190.522 116.488 194.57 116.488 198.736H116.501C116.501 198.821 116.488 198.916 116.488 199.001C116.488 207.746 135.381 214.834 158.705 214.834C182.029 214.834 200.537 207.746 200.537 199.001C200.537 198.48 200.462 197.97 200.338 197.471Z" fill="#9AB2D7"/>
<path d="M185.352 164.564C186.261 166.657 187.842 172.14 185.688 170.865C182.104 168.75 177.175 169.09 176.267 166.997C175.358 164.904 174.238 161.843 176.69 161.068C179.142 160.292 184.444 162.47 185.352 164.564Z" fill="white"/>
<path d="M199.118 187.557C199.815 190.755 200.225 194.071 200.325 197.471C200.449 197.981 200.524 198.491 200.524 199.001C200.524 207.746 182.004 214.833 158.693 214.833C135.381 214.833 116.476 207.746 116.476 199.001C116.476 198.905 116.488 198.82 116.488 198.735H116.476C116.476 194.57 116.949 190.522 117.845 186.675C143.434 182 169.894 182.074 195.446 186.866L199.105 187.557H199.118Z" fill="#F1AF73"/>
<path d="M158.307 151.419C151.001 151.419 144.131 153.544 138.145 157.252C142.899 161.226 151.549 163.15 159.303 163.15C167.057 163.15 172.11 160.015 175.981 155.882C169.895 151.961 165.787 151.419 158.307 151.419Z" fill="#77A1AD"/>
<path d="M158.568 157.645C135.406 157.645 116.625 132.271 116.625 100.968H200.512C200.512 132.271 181.73 157.645 158.568 157.645Z" fill="#9AB2D7"/>
<path d="M158.518 115.355C181.711 115.355 200.512 109.009 200.512 101.181C200.512 93.3521 181.711 87.0059 158.518 87.0059C135.326 87.0059 116.525 93.3521 116.525 101.181C116.525 109.009 135.326 115.355 158.518 115.355Z" fill="white"/>
<path d="M158.568 125.035C186.421 125.035 209 115.625 209 104.018C209 92.4099 186.421 83 158.568 83C130.716 83 108.137 92.4099 108.137 104.018C108.137 115.625 130.716 125.035 158.568 125.035Z" fill="#7E5435"/>
<path d="M158.431 115.366C179.555 115.366 196.678 108.231 196.678 99.4279C196.678 90.6252 179.555 83.4893 158.431 83.4893C137.308 83.4893 120.185 90.6252 120.185 99.4279C120.185 108.231 137.308 115.366 158.431 115.366Z" fill="#9A6A47"/>
<path d="M204.718 108.066C203.636 109.246 200.624 111.977 200.873 110.595C201.308 108.29 199.864 106.366 200.947 105.187C202.03 104.007 203.648 102.382 204.743 103.115C205.839 103.848 205.789 106.887 204.706 108.066H204.718Z" fill="white"/>
<g filter="url(#filter3_d_1023_3486)">
<path d="M58.4315 204C86.2841 204 108.863 193.762 108.863 181.133C108.863 168.504 86.2841 158.267 58.4315 158.267C30.579 158.267 8 168.504 8 181.133C8 193.762 30.579 204 58.4315 204Z" fill="#7E5435"/>
</g>
<path d="M100.338 174.471C100.238 171.071 99.8273 167.745 99.1303 164.557C94.5999 143.848 78.1089 128.345 58.4316 128.345C38.7543 128.345 22.5869 143.348 17.8574 163.675C16.9612 167.522 16.4883 171.57 16.4883 175.736H16.5007C16.5007 175.821 16.4883 175.916 16.4883 176.001C16.4883 184.746 35.3814 191.834 58.7054 191.834C82.0294 191.834 100.537 184.746 100.537 176.001C100.537 175.48 100.462 174.97 100.338 174.471Z" fill="#9AB2D7"/>
<path d="M85.3524 141.564C86.2609 143.657 87.8416 149.14 85.6884 147.865C82.1039 145.75 77.1753 146.09 76.2667 143.997C75.3582 141.904 74.238 138.843 76.6899 138.068C79.1418 137.292 84.4438 139.47 85.3524 141.564Z" fill="white"/>
<path d="M99.1176 164.557C99.8146 167.755 100.225 171.071 100.325 174.471C100.449 174.981 100.524 175.491 100.524 176.001C100.524 184.746 82.0042 191.833 58.6927 191.833C35.3812 191.833 16.4756 184.746 16.4756 176.001C16.4756 175.905 16.488 175.82 16.488 175.735H16.4756C16.4756 171.57 16.9485 167.522 17.8447 163.675C43.4338 159 69.8942 159.074 95.446 163.866L99.1052 164.557H99.1176Z" fill="#F1AF73"/>
<path d="M58.3072 128.419C51.0013 128.419 44.1311 130.544 38.1445 134.252C42.8989 138.226 51.549 140.15 59.3029 140.15C67.0568 140.15 72.1099 137.015 75.9806 132.882C69.8945 128.961 65.7873 128.419 58.3072 128.419Z" fill="#77A1AD"/>
<path d="M58.5683 134.645C35.4061 134.645 16.625 109.271 16.625 77.9678H100.512C100.512 109.271 81.7305 134.645 58.5683 134.645Z" fill="#9AB2D7"/>
<path d="M58.5185 92.3553C81.7106 92.3553 100.512 86.0091 100.512 78.1806C100.512 70.3521 81.7106 64.0059 58.5185 64.0059C35.3263 64.0059 16.5254 70.3521 16.5254 78.1806C16.5254 86.0091 35.3263 92.3553 58.5185 92.3553Z" fill="white"/>
<path d="M58.5683 102.035C86.4208 102.035 109 92.6255 109 81.0177C109 69.4099 86.4208 60 58.5683 60C30.7157 60 8.13672 69.4099 8.13672 81.0177C8.13672 92.6255 30.7157 102.035 58.5683 102.035Z" fill="#7E5435"/>
<path d="M58.4314 92.3665C79.5545 92.3665 96.6782 85.2305 96.6782 76.4279C96.6782 67.6252 79.5545 60.4893 58.4314 60.4893C37.3083 60.4893 20.1846 67.6252 20.1846 76.4279C20.1846 85.2305 37.3083 92.3665 58.4314 92.3665Z" fill="#9A6A47"/>
<path d="M104.718 85.0665C103.636 86.2459 100.624 88.9767 100.873 87.5954C101.308 85.2896 99.8645 83.3664 100.947 82.1869C102.03 81.0074 103.648 79.3817 104.743 80.1149C105.839 80.8481 105.789 83.887 104.706 85.0665H104.718Z" fill="white"/>
<g filter="url(#filter4_d_1023_3486)">
<path d="M89.4315 269C117.284 269 139.863 258.762 139.863 246.133C139.863 233.504 117.284 223.267 89.4315 223.267C61.579 223.267 39 233.504 39 246.133C39 258.762 61.579 269 89.4315 269Z" fill="#7E5435"/>
</g>
<path d="M131.338 239.471C131.238 236.071 130.827 232.745 130.13 229.557C125.6 208.848 109.109 193.345 89.4316 193.345C69.7543 193.345 53.5869 208.348 48.8574 228.675C47.9612 232.522 47.4883 236.57 47.4883 240.736H47.5007C47.5007 240.821 47.4883 240.916 47.4883 241.001C47.4883 249.746 66.3814 256.834 89.7054 256.834C113.029 256.834 131.537 249.746 131.537 241.001C131.537 240.48 131.462 239.97 131.338 239.471Z" fill="#9AB2D7"/>
<path d="M116.352 206.564C117.261 208.657 118.842 214.14 116.688 212.865C113.104 210.75 108.175 211.09 107.267 208.997C106.358 206.904 105.238 203.843 107.69 203.068C110.142 202.292 115.444 204.47 116.352 206.564Z" fill="white"/>
<path d="M130.118 229.557C130.815 232.755 131.225 236.071 131.325 239.471C131.449 239.981 131.524 240.491 131.524 241.001C131.524 249.746 113.004 256.833 89.6927 256.833C66.3812 256.833 47.4756 249.746 47.4756 241.001C47.4756 240.905 47.488 240.82 47.488 240.735H47.4756C47.4756 236.57 47.9485 232.522 48.8447 228.675C74.4338 224 100.894 224.074 126.446 228.866L130.105 229.557H130.118Z" fill="#F1AF73"/>
<path d="M89.3072 193.419C82.0013 193.419 75.1311 195.544 69.1445 199.252C73.8989 203.226 82.549 205.15 90.3029 205.15C98.0568 205.15 103.11 202.015 106.981 197.882C100.895 193.961 96.7873 193.419 89.3072 193.419Z" fill="#77A1AD"/>
<path d="M89.5683 199.645C66.4061 199.645 47.625 174.271 47.625 142.968H131.512C131.512 174.271 112.73 199.645 89.5683 199.645Z" fill="#9AB2D7"/>
<path d="M89.5185 157.355C112.711 157.355 131.512 151.009 131.512 143.181C131.512 135.352 112.711 129.006 89.5185 129.006C66.3263 129.006 47.5254 135.352 47.5254 143.181C47.5254 151.009 66.3263 157.355 89.5185 157.355Z" fill="white"/>
<path d="M89.5683 167.035C117.421 167.035 140 157.625 140 146.018C140 134.41 117.421 125 89.5683 125C61.7157 125 39.1367 134.41 39.1367 146.018C39.1367 157.625 61.7157 167.035 89.5683 167.035Z" fill="#7E5435"/>
<path d="M89.4314 157.366C110.555 157.366 127.678 150.231 127.678 141.428C127.678 132.625 110.555 125.489 89.4314 125.489C68.3083 125.489 51.1846 132.625 51.1846 141.428C51.1846 150.231 68.3083 157.366 89.4314 157.366Z" fill="#9A6A47"/>
<path d="M135.718 150.066C134.636 151.246 131.624 153.977 131.873 152.595C132.308 150.29 130.864 148.366 131.947 147.187C133.03 146.007 134.648 144.382 135.743 145.115C136.839 145.848 136.789 148.887 135.706 150.066H135.718Z" fill="white"/>
<g filter="url(#filter5_d_1023_3486)">
<path d="M187.432 282C215.284 282 237.863 271.762 237.863 259.133C237.863 246.504 215.284 236.267 187.432 236.267C159.579 236.267 137 246.504 137 259.133C137 271.762 159.579 282 187.432 282Z" fill="#7E5435"/>
</g>
<path d="M229.338 252.471C229.238 249.071 228.827 245.745 228.13 242.557C223.6 221.848 207.109 206.345 187.432 206.345C167.754 206.345 151.587 221.348 146.857 241.675C145.961 245.522 145.488 249.57 145.488 253.736H145.501C145.501 253.821 145.488 253.916 145.488 254.001C145.488 262.746 164.381 269.834 187.705 269.834C211.029 269.834 229.537 262.746 229.537 254.001C229.537 253.48 229.462 252.97 229.338 252.471Z" fill="#9AB2D7"/>
<path d="M214.352 219.564C215.261 221.657 216.842 227.14 214.688 225.865C211.104 223.75 206.175 224.09 205.267 221.997C204.358 219.904 203.238 216.843 205.69 216.068C208.142 215.292 213.444 217.47 214.352 219.564Z" fill="white"/>
<path d="M228.118 242.557C228.815 245.755 229.225 249.071 229.325 252.471C229.449 252.981 229.524 253.491 229.524 254.001C229.524 262.746 211.004 269.833 187.693 269.833C164.381 269.833 145.476 262.746 145.476 254.001C145.476 253.905 145.488 253.82 145.488 253.735H145.476C145.476 249.57 145.949 245.522 146.845 241.675C172.434 237 198.894 237.074 224.446 241.866L228.105 242.557H228.118Z" fill="#F1AF73"/>
<path d="M187.307 206.419C180.001 206.419 173.131 208.544 167.145 212.252C171.899 216.226 180.549 218.15 188.303 218.15C196.057 218.15 201.11 215.015 204.981 210.882C198.895 206.961 194.787 206.419 187.307 206.419Z" fill="#77A1AD"/>
<path d="M187.568 212.645C164.406 212.645 145.625 187.271 145.625 155.968H229.512C229.512 187.271 210.73 212.645 187.568 212.645Z" fill="#9AB2D7"/>
<path d="M187.518 170.355C210.711 170.355 229.512 164.009 229.512 156.181C229.512 148.352 210.711 142.006 187.518 142.006C164.326 142.006 145.525 148.352 145.525 156.181C145.525 164.009 164.326 170.355 187.518 170.355Z" fill="white"/>
<path d="M187.568 180.035C215.421 180.035 238 170.625 238 159.018C238 147.41 215.421 138 187.568 138C159.716 138 137.137 147.41 137.137 159.018C137.137 170.625 159.716 180.035 187.568 180.035Z" fill="#7E5435"/>
<path d="M187.431 170.366C208.555 170.366 225.678 163.231 225.678 154.428C225.678 145.625 208.555 138.489 187.431 138.489C166.308 138.489 149.185 145.625 149.185 154.428C149.185 163.231 166.308 170.366 187.431 170.366Z" fill="#9A6A47"/>
<path d="M233.718 163.066C232.636 164.246 229.624 166.977 229.873 165.595C230.308 163.29 228.864 161.366 229.947 160.187C231.03 159.007 232.648 157.382 233.743 158.115C234.839 158.848 234.789 161.887 233.706 163.066H233.718Z" fill="white"/>
<defs>
<filter id="filter0_d_1023_3486" x="14" y="94.2666" width="116.863" height="61.7334" filterUnits="userSpaceOnUse" color-interpolation-filters="sRGB">
<feFlood flood-opacity="0" result="BackgroundImageFix"/>
<feColorMatrix in="SourceAlpha" type="matrix" values="0 0 0 0 0 0 0 0 0 0 0 0 0 0 0 0 0 0 127 0" result="hardAlpha"/>
<feMorphology radius="4" operator="dilate" in="SourceAlpha" result="effect1_dropShadow_1023_3486"/>
<feOffset dy="4"/>
<feGaussianBlur stdDeviation="2"/>
<feColorMatrix type="matrix" values="0 0 0 0 0.772549 0 0 0 0 0.427451 0 0 0 0 0.454902 0 0 0 1 0"/>
<feBlend mode="normal" in2="BackgroundImageFix" result="effect1_dropShadow_1023_3486"/>
<feBlend mode="normal" in="SourceGraphic" in2="effect1_dropShadow_1023_3486" result="shape"/>
</filter>
<filter id="filter1_d_1023_3486" x="86" y="126.267" width="116.863" height="61.7334" filterUnits="userSpaceOnUse" color-interpolation-filters="sRGB">
<feFlood flood-opacity="0" result="BackgroundImageFix"/>
<feColorMatrix in="SourceAlpha" type="matrix" values="0 0 0 0 0 0 0 0 0 0 0 0 0 0 0 0 0 0 127 0" result="hardAlpha"/>
<feMorphology radius="4" operator="dilate" in="SourceAlpha" result="effect1_dropShadow_1023_3486"/>
<feOffset dy="4"/>
<feGaussianBlur stdDeviation="2"/>
<feColorMatrix type="matrix" values="0 0 0 0 0.772549 0 0 0 0 0.427451 0 0 0 0 0.454902 0 0 0 1 0"/>
<feBlend mode="normal" in2="BackgroundImageFix" result="effect1_dropShadow_1023_3486"/>
<feBlend mode="normal" in="SourceGraphic" in2="effect1_dropShadow_1023_3486" result="shape"/>
</filter>
<filter id="filter2_d_1023_3486" x="100" y="177.267" width="116.863" height="61.7334" filterUnits="userSpaceOnUse" color-interpolation-filters="sRGB">
<feFlood flood-opacity="0" result="BackgroundImageFix"/>
<feColorMatrix in="SourceAlpha" type="matrix" values="0 0 0 0 0 0 0 0 0 0 0 0 0 0 0 0 0 0 127 0" result="hardAlpha"/>
<feMorphology radius="4" operator="dilate" in="SourceAlpha" result="effect1_dropShadow_1023_3486"/>
<feOffset dy="4"/>
<feGaussianBlur stdDeviation="2"/>
<feColorMatrix type="matrix" values="0 0 0 0 0.772549 0 0 0 0 0.427451 0 0 0 0 0.454902 0 0 0 1 0"/>
<feBlend mode="normal" in2="BackgroundImageFix" result="effect1_dropShadow_1023_3486"/>
<feBlend mode="normal" in="SourceGraphic" in2="effect1_dropShadow_1023_3486" result="shape"/>
</filter>
<filter id="filter3_d_1023_3486" x="0" y="154.267" width="116.863" height="61.7334" filterUnits="userSpaceOnUse" color-interpolation-filters="sRGB">
<feFlood flood-opacity="0" result="BackgroundImageFix"/>
<feColorMatrix in="SourceAlpha" type="matrix" values="0 0 0 0 0 0 0 0 0 0 0 0 0 0 0 0 0 0 127 0" result="hardAlpha"/>
<feMorphology radius="4" operator="dilate" in="SourceAlpha" result="effect1_dropShadow_1023_3486"/>
<feOffset dy="4"/>
<feGaussianBlur stdDeviation="2"/>
<feColorMatrix type="matrix" values="0 0 0 0 0.772549 0 0 0 0 0.427451 0 0 0 0 0.454902 0 0 0 1 0"/>
<feBlend mode="normal" in2="BackgroundImageFix" result="effect1_dropShadow_1023_3486"/>
<feBlend mode="normal" in="SourceGraphic" in2="effect1_dropShadow_1023_3486" result="shape"/>
</filter>
<filter id="filter4_d_1023_3486" x="31" y="219.267" width="116.863" height="61.7334" filterUnits="userSpaceOnUse" color-interpolation-filters="sRGB">
<feFlood flood-opacity="0" result="BackgroundImageFix"/>
<feColorMatrix in="SourceAlpha" type="matrix" values="0 0 0 0 0 0 0 0 0 0 0 0 0 0 0 0 0 0 127 0" result="hardAlpha"/>
<feMorphology radius="4" operator="dilate" in="SourceAlpha" result="effect1_dropShadow_1023_3486"/>
<feOffset dy="4"/>
<feGaussianBlur stdDeviation="2"/>
<feColorMatrix type="matrix" values="0 0 0 0 0.772549 0 0 0 0 0.427451 0 0 0 0 0.454902 0 0 0 1 0"/>
<feBlend mode="normal" in2="BackgroundImageFix" result="effect1_dropShadow_1023_3486"/>
<feBlend mode="normal" in="SourceGraphic" in2="effect1_dropShadow_1023_3486" result="shape"/>
</filter>
<filter id="filter5_d_1023_3486" x="129" y="232.267" width="116.863" height="61.7334" filterUnits="userSpaceOnUse" color-interpolation-filters="sRGB">
<feFlood flood-opacity="0" result="BackgroundImageFix"/>
<feColorMatrix in="SourceAlpha" type="matrix" values="0 0 0 0 0 0 0 0 0 0 0 0 0 0 0 0 0 0 127 0" result="hardAlpha"/>
<feMorphology radius="4" operator="dilate" in="SourceAlpha" result="effect1_dropShadow_1023_3486"/>
<feOffset dy="4"/>
<feGaussianBlur stdDeviation="2"/>
<feColorMatrix type="matrix" values="0 0 0 0 0.772549 0 0 0 0 0.427451 0 0 0 0 0.454902 0 0 0 1 0"/>
<feBlend mode="normal" in2="BackgroundImageFix" result="effect1_dropShadow_1023_3486"/>
<feBlend mode="normal" in="SourceGraphic" in2="effect1_dropShadow_1023_3486" result="shape"/>
</filter>
</defs>
</svg>
